/* XPM */
static char *e8f6f3ec764f4a0eb8f695cead430cc7RsjnLZcLPkbBaUuH[] = {
/* columns rows colors chars-per-pixel */
"80 80 256 2 ",
"   c black",
".  c #010101",
"X  c #020202",
"o  c gray1",
"O  c #040404",
"+  c gray2",
"@  c #060606",
"#  c #070707",
"$  c gray3",
"%  c #090909",
"&  c gray4",
"*  c #0B0B0B",
"=  c #0C0C0C",
"-  c gray5",
";  c #0E0E0E",
":  c gray6",
">  c #101010",
",  c #111111",
"<  c gray7",
"1  c #131313",
"2  c gray8",
"3  c #151515",
"4  c #161616",
"5  c gray9",
"6  c #181818",
"7  c #191919",
"8  c gray10",
"9  c #1B1B1B",
"0  c gray11",
"q  c #1D1D1D",
"w  c #1E1E1E",
"e  c gray12",
"r  c #202020",
"t  c gray13",
"y  c #222222",
"u  c #232323",
"i  c gray14",
"p  c #252525",
"a  c gray15",
"s  c #272727",
"d  c #282828",
"f  c gray16",
"g  c #2A2A2A",
"h  c gray17",
"j  c #2C2C2C",
"k  c #2D2D2D",
"l  c gray18",
"z  c #2F2F2F",
"x  c gray19",
"c  c #313131",
"v  c #323232",
"b  c gray20",
"n  c #343434",
"m  c #353535",
"M  c gray21",
"N  c #373737",
"B  c gray22",
"V  c #393939",
"C  c #3A3A3A",
"Z  c gray23",
"A  c #3C3C3C",
"S  c gray24",
"D  c #3E3E3E",
"F  c #3F3F3F",
"G  c gray25",
"H  c #414141",
"J  c gray26",
"K  c #434343",
"L  c #444444",
"P  c gray27",
"I  c #464646",
"U  c gray28",
"Y  c #484848",
"T  c #494949",
"R  c gray29",
"E  c #4B4B4B",
"W  c #4C4C4C",
"Q  c gray30",
"!  c #4E4E4E",
"~  c gray31",
"^  c #505050",
"/  c #515151",
"(  c gray32",
")  c #535353",
"_  c gray33",
"`  c #555555",
"'  c #565656",
"]  c gray34",
"[  c #585858",
"{  c gray35",
"}  c #5A5A5A",
"|  c #5B5B5B",
" . c gray36",
".. c #5D5D5D",
"X. c gray37",
"o. c #5F5F5F",
"O. c #606060",
"+. c gray38",
"@. c #626262",
"#. c gray39",
"$. c #646464",
"%. c #656565",
"&. c gray40",
"*. c #676767",
"=. c #686868",
"-. c DimGray",
";. c #6A6A6A",
":. c gray42",
">. c #6C6C6C",
",. c #6D6D6D",
"<. c gray43",
"1. c #6F6F6F",
"2. c gray44",
"3. c #717171",
"4. c #727272",
"5. c gray45",
"6. c #747474",
"7. c gray46",
"8. c #767676",
"9. c #777777",
"0. c gray47",
"q. c #797979",
"w. c gray48",
"e. c #7B7B7B",
"r. c #7C7C7C",
"t. c gray49",
"y. c #7E7E7E",
"u. c gray50",
"i. c #808080",
"p. c #818181",
"a. c gray51",
"s. c #838383",
"d. c #848484",
"f. c gray52",
"g. c #868686",
"h. c gray53",
"j. c #888888",
"k. c #898989",
"l. c gray54",
"z. c #8B8B8B",
"x. c gray55",
"c. c #8D8D8D",
"v. c #8E8E8E",
"b. c gray56",
"n. c #909090",
"m. c gray57",
"M. c #929292",
"N. c #939393",
"B. c gray58",
"V. c #959595",
"C. c gray59",
"Z. c #979797",
"A. c #989898",
"S. c gray60",
"D. c #9A9A9A",
"F. c #9B9B9B",
"G. c gray61",
"H. c #9D9D9D",
"J. c gray62",
"K. c #9F9F9F",
"L. c #A0A0A0",
"P. c gray63",
"I. c #A2A2A2",
"U. c gray64",
"Y. c #A4A4A4",
"T. c #A5A5A5",
"R. c gray65",
"E. c #A7A7A7",
"W. c gray66",
"Q. c #A9A9A9",
"!. c #AAAAAA",
"~. c gray67",
"^. c #ACACAC",
"/. c gray68",
"(. c #AEAEAE",
"). c #AFAFAF",
"_. c gray69",
"`. c #B1B1B1",
"'. c #B2B2B2",
"]. c gray70",
"[. c #B4B4B4",
"{. c gray71",
"}. c #B6B6B6",
"|. c #B7B7B7",
" X c gray72",
".X c #B9B9B9",
"XX c gray73",
"oX c #BBBBBB",
"OX c #BCBCBC",
"+X c gray74",
"@X c gray",
"#X c gray75",
"$X c #C0C0C0",
"%X c #C1C1C1",
"&X c gray76",
"*X c #C3C3C3",
"=X c gray77",
"-X c #C5C5C5",
";X c #C6C6C6",
":X c gray78",
">X c #C8C8C8",
",X c gray79",
"<X c #CACACA",
"1X c #CBCBCB",
"2X c gray80",
"3X c #CDCDCD",
"4X c #CECECE",
"5X c gray81",
"6X c #D0D0D0",
"7X c gray82",
"8X c #D2D2D2",
"9X c LightGray",
"0X c gray83",
"qX c #D5D5D5",
"wX c gray84",
"eX c #D7D7D7",
"rX c #D8D8D8",
"tX c gray85",
"yX c #DADADA",
"uX c gray86",
"iX c gainsboro",
"pX c #DDDDDD",
"aX c gray87",
"sX c #DFDFDF",
"dX c gray88",
"fX c #E1E1E1",
"gX c #E2E2E2",
"hX c gray89",
"jX c #E4E4E4",
"kX c gray90",
"lX c #E6E6E6",
"zX c #E7E7E7",
"xX c gray91",
"cX c #E9E9E9",
"vX c #EAEAEA",
"bX c gray92",
"nX c #ECECEC",
"mX c gray93",
"MX c #EEEEEE",
"NX c #EFEFEF",
"BX c gray94",
"VX c #F1F1F1",
"CX c gray95",
"ZX c #F3F3F3",
"AX c #F4F4F4",
"SX c gray96",
"DX c #F6F6F6",
"FX c gray97",
"GX c #F8F8F8",
"HX c #F9F9F9",
"JX c gray98",
"KX c #FBFBFB",
"LX c gray99",
"PX c #FDFDFD",
"IX c #FEFEFE",
"UX c white",
/* pixels */
"UXUXUXUXUXUXUXUXUXUXUXUXUXUXUXUXUXUXUXLXDXBXmXmXnXnXnXnXnXnXnXnXnXnXnXnXnXnXnXnXHXLXUXUXUXIXUXUXLXUX2Xy e t t 9 r r r r e e r t r r r r r r r r u y p q r q q e ",
"UXUXUXUXUXUXUXUXUXUXUXUXUXUXUXUXPXIXUXUXIXLXKXLXIXIXIXIXIXIXIXIXIXIXIXIXIXIXIXIXKXPXUXUXUXIXIXUXKXLXOXO X . O                 .                     X #     X   ",
"UXUXUXUXUXUXUXUXUXUXUXUXUXUXUXUXIXUXUXUXUXUXUXUXUXUXUXUXUXUXUXUXUXUXUXUXUXUXUXUXIXUXUXUXUXIXIXUXUXPXOX            . . .     . .                 % .   X . O .   ",
"UXUXUXUXUXUXUXUXUXUXUXUXUXUXUXUXUXUXIXIXIXIXPXKXIXIXIXIXIXIXIXIXIXIXIXIXIXIXIXIXUXUXUXUXIXIXUXUXKXPX%X  $ .   .                                   o .   #     # ",
"UXUXUXUXUXUXUXUXUXUXUXUXUXUXUXUXUXUXPXPXUXUXUXPXUXUXUXUXUXUXUXUXUXUXUXUXUXUXUXUXUXUXUXUXUXUXUXUXKXIX%X  #     O                                       + X   .   ",
"UXUXUXUXUXUXUXUXUXUXUXUXUXUXUXUXUXUXIXIXUXUXUXUXUXUXUXUXUXUXUXUXUXUXUXUXUXUXUXUXUXUXUXUXUXUXUXUXIXUX$X  @ .   0 @X#X$X$X$X#X#X$X#X#X#X#X#X#X#X#X#X*X&X Xs O + . ",
"UXUXUXUXUXUXUXUXUXUXUXUXUXUXUXUXUXUXUXUXUXIXIXPXUXUXUXUXUXUXUXUXUXUXUXUXUXUXUXUXUXIXIXUXUXUXUXUXKXUXOX  O o O x UXUXUXUXUXUXUXUXUXUXUXUXUXUXUXUXUXUXUXHXf . o   ",
"UXUXUXUXUXUXUXUXUXUXUXUXUXUXUXUXIXUXUXUXUXUXUXUXUXUXUXUXUXUXUXUXUXUXUXUXUXUXUXUXUXIXIXUXUXUXIXIXLXUX#X  O .   x KXLXIXIXIXPXPXPXPXPXPXPXPXPXPXPXJXIXPXAXs   + X ",
"UXUXUXUXUXUXUXUXUXUXUXUXUXUXUXUXIXUXUXUXIXUXUXUXPXUXJXLXUXUXUXUXUXUXUXUXUXUXUXUXUXUXUXUXUXUXUXUXPXPX#X  o + X x HXIXIXPXUXUXIXUXUXUXUXUXUXUXUXUXUXUXUXAXt   .   ",
"UXUXUXUXUXUXUXUXUXUXUXUXUXUXUXUXIXUXUXUXIXUXUXIXUXUXUXUXIXUXUXJXUXUXUXUXUXUXUXUXIXIXIXIXIXIXIXIXHXUX&X  +     v HXIXIXPXUXUXIXUXUXUXUXUXUXUXUXUXUXUXUXAXt   .   ",
"UXUXUXUXUXUXUXUXUXUXUXUXUXUXUXUXIXUXUXUXIXUXUXIXUXF.G J U U P Y U U U U U U U U U U U U U U U U U R Z   . o . b HXIXIXPXUXUXIXUXUXUXUXUXUXUXUXUXUXUXUXAXt   .   ",
"UXUXUXUXUXUXUXUXUXUXUXUXUXUXUXUXUXUXUXUXUXUXUXPXJX4.      .                                     o     O   +   v HXIXIXPXUXUXIXUXUXUXUXUXUXUXUXUXUXUXUXAXt   .   ",
"UXUXUXUXUXUXUXUXUXUXUXUXUXUXUXUXUXUXUXUXUXUXIXLXIX3.  O + # o X o o o o o o o o O O O O O O O O   # $   + O   l HXIXIXPXUXUXIXUXUXUXUXUXUXUXUXUXUXUXUXAXt   .   ",
"UXUXUXUXUXUXUXUXUXUXUXUXUXUXUXUXUXUXUXUXUXUXIXKXUX2.  X       % X X X X X X X X . . . . . . . . $ o X   @     v HXIXIXPXUXUXIXUXUXUXUXUXUXUXUXUXUXUXUXAXt   .   ",
"UXUXUXUXUXUXUXUXUXUXUXUXUXUXUXUXUXUXUXUXUXUXIXJXIX3..   $ o                                     X   .   o O   v HXIXIXPXUXUXIXUXUXUXUXUXUXUXUXUXUXUXUXAXt   .   ",
"UXUXUXUXUXUXUXUXUXUXUXUXUXUXUXUXUXUXUXUXUXUXIXJXUX>.o X X . ! Q.Y.Y.Y.Y.Y.Y.Y.Y.T.T.T.T.T.T.T.T.I.(.d.o .   X j HXIXIXPXUXUXIXUXUXUXUXUXUXUXUXUXUXUXUXAXt   .   ",
"PXUXUXUXUXUXUXUXUXUXUXUXUXUXUXUXUXUXUXUXUXUXUXIXIX5.  + o o y.IXLXUXUXUXUXUXUXUXUXUXUXUXUXUXUXUXUXUX*XX O .   c HXIXIXPXUXUXIXUXUXUXUXUXUXUXUXUXUXUXUXAXt   .   ",
"IXUXUXUXUXUXIXUXUXUXUXUXUXUXUXUXUXIXUXUXUXUXPXLXIX4.  & +   0.UXJXLXPXPXLXPXPXLXPXPXPXPXPXPXPXPXJXPX#X  .     x HXIXIXPXUXUXIXUXUXUXUXUXUXUXUXUXUXUXUXAXt   .   ",
"UXIXUXIXUXPXPXIXIXIXIXIXIXIXIXIXIXIXIXIXIXIXPXLXUX<.  o $   9.UXKXIXUXIXIXIXIXIXIXIXIXIXIXIXIXIXJXPX@X  .     x HXIXIXPXUXUXIXUXUXUXUXUXUXUXUXUXUXUXUXAXt   .   ",
"UXKXUXIXUXIXIXUXUXUXUXUXUXUXUXUXUXUXUXUXUXUXIXPXLXe.% o +   9.UXPXUXUXUXUXUXUXUXUXUXUXUXUXUXUXUXPXUX$X  o .   x HXIXIXPXUXUXIXUXUXUXUXUXUXUXUXUXUXUXUXAXt   .   ",
"2.o.%.@.%.+.@.$.#.#.#.#.#.#.#.#.#.#.@.#.#.#.#.@.%.l     .   9.UXLXIXUXIXIXUXUXIXUXUXUXUXUXUXUXUXPXUX#X  X     l HXIXIXPXUXUXIXUXUXUXUXUXUXUXUXUXUXUXUXAXt   .   ",
"4   .                                           .     # $ o 7.JXLXIXUXIXIXUXUXIXUXUXUXUXUXUXUXUXLXIX@X  X .   z HXIXIXPXUXUXIXUXUXUXUXUXUXUXUXUXUXUXUXAXt   .   ",
"y   @   + . o o o o o o o o o o O o X o o O o o . .     . X 0.UXPXUXUXUXUXUXUXUXUXUXUXUXUXUXUXUXPXIX@X  o o . x HXIXIXPXUXUXIXUXUXUXUXUXUXUXUXUXUXUXUXAXt   .   ",
"y   X   o   X o o o o o o o o o o X X X X o o X o o X   @ . 4.IXPXUXUXUXUXUXUXUXUXUXUXUXUXUXUXUXPXIX+X  o X   z HXIXIXPXUXUXIXUXUXUXUXUXUXUXUXUXUXUXUXAXt   .   ",
"q     o +   O                                     o   o . o q.PXLXUXUXUXUXUXUXUXUXKXIXUXPXPXUXJXPXUX%X  +   X x HXIXIXPXUXUXIXUXUXUXUXUXUXUXUXUXUXUXUXAXt   .   ",
"e o       &.h.h.h.h.h.h.h.h.h.h.g.h.h.g.f.g.h.f.M.Y X . + . 7.UXLXUXUXUXUXUXUXUXIXUXPXIXUXDXrXiXeXsX!.  # .   x HXIXIXPXUXUXIXUXUXUXUXUXUXUXUXUXUXUXUXAXt   .   ",
"8   . O X 1XUXUXUXUXUXUXUXUXUXUXIXUXUXUXIXUXUXPXPX5.. . & . 6.UXLXUXUXUXUXUXUXUXKXUXLXJXUXjXI.W.W._.k.  o X . b HXIXIXPXUXUXIXUXUXUXUXUXUXUXUXUXUXUXUXAXt   .   ",
"y   + .   -XUXAXLXLXLXLXLXLXLXLXKXPXPXLXLXPXLXJXUX4.. X #   8.IXLXUXUXUXUXUXUXUXUXUXUXUXUXNXQ.~.Q.).j.o . o   x HXIXIXPXUXUXIXUXUXUXUXUXUXUXUXUXUXUXUXAXt   .   ",
"r     o O %XUXLXUXUXUXUXUXUXUXUXUXUXUXUXUXUXUXLXKX2.+ o o   0.UXLXUXUXUXUXUXUXUXLXJXLXJXHXBX/.(._.{.x.@   o   l HXIXIXPXUXUXIXUXUXUXUXUXUXUXUXUXUXUXUXAXt   .   ",
"e @   o   #XIXPXUXUXUXUXUXUXUXUXUXUXUXUXUXUXUXKXUX3.. X @   9.UXLXUXUXUXUXUXUXUXUXUXUXPXUXMXQ.^.Q._.j.X   O . x HXIXIXPXUXUXIXUXUXUXUXUXUXUXUXUXUXUXUXAXt   .   ",
"w +   o   %XUXPXUXUXUXUXUXUXUXUXUXUXUXUXUXUXIXJXIX1.    $ X 9.IXLXUXUXUXUXUXUXUXCXyXuXaXfX9X~.(._.{.v.O o X   z HXIXIXPXUXUXIXUXUXUXUXUXUXUXUXUXUXUXUXAXt   .   ",
"y   o   . #XUXLXUXUXUXUXUXUXUXUXUXUXUXUXUXUXIXJXKX6.o   + . 0.UXLXUXUXUXUXUXUXUXlXE.U.~.U.W.~./.^._.k.. O     v HXIXIXPXUXUXIXUXUXUXUXUXUXUXUXUXUXUXUXAXt   .   ",
"w     X   *XUXLXUXUXUXUXUXUXUXUXUXUXPXUXUXIXPXKXIX4.o . X   q.IXHXUXUXPXUXPXUXIXxXQ.`.)._./.).~.~.}.j.X X X   c HXIXIXPXUXUXIXUXUXUXUXUXUXUXUXUXUXUXUXAXt   .   ",
"w     X   *XUXLXUXUXUXUXUXUXUXUXUXUXUXIXIXPXIXHXLX<.  o # . 9.PXLXUXIXIXUXPXIXIXbXQ.~.~.).^.).).~.}.j.X X X   c HXIXIXPXUXUXIXUXUXUXUXUXUXUXUXUXUXUXUXAXt   .   ",
"w     X   *XUXLXUXUXUXUXUXUXUXUXPXUXUXUXPXLXUXKXUX5.o o #   7.UXIXPXIXUXPXIXUXUXxX^.~.^._.^./.).~.}.j.X X X   c HXIXIXPXUXUXIXUXUXUXUXUXUXUXUXUXUXUXUXAXt   .   ",
"w     X   *XUXLXUXUXUXUXUXUXUXUXLXUXUXUXNXdXkXfXbX:.o X +   7.UXKXKXIXDXdXgXjXlX7XQ./.)._./.~.^.~.}.j.X X X   c HXIXIXPXUXUXIXUXUXUXUXUXUXUXUXUXUXUXUXAXt   .   ",
"w     X   *XUXLXUXUXUXUXUXUXUXUXUXUXPXGX6XE.T.P.oX_   X @ . 9.UXIXUXIXaX~.E.T.I.'.Y.(.(./.(././.~.}.j.X X X   c HXIXIXPXUXUXIXUXUXUXUXUXUXUXUXUXUXUXUXAXt   .   ",
"w     X   *XUXLXUXUXUXUXUXUXUXUXKXKXPXUXeX!.).).(.) o X @ X 8.IXGXPXUXfXE.(.`._.Q.!.'./.~.(./.(.~.}.j.X X X   c HXIXIXPXUXUXIXUXUXUXUXUXUXUXUXUXUXUXUXAXt   .   ",
"w     X   *XUXLXUXUXUXUXUXUXUXUXIXUXIXUX0XT.^.!.XX| + . +   7.UXIXIXUXjXR./.).^.(._.'./.^.).^./.~.}.j.X X X   c HXIXIXPXUXUXIXUXUXUXUXUXUXUXUXUXUXUXUXAXt   .   ",
"w     X   *XUXLXUXUXUXUXUXUXUXUXIXUXPXIX7XE._.!. X'     $ X 6.UXUXGXUXkXE.).(.^././.!.~.(._.~.(.~.}.j.X X X   c HXIXIXPXUXUXIXUXUXUXUXUXUXUXUXUXUXUXUXAXt   .   ",
"y   X   . &XIXIXUXUXIXLXUXUXUXxXzXzXxXkX,X(.^.^.{.' o X   $ ,.DXfXnXcX4X'.W./.'././././././././.~.'.l.+   O   x GXIXUXIXIXUXUXIXUXUXUXUXUXUXUXUXIXUXIXAXr O X o ",
"y   X   . &XIXIXUXUXUXIXIXJXGX9XT.Q.!.(.!.R.~.Q.OX`   X o . Y }.Q.~.!.E.W.^.^.W././././././././.^.[.k.+   #   b JXUXUXUXUXUXUXUXUXUXUXUXUXUXUXUXUXHXUXKXe   O   ",
"y   X   . &XIXIXLXLXUXUXUXUXLX4XT.(.!.Q./._.]./..X)   + $ O I _.~.^.^.(.`.].`.(./././././././././.}.j.o   O   x JXIXUXUXIXUXUXUXUXUXUXUXUXUXUXUXIXUXUXZXp     O ",
"t   X   . &XIXPXUXUXIXKXJXUXUX7XY.]._.~./.^.^.Q. X' . O .   U .X^.(._.).~.W.!./././././././././.~.}.j.X . o   c GXKXLXKXKXLXPXKXLXLXLXLXLXLXLXLXUXUXHXnXs .     ",
"t   X . . &XIXPXKXPXIXLXUXUXPX4XU._.(.(._.^./.(..X'   o X   L `./.~.~./.(.(.(._././././././././.Q.{.k.X o O O c UXUXUXUXUXUXUXUXUXUXUXUXUXUXUXUXUXKXUXPXa   O   ",
"r   X . X &XIXPXUXUXAXxXNXmXxX,X^.).Q.^.(.~.~.Q.}.`   O + O R }./.^.^.(.(./.~.~././././././././.~.{.l.X . X X r /./././.(.(.(./././././././././.).(.'.^.8   .   ",
"r   X . X &XIXPXUXHX<XY.!.!.).!././.!./.(.(.`.!.|.] X X     I {.Q.^.).)././.(.(./././././././././.[.l.X       $                                 . .   +         ",
"e   X . X &XIXPXLXLX1XR.`.!.!.^.!./.(.).!.^.`.E. X'   o o o T [.(.(./.~.^.).(.~./././././././././.`.k.X . o     .                               X + @   #       ",
"e     &   $XPXIXLXUX<XR.`.).~.~././././.(./.^.~.|.`   o o X Y [.!.~.^.^.^.^.^./././././././././.Q.[.h.  X o   X . . . X . . . . . . . . . . . . X O o   @     o ",
"t o       %XUXUXUXUX>XY.~.~.(.`././././.(./.^.~.XX]   .     I ].^./.(.(.(.(.(.)././././././././.^..Xx.O o X                                     X .   o .       ",
"9   .   O XXKXmXVXNX>X`._.^.^.~././././.(./.^.~. X' . o . . Y }.!.~.^.^.^.^.^./.(.(.(.(.(.(.(.(.Q.[.h.    . . = 5 5 5 6 6 5 5 5 5 5 5 5 5 5 5 5 3 3 5 0   X     ",
"u   X .   d.}.E.~.(.R.W.(.(.`.(././././.(./.^.~.{.` . + o . Y {.~.^././././././.^.^.^.^.^.^.^.^./.|.l.X . X O < #.#.#.$.$.$.$.#.$.$.$.$.$.$.$.$.*.*.%. ., @ .   ",
"y     o X r.].^._.(.^.).(.^.(.~././././.(./.^.~.}.` . o X   I '.^./.(.(.(./.(.(././././././././.E.].k.+ o . X , +.@.@.@.#.#.@.@.@.@.@.@.@.@.@.@.O.#.%....       ",
"r   o     w.{.^.).~.^.(.^.~.(./././././.(./.^.~. X'   X X X R |.!.~.^.^.^.~.^.^././././././././.~.[.j.X     . 1 #.$.$.%.%.%.%.%.$.$.$.$.$.$.$.$.%.#.%.o.X   o X ",
"q . o     t.{.Q.^.!./.)./././.^././././.(./.^.~. X`   o + O T [.'.].[.[.[.].[.[.'.'.'.'.'.'.'.'.'. Xl.+ X     1 +.@.@.#.#.#.#.#.#.#.#.#.#.#.#.#.$.+.@. ..   o   ",
"e       X t.{./.).^.)./.^./.^./././././.(./.^.~..X'   + O   F T.c.v.b.b.b.b.b.b.n.n.n.n.n.n.n.n.v.G.q.  O . . , @.@.#.#.$.$.$.$.#.#.#.#.#.#.#.#.$.@.%...X   o   ",
"w     . . w.|.~././././././././././././.(.(./.^..X'   . X X $ O @ @ @ @ @ # # # # # # # # # # # @ @ o   o     , +.+.@.#.$.#.#.@.#.#.#.#.#.#.#.#.#.@.*.{ o       ",
"e   . . . w.|.~././././././././././././.(.(.^.~.]._ X o X   X     . . . . . . . . . . . . . . .   X     X . . 2 +.+.@.#.$.#.#.@.#.#.#.#.#.#.#.#.#.@.*.{ o       ",
"t   . . . q.|.^././././././././././././.(./.^.~.OX| X   .   O o                                   . .   .   . < +.@.#.#.#.#.#.@.#.#.#.#.#.#.#.#.#.@.*.{ o       ",
"y . X . . q. X^././././././././././././.(./.^.~.'.)   . @           . . . . . . . . . . . . . . . . o       . > @.@.#.#.#.#.#.#.#.#.#.#.#.#.#.#.#.@.*.{ o       ",
"y . X . . q. X^./././././././././.^././././.^.~.OX .o . X   O < - - - - - - - - - - - - - - - - = * : - - ; > 9 @.#.#.#.#.#.#.#.#.#.#.#.#.#.#.#.#.@.*.{ o       ",
"t   . . . q.|.^./././././././././.^.^./././.^.~.{.]     . @ x O.X.X.X.X.X.X.X.o.o.o.o.o.o.o.o.o.o. .O.o.X.o.o.%.#.#.#.#.#.#.#.#.#.#.#.#.#.#.#.#.#.@.*.{ o       ",
"e   . . . w.|.~././././././././.^.^.^./././.^.~.}.} o O O . k *.$.$.$.$.$.$.$.$.$.$.$.$.$.$.$.$.*.@.&.%.#.$.@.#.#.#.#.#.#.#.#.#.#.#.#.#.#.#.#.#.#.@.*.{ o       ",
"w     . . w.|.~././././././././.^.^.^./././.^.~..X]     o   k ;.@.@.@.@.#.#.#.#.#.#.#.#.#.#.#.#.$.X.#.$.#.&.#.#.$.#.#.#.#.#.#.#.#.#.#.#.#.#.#.#.#.@.*.{ o       ",
"t .   O   u. X).`.`.`.`.`.`.`.`.`.`.`.`.`.`.`.`.OX_ . . O   j *.@.@.#.#.#.#.#.#.#.#.#.#.#.#.#.#.#.#.#.#.#.#.#.#.#.#.#.#.#.#.#.#.#.#.#.#.#.#.#.#.#.@.*.{ o       ",
"q o . X # 9.E.J.K.K.K.K.K.K.K.K.J.J.J.J.J.J.J.J.!.) $ X + o x >.@.@.#.#.#.#.#.#.#.#.#.#.#.#.#.#.#.#.#.#.#.#.#.#.#.#.#.#.#.#.#.#.#.#.#.#.#.#.#.#.#.@.*.{ o       ",
"r         5 8 - < < < < < < < < < < < < < < < < 8 $   X o   k =.@.@.#.#.#.#.#.#.#.#.#.#.#.#.#.#.#.#.#.#.#.#.#.#.#.#.#.#.#.#.#.#.#.#.#.#.#.#.#.#.#.@.*.{ o       ",
"s   .   X     X                                   + # X     z -.@.@.#.#.#.#.#.#.#.#.#.#.#.#.#.#.#.#.#.#.#.#.#.#.#.#.#.#.#.#.#.#.#.#.#.#.#.#.#.#.#.@.*.{ o       ",
"6   O   @ + . O X X X X X X X X X X X X X X X X X o     O o v %.@.@.#.#.#.#.#.#.#.#.#.#.#.#.#.#.#.#.#.#.#.#.#.#.#.#.#.#.#.#.#.#.#.#.#.#.#.#.#.#.#.@.*.{ o       ",
"p + +         .                                       O $   k =.@.@.#.#.#.#.#.#.#.#.#.#.#.#.#.#.#.#.#.#.#.#.#.#.#.#.#.#.#.#.#.#.#.#.#.#.#.#.#.#.#.@.*.{ o       ",
"0     O   > # @ @ @ @ @ @ @ @ @ + + + + + + + + & O $ O O   N :.@.@.#.#.#.#.#.#.#.#.#.#.#.#.#.#.#.#.#.#.#.#.#.#.#.#.#.#.#.#.#.#.#.#.#.#.#.#.#.#.#.@.*.{ o       ",
"e O     @ U { [ [ [ [ [ [ [ [ [ ] ] ] ] ] ] ] ] [ _ } ] o.` #.o.@.@.#.#.#.#.#.#.#.#.#.#.#.#.#.#.#.#.#.#.#.#.#.#.#.#.#.#.#.#.#.#.#.#.#.#.#.#.#.#.#.@.*.{ o       ",
"e     . X E ;.$.%.%.%.%.%.%.%.%.%.%.%.%.%.%.%.%.%.%.%.%.%.%.%.%.#.#.#.#.#.#.#.#.#.#.#.#.#.#.#.#.#.#.#.#.#.#.#.#.#.#.#.#.#.#.#.#.#.#.#.#.#.#.#.#.#.@.*.{ o       ",
"e     . . E -.$.@.@.@.@.@.@.@.@.@.@.@.@.@.@.@.@.@.@.@.@.@.@.@.@.#.#.#.#.#.#.#.#.#.#.#.#.#.#.#.#.#.#.#.#.#.#.#.#.#.#.#.#.#.#.#.#.#.#.#.#.#.#.#.#.#.@.*.{ o       ",
"r     . . R =.#.@.@.@.@.@.@.@.@.@.@.@.@.@.@.@.@.@.@.@.@.@.@.@.@.#.#.#.#.#.#.#.#.#.#.#.#.#.#.#.#.#.#.#.#.#.#.#.#.#.#.#.#.#.#.#.#.#.#.#.#.#.#.#.#.#.@.*.{ o       ",
"t     . . R =.@.$.$.$.$.$.$.$.$.$.$.$.$.$.$.$.$.$.$.$.$.$.$.$.$.#.#.#.#.#.#.#.#.#.#.#.#.#.#.#.#.#.#.#.#.#.#.#.#.#.#.#.#.#.#.#.#.#.#.#.#.#.#.#.#.#.@.*.{ o       ",
"t     . . R *.@.#.#.#.#.#.#.#.#.#.#.#.#.#.#.#.#.#.#.#.#.#.#.#.#.#.#.#.#.#.#.#.#.#.#.#.#.#.#.#.#.#.#.#.#.#.#.#.#.#.#.#.#.#.#.#.#.#.#.#.#.#.#.#.#.#.@.*.{ o       ",
"r     . . R =.@.#.#.#.#.#.#.#.#.#.#.#.#.#.#.#.#.#.#.#.#.#.#.#.#.#.#.#.#.#.#.#.#.#.#.#.#.#.#.#.#.#.#.#.#.#.#.#.#.#.#.#.#.#.#.#.#.#.#.#.#.#.#.#.#.#.@.*.{ o       ",
"r     . . R =.@.$.$.$.$.$.$.$.$.$.$.$.$.$.$.$.$.$.$.$.$.$.$.$.$.#.#.#.#.#.#.#.#.#.#.#.#.#.#.#.#.#.#.#.#.#.#.#.#.#.#.#.#.#.#.#.#.#.#.#.#.#.#.#.#.#.@.*.{ o       ",
"e     . . R =.@.#.#.#.#.#.#.#.#.#.#.#.#.#.#.#.#.#.#.#.#.#.#.#.#.#.#.#.#.#.#.#.#.#.#.#.#.#.#.#.#.#.#.#.#.#.#.#.#.#.#.#.#.#.#.#.#.#.#.#.#.#.#.#.#.#.@.*.{ o       "
};
