/* XPM */
static char *_384a9479fcf40a0dedcef9c9ccdfee54xmgVBg0FKx7LFO7[] = {
/* columns rows colors chars-per-pixel */
"80 80 211 2 ",
"   c #72CE49",
".  c black",
"X  c #010101",
"o  c #020202",
"O  c gray1",
"+  c #040404",
"@  c gray2",
"#  c #060606",
"$  c #070707",
"%  c gray3",
"&  c #090909",
"*  c gray4",
"=  c #0B0B0B",
"-  c #0C0C0C",
";  c gray5",
":  c #0E0E0E",
">  c gray6",
",  c #101010",
"<  c #111111",
"1  c gray7",
"2  c #131313",
"3  c gray8",
"4  c #161616",
"5  c gray9",
"6  c #181818",
"7  c #191919",
"8  c gray10",
"9  c #1B1B1B",
"0  c gray11",
"q  c #1D1D1D",
"w  c #1E1E1E",
"e  c gray12",
"r  c #202020",
"t  c gray13",
"y  c #222222",
"u  c #232323",
"i  c gray14",
"p  c gray15",
"a  c #272727",
"s  c #282828",
"d  c gray16",
"f  c #2C2C2C",
"g  c #2D2D2D",
"h  c gray18",
"j  c #2F2F2F",
"k  c gray19",
"l  c #313131",
"z  c #323232",
"x  c gray20",
"c  c #343434",
"v  c gray22",
"b  c gray24",
"n  c #3F3F3F",
"m  c gray25",
"M  c #434343",
"N  c gray27",
"B  c #464646",
"V  c gray28",
"C  c #484848",
"Z  c #494949",
"A  c gray29",
"S  c #4B4B4B",
"D  c gray30",
"F  c #535353",
"G  c gray33",
"H  c #555555",
"J  c #565656",
"K  c gray34",
"L  c #585858",
"P  c gray35",
"I  c #5A5A5A",
"U  c #5B5B5B",
"Y  c gray36",
"T  c #5D5D5D",
"R  c gray37",
"E  c #5F5F5F",
"W  c #606060",
"Q  c gray38",
"!  c #626262",
"~  c gray39",
"^  c #646464",
"/  c #656565",
"(  c gray40",
")  c #676767",
"_  c #686868",
"`  c DimGray",
"'  c #6A6A6A",
"]  c gray42",
"[  c #6C6C6C",
"{  c #6D6D6D",
"}  c gray43",
"|  c #6F6F6F",
" . c gray44",
".. c #717171",
"X. c #727272",
"o. c gray45",
"O. c #747474",
"+. c gray46",
"@. c #767676",
"#. c #777777",
"$. c gray47",
"%. c #797979",
"&. c gray48",
"*. c #7B7B7B",
"=. c #7C7C7C",
"-. c gray49",
";. c gray50",
":. c #808080",
">. c #838383",
",. c #848484",
"<. c gray52",
"1. c #868686",
"2. c gray53",
"3. c #888888",
"4. c #898989",
"5. c gray54",
"6. c #8B8B8B",
"7. c gray55",
"8. c #8D8D8D",
"9. c #8E8E8E",
"0. c gray56",
"q. c #909090",
"w. c #939393",
"e. c gray61",
"r. c gray62",
"t. c #9F9F9F",
"y. c gray63",
"u. c #A2A2A2",
"i. c gray64",
"p. c #A4A4A4",
"a. c #A5A5A5",
"s. c gray65",
"d. c #A7A7A7",
"f. c gray66",
"g. c #A9A9A9",
"h. c #AAAAAA",
"j. c gray67",
"k. c #ACACAC",
"l. c gray68",
"z. c #AEAEAE",
"x. c #AFAFAF",
"c. c gray69",
"v. c #B1B1B1",
"b. c #B2B2B2",
"n. c gray70",
"m. c #B4B4B4",
"M. c gray71",
"N. c #B6B6B6",
"B. c #B7B7B7",
"V. c gray72",
"C. c #B9B9B9",
"Z. c gray73",
"A. c #BBBBBB",
"S. c #BCBCBC",
"D. c gray",
"F. c gray75",
"G. c #C0C0C0",
"H. c #C1C1C1",
"J. c gray76",
"K. c #C3C3C3",
"L. c #C5C5C5",
"P. c gray78",
"I. c #C8C8C8",
"U. c gray79",
"Y. c #CACACA",
"T. c #CBCBCB",
"R. c gray80",
"E. c #CDCDCD",
"W. c #CECECE",
"Q. c gray81",
"!. c gray82",
"~. c #D2D2D2",
"^. c LightGray",
"/. c gray83",
"(. c #D5D5D5",
"). c gray84",
"_. c #D7D7D7",
"`. c #DADADA",
"'. c gray86",
"]. c #DDDDDD",
"[. c gray87",
"{. c #DFDFDF",
"}. c gray88",
"|. c #E1E1E1",
" X c #E2E2E2",
".X c gray89",
"XX c #E4E4E4",
"oX c gray90",
"OX c #E7E7E7",
"+X c gray91",
"@X c #E9E9E9",
"#X c gray92",
"$X c #ECECEC",
"%X c gray93",
"&X c #EEEEEE",
"*X c #EFEFEF",
"=X c gray94",
"-X c #F1F1F1",
";X c #F3F3F3",
":X c #F4F4F4",
">X c gray96",
",X c #F6F6F6",
"<X c gray97",
"1X c #F8F8F8",
"2X c #F9F9F9",
"3X c gray98",
"4X c #FBFBFB",
"5X c gray99",
"6X c #FDFDFD",
"7X c #FEFEFE",
"8X c white",
/* pixels */
"                                                                                                      i u 0 u 9 u 0 0 u 0 0 u 0 0 u u 0 u 0 0 u u u i 0 u 0 0 0 ",
"                                                                                                      + X X + X X X X X X X X X X X X X X X X X X X + % X X + X ",
"                                                                                                      X X X X X X X X X X X X X X X X X X X X X - X X + X + + X ",
"                                                                                                      X % X X X X X X X X X X X X X X X X X X X X + X X % X X % ",
"                                                                                                      X % X X + X X X X X X X X X X X X X X X X X X X + X X + X ",
"                                                                                                      X + X X 0 D.D.K.K.D.D.D.K.D.K.D.D.D.D.D.K.D.K.K.N.s + + X ",
"                                                                                                      X + X + k 6X6X6X6X6X6X6X6X6X6X6X6X6X6X6X6X6X6X6X4Xs X + X ",
"                                                                                                      X + X X k 6X6X6X6X6X6X6X6X6X6X6X6X6X6X6X6X4X6X6X>Xs X + X ",
"                                                                                                      X + + X k 4X6X6X6X6X6X6X6X6X6X6X6X6X6X6X6X6X6X6X>X0 X X X ",
"                                                                                                      X + X X k 4X6X6X6X6X6X6X6X6X6X6X6X6X6X6X6X6X6X6X>Xu X X X ",
"                                                    n M B C B C C B B C B C C C C B C C C C C C C C n X + + X c 4X6X6X6X6X6X6X6X6X6X6X6X6X6X6X6X6X6X6X>Xu X X X ",
"                                                   .X X X + X X X X X X X X X X X X X X X X X X % X X + X % X k 4X4X6X6X6X6X6X6X6X6X6X6X6X6X6X6X6X6X6X>X0 X X X ",
"                                                   .X + + % + + + + X + + + X + + + + + + % + + X % % X + + X g 4X6X6X6X6X6X6X6X6X6X6X6X6X6X6X6X6X6X6X>Xu X X X ",
"                                                   .X X X X X % X X X X X X X X X X X X X X X X % + X X % X X c 4X6X6X6X6X6X6X6X6X6X6X6X6X6X6X6X6X6X6X>X0 X X X ",
"                                                  @.X X % + X X X X X X X X X X X X X X X X X X X X + X X + X k 4X6X6X6X6X6X6X6X6X6X6X6X6X6X6X6X6X6X6X>Xu X X X ",
"                                                  { X X X X D g.i.p.i.p.p.p.i.p.p.p.p.p.p.p.p.p.i.l.>.X X X X g 4X6X6X6X6X6X6X6X6X6X6X6X6X6X6X6X6X6X6X>X0 X X X ",
"                                                  @.X + X + >.6X6X6X6X6X6X6X6X6X6X6X6X6X6X6X6X6X6X6XP.X + X X k 4X6X6X6X6X6X6X6X6X6X6X6X6X6X6X6X6X6X6X>Xu X X X ",
"                                                  @.X % + X $.6X4X6X6X6X6X6X6X6X6X6X6X6X6X6X6X6X4X6XD.X X X X k 4X6X6X6X6X6X6X6X6X6X6X6X6X6X6X6X6X6X6X>X0 X X X ",
"                                                   .X + % X $.6X6X6X6X6X6X6X6X6X6X6X6X6X6X6X6X6X4X6XD.X X X X k 4X6X6X6X6X6X6X6X6X6X6X6X6X6X6X6X6X6X6X>Xu X X X ",
"                                                  -.% + + + $.6X6X6X6X6X6X6X6X6X6X6X6X6X6X6X6X6X6X6XD.X X X X k 4X6X6X6X6X6X6X6X6X6X6X6X6X6X6X6X6X6X6X>X0 X X X ",
"  R ( Q ( Q Q ( ( Q ( Q ( Q Q ( ( Q Q ( ( Q ( Q ( g X X X X $.6X6X6X6X6X6X6X6X6X6X6X6X6X6X6X6X6X6X6XD.X X X X g 4X6X6X6X6X6X6X6X6X6X6X6X6X6X6X6X6X6X6X>Xu X X X ",
"4 X + X X X X X X X X X X X X X X X X X X X X X X X X + % X @.4X4X6X6X6X6X6X6X6X6X6X6X6X6X6X6X6X6X6XD.X X X X g 4X6X6X6X6X6X6X6X6X6X6X6X6X6X6X6X6X6X6X>X0 X X X ",
"u X % X + X X X + X + X X + + + + + + + + + + + X X X X X + $.6X6X6X6X6X6X6X6X6X6X6X6X6X6X6X6X6X6X6XK.X + + X k 4X6X6X6X6X6X6X6X6X6X6X6X6X6X6X6X6X6X6X>Xu X X X ",
"u X + X + X X + + X + + + X X X X X X X X + X X + + X X + X  .6X6X6X6X6X6X6X6X6X6X6X6X6X6X6X6X6X6X6XD.X X X X g 4X6X6X6X6X6X6X6X6X6X6X6X6X6X6X6X6X6X6X>Xu X X X ",
"0 X X + + X + X X X X X X X X X X X X X X X X X X + X X + + $.6X6X6X6X6X6X6X6X6X6X4X6X6X6X6X6X4X6X6XD.X + X X k 4X6X6X6X6X6X6X6X6X6X6X6X6X6X6X6X6X6X6X>X0 X X X ",
"0 + X X X ( 1.3.1.3.3.1.3.3.3.3.1.1.1.1.1.1.1.1.w.C + X + X @.6X6X6X6X6X6X6X6X6X6X6X4X6X6X>X`.`._.}.g.X % X X k 4X6X6X6X6X6X6X6X6X6X6X6X6X6X6X6X6X6X6X>Xu X X X ",
"0 X X + + T.6X6X6X6X6X6X6X6X6X6X6X6X6X6X6X6X6X6X6X .X X % X @.6X6X6X6X6X6X6X6X6X4X6X4X4X6XoXi.g.p.b.3.X + + X c >X6X6X6X6X6X6X6X6X6X6X6X6X6X6X6X6X6X6X>Xu X X X ",
"i X + X X P.6X>X6X4X6X6X4X6X6X6X6X6X6X6X6X6X6X4X6X .X X + X @.6X6X6X6X6X6X6X6X6X6X6X6X6X6X=Xg.g.g.l.3.+ X X X k 4X6X6X6X6X6X6X6X6X6X6X6X6X6X6X6X6X6X6X>X0 X X X ",
"u X X X + K.6X6X6X6X6X6X6X6X6X6X6X6X6X6X6X6X6X6X4X .+ + + X $.6X6X6X6X6X6X6X6X6X6X4X4X4X4X=Xl.l.b.N.7.+ X X X g 4X6X6X6X6X6X6X6X6X6X6X6X6X6X6X6X6X6X6X>Xu X X X ",
"0 + X + X K.6X6X6X6X6X6X6X6X6X6X6X6X6X6X6X6X6X4X6X .X X + X $.6X6X6X6X6X6X6X6X6X6X6X6X6X6X*Xg.l.g.l.3.X X + X k 4X6X6X6X6X6X6X6X6X6X6X6X6X6X6X6X6X6X6X>X0 X X X ",
"0 + X X X K.6X6X6X6X6X6X6X6X6X6X6X6X6X6X6X6X6X4X6X .X X % + $.6X6X6X6X6X6X6X6X6X=X`.`.[.}._.l.l.l.N.w.+ X + X g 4X6X6X6X6X6X6X6X6X6X6X6X6X6X6X6X6X6X6X>Xu X X X ",
"u X + X X D.6X6X6X6X6X6X6X6X6X6X6X6X6X6X6X6X6X4X6X@.X X + X @.6X6X6X6X6X6X6X6X6XoXp.i.l.p.p.g.l.l.b.3.X + X X k 4X6X6X6X6X6X6X6X6X6X6X6X6X6X6X6X6X6X6X>X0 X X X ",
"0 X X + X K.6X6X6X6X6X6X6X6X6X6X6X6X6X6X6X6X6X4X6X .+ X + X $.6X4X6X6X6X6X6X6X6X+Xg.b.l.b.l.b.g.l.N.3.X X + X k 4X6X6X6X6X6X6X6X6X6X6X6X6X6X6X6X6X6X6X>Xu X X X ",
"0 X X X X P.6X6X6X6X6X6X6X6X6X6X6X6X6X6X6X6X6X4X6X{ X X % X $.6X6X6X6X6X6X6X6X6X+Xg.g.l.l.l.l.l.g.N.3.X X + X k 4X6X6X6X6X6X6X6X6X6X6X6X6X6X6X6X6X6X6X>X0 X X X ",
"u X X X X K.6X6X6X6X6X6X6X6X6X6X6X6X6X6X6X6X6X6X6X@.+ + + X @.6X6X6X6X6X6X6X6X6X+Xl.l.l.b.g.l.b.l.N.3.+ X X X k 4X6X6X6X6X6X6X6X6X6X6X6X6X6X6X6X6X6X6X>Xu X X X ",
"0 X X X X K.6X6X6X6X6X6X6X6X6X6X6X6X6X6X*X}.oX[.*X_ + + + X @.6X6X4X6X>X}.}.oXoX!.g.l.l.b.l.g.l.g.N.3.X + X X k 4X6X6X6X6X6X6X6X6X6X6X6X6X6X6X6X6X6X6X>X0 X X X ",
"0 X X + X K.6X6X6X6X6X6X6X6X6X6X6X6X6X>XW.p.p.i.C.G X X % X $.6X6X6X6X[.l.p.p.p.b.p.l.l.l.l.l.l.l.N.3.X + X X k 4X6X6X6X6X6X6X6X6X6X6X6X6X6X6X6X6X6X6X>Xu X X X ",
"0 X X + X K.6X6X6X6X6X6X6X6X6X6X4X6X6X6X_.g.l.b.l.G + X + X @.6X4X6X6X}.g.l.b.b.g.g.N.l.l.l.l.l.g.N.3.X + X X k 4X6X6X6X6X6X6X6X6X6X6X6X6X6X6X6X6X6X6X>X0 X X X ",
"0 X X X X K.6X6X6X6X6X6X6X6X6X6X6X6X6X6X_.p.l.g.C.I + X + X @.6X6X6X6XoXp.l.l.l.l.b.b.l.l.l.l.l.l.N.3.+ X X X k 4X6X6X6X6X6X6X6X6X6X6X6X6X6X6X6X6X6X6X>Xu X X X ",
"0 X X + X P.6X6X6X6X6X6X6X6X6X6X6X6X6X6X!.g.b.g.C.G X X % X @.6X6X4X6XoXp.b.l.g.l.l.g.g.l.b.l.l.g.N.3.X X + X k 4X6X6X6X6X6X6X6X6X6X6X6X6X6X6X6X6X6X6X>Xu X X X ",
"i X X X X K.6X6X6X6X6X6X6X6X6X+X+X+X+XoXT.l.l.l.N.G X + X % { >X}.*XoXW.b.p.l.b.l.l.l.l.l.l.l.l.g.N.7.% X + X k 4X6X6X6X6X6X6X6X6X6X6X6X6X6X6X6X6X6X6X>Xu + X + ",
"u X X X X K.6X6X6X6X6X6X6X4X>X_.p.g.l.l.g.p.g.g.D.G X X + X B N.g.l.l.p.g.l.l.g.l.l.l.l.l.l.l.l.g.N.3.+ X % X c 4X6X6X6X6X6X6X6X6X6X6X6X6X6X6X6X6X>X6X4X0 X + X ",
"u X X X X K.6X6X6X6X6X6X6X6X6XW.p.l.g.g.l.b.N.l.C.F X + % + B b.g.l.l.l.b.b.b.l.l.l.l.l.l.l.l.l.l.N.3.+ X + X k 4X6X6X6X6X6X6X6X6X6X6X6X6X6X6X6X6X6X6X=Xi X X + ",
"u X X X X P.6X6X6X6X6X4X4X6X6X!.p.N.b.g.l.g.l.g.C.I X + X X C C.l.l.b.l.g.g.g.l.l.l.l.l.l.l.l.l.l.N.3.+ X X X k >X4X6X4X6X6X6X6X6X6X6X6X6X6X6X6X6X6X4X*Xs X X X ",
"u X + X X K.6X6X6X6X6X6X6X6X6X!.p.l.l.l.b.l.l.l.C.G X + X X B b.l.l.l.l.l.l.l.b.l.l.l.l.l.l.l.l.g.N.3.X X + + k 6X6X6X6X6X6X6X6X6X6X6X6X6X6X6X6X6X4X6X6Xi X + X ",
"u X X X X K.6X6X6X6X>X+X*X*XoXT.l.b.g.l.l.g.g.g.C.G X + + + C N.l.l.l.l.l.l.l.l.l.l.l.l.l.l.l.l.g.N.7.X X X + u l.l.l.l.l.l.l.l.l.g.l.l.l.l.l.g.b.l.b.g.0 X + X ",
"0 X + X X K.6X6X6X4XW.p.g.g.l.g.l.l.g.l.l.l.b.g.C.G + X X X B N.g.l.l.l.l.l.l.l.l.l.l.l.l.l.l.l.l.N.3.X X X X % X X X X X X X X X X X X X X X X + X X % X X X X ",
"u X X X X P.6X6X4X4XW.p.b.g.g.l.g.l.l.b.g.l.b.g.C.G X + + + C b.l.l.l.l.l.b.l.g.l.l.l.l.l.l.l.l.l.b.3.+ X X X X X X X X X X X X X X X X X X X X X + + X % X X X ",
"0 X X % X K.4X6X6X6XT.p.b.b.g.g.l.l.l.l.l.l.l.g.N.G X X X X C N.g.l.g.l.l.l.g.l.l.l.l.l.l.l.l.l.g.N.1.X X + X X X X X X X X X X X X X X X X X X X + X X % X X X ",
"u X X X X K.6X6X6X6XP.i.g.g.l.b.l.l.l.l.l.l.l.l.C.I X X X X B N.l.l.l.l.l.l.l.b.l.l.l.l.l.l.l.l.g.C.7.X X X X X X X X X X X X X X X X X X X X X X X X + X X X X ",
"9 X X X + C.4X*X=X*XT.b.b.l.l.l.l.l.l.l.l.l.l.g.C.I X X X X C N.g.l.l.l.l.l.l.l.l.l.l.l.l.b.l.l.p.N.3.X X X X - 4 4 9 4 9 4 4 4 4 4 4 9 4 4 9 4 4 4 4 0 X X X X ",
"u X X X X 1.b.p.l.l.p.g.l.l.b.l.l.l.l.l.l.l.l.g.N.G X + X X C N.g.l.l.l.l.l.l.l.l.l.l.l.g.l.l.l.l.C.3.X X X + 4 ( Q Q ( Q ( ( Q ( ( Q Q ( Q Q ( ( ( Q R , + X X ",
"u X X X + -.b.l.b.l.g.b.l.l.l.g.l.l.l.l.l.l.l.g.N.G X X X X B b.l.l.l.b.l.l.l.l.l.l.l.l.l.l.l.l.g.b.3.% + X X , Q Q Q Q Q Q Q Q Q Q Q Q Q Q Q Q R Q ( R X X X X ",
"0 X X X X $.b.l.l.g.l.l.l.g.l.l.l.l.l.l.l.l.l.l.C.G X X + X C N.g.g.g.l.l.g.l.l.l.l.l.l.l.l.l.l.g.N.3.X X X X 4 ( Q ( ( ( ( ( ( ( ( ( ( ( ( ( ( ( ( ( Q X X + X ",
"0 X + X X -.N.g.l.g.l.l.l.l.l.l.l.l.l.l.l.l.l.g.C.G X + + + C N.b.b.N.N.N.b.b.N.b.b.b.b.b.b.b.b.b.N.3.+ X X X , Q Q Q ( ( Q ( Q Q Q Q Q Q Q Q Q Q Q Q I X X X X ",
"u X X X + -.N.l.l.l.b.l.l.l.l.l.l.l.l.l.l.l.l.g.C.G X + + X M p.7.w.7.7.7.w.7.7.w.w.7.w.7.w.7.w.w.e.$.X + X X , Q Q Q ( Q ( Q ( ( Q ( ( Q ( ( Q ( Q ( R X X + X ",
"0 X X X X -.N.l.l.l.l.l.l.l.l.l.l.l.l.l.l.l.l.l.C.G X X X X % X + + + + + % % % + % + % % % + % + + X X X X X , Q Q Q ( Q ( Q Q Q ( Q Q ( Q Q ( ( Q ( I X X X X ",
"u X X X X $.N.g.l.l.l.l.l.l.l.l.l.l.l.l.l.b.l.g.b.G X + + X X X X X X X X X X X X X X X X X X X X X X X X X X 4 Q Q Q ( ( Q ( Q Q ( ( Q Q ( Q ( Q Q ( I X X X X ",
"u X X X X $.N.l.l.l.l.l.l.l.l.l.l.l.l.l.l.l.l.l.D.I X X X X + + X X X X X X X X X X X X X X X X X X X X X X X , Q ( Q Q Q Q Q Q ( Q Q ( Q ( Q Q Q Q _ I + X X X ",
"u X X X X $.C.l.l.l.l.l.l.l.l.l.l.l.l.l.l.l.l.g.b.F X X % X X X X X X X X X X X X X X X X X X X X X X X X X X , Q Q ( Q ( ( Q ( Q Q ( Q ( Q Q ( Q ( ( I X X X X ",
"u X X X X $.C.g.l.l.l.l.l.l.l.l.l.l.l.l.l.l.l.l.D.R X X + X + 4 - - - - - - - - - - - - - - - - - % - - - - , 9 Q Q Q ( Q Q ( Q Q Q ( Q ( Q Q ( ( Q _ I + X X X ",
"0 X X X X $.C.l.l.l.l.l.l.l.l.l.l.l.g.l.l.l.l.g.N.G X X X % k Q R R R R R R R Q Q R Q R Q R Q R Q R Q Q R Q Q ( ( ( Q Q ( Q Q ( ( Q Q ( Q ( Q Q Q Q ( I X X X X ",
"0 X X X X -.C.g.l.l.l.l.l.l.l.l.g.l.g.l.l.l.l.g.N.I X + + X g _ ( ( ( ( ( ( ( Q ( Q ( ( ( Q ( ( _ Q ( ( ( Q Q Q Q ( Q ( ( Q Q ( Q ( ( Q Q ( Q ( ( Q ( I X X X X ",
"0 X X X X $.N.l.l.l.l.l.l.l.l.l.l.l.l.l.l.l.l.g.C.I X X X X g _ Q Q Q Q Q Q Q ( ( Q Q Q Q ( Q Q ( R Q ( Q ( ( Q ( Q Q ( Q Q ( Q Q ( Q Q ( Q Q ( Q Q ( I X X X X ",
"i X X + X >.N.b.b.b.l.b.b.b.b.b.l.b.l.b.b.b.l.b.C.G X X + X g _ Q ( Q Q ( Q Q ( Q Q ( Q Q ( Q Q ( Q Q ( Q Q ( Q Q ( Q Q ( Q Q ( Q ( ( Q ( ( Q ( Q Q _ I X X X X ",
"0 + X X % $.g.e.i.e.e.i.e.e.i.e.e.i.i.e.e.i.e.i.g.G % X + + k { Q Q ( Q Q ( Q ( ( Q Q ( Q ( ( Q Q ( Q ( ( Q Q ( Q ( ( Q Q ( Q ( Q Q Q Q Q Q Q Q ( Q ( I X X X X ",
"u X X X X 9 9 - , 4 , , , , 4 , , , , , , , 4 , 0 % X X + X g _ ( Q ( Q Q ( Q Q ( Q Q ( ( Q Q ( Q ( Q Q ( Q Q ( ( Q Q ( Q ( Q Q ( Q Q ( Q ( ( Q ( Q ( I + X X X ",
"s X X X X X X X X X X X X X X X X X X X X X X X X % % + X X k _ Q Q Q Q ( Q Q ( Q Q ( Q Q Q ( Q ( Q Q ( Q Q ( Q Q Q ( Q ( Q Q ( Q ( ( Q ( Q Q ( Q Q ( I X X X X ",
"9 X + X + + X + X X X X X X X + + X + + X + + X + + X X + + k _ ( Q Q ( ( Q Q ( ( Q Q ( Q Q ( Q Q ( Q Q ( ( Q ( Q Q ( Q ( Q Q ( Q Q ( Q Q Q ( Q Q Q _ I X X X X ",
"i % + X X X X + X X X X X X X X X X X X X X X X + X X + % X g _ Q Q ( Q Q Q ( Q ( Q ( Q Q ( Q ( Q Q ( ( Q Q Q Q ( Q Q ( Q ( Q Q ( ( Q Q Q ( ( Q ( Q _ I X X X X ",
"0 X X + X , % + + % % + + % + + + + % + + + % + - + + + + X v { Q Q Q ( ( Q ( Q Q Q ( Q ( ( Q Q ( Q ( Q Q ( ( Q Q ( ( Q Q ( Q ( Q ( Q ( ( Q Q ( Q Q ( I + X X X ",
"0 + X X + C I I G I I G I I I G I G I G I G I G I G I I Q G Q Q ( Q Q Q ( Q Q ( ( Q Q ( Q Q ( Q Q ( Q Q ( Q Q ( Q ( Q Q ( Q Q ( Q Q ( Q Q ( Q Q ( Q ( I X X X X ",
"u X X X X D _ ( ( ( ( ( ( ( ( ( ( ( ( ( ( ( ( ( ( ( ( ( ( ( ( ( Q Q ( Q Q ( Q Q Q Q ( Q Q ( Q Q Q ( Q Q ( Q Q ( Q Q ( Q Q ( Q Q ( Q Q ( Q Q ( Q Q Q _ I + X X X ",
"0 X X X X D _ ( Q Q Q Q Q ( Q Q Q Q Q Q Q Q Q Q Q Q Q Q Q Q Q Q ( Q Q ( ( Q ( Q ( ( Q Q Q Q ( ( ( Q Q ( Q ( ( Q Q ( ( Q ( Q Q ( Q ( ( Q ( Q Q ( ( Q ( I X X X X ",
"0 X X X X C _ ( Q Q Q Q Q Q Q Q Q ( Q Q Q Q Q Q Q Q Q Q Q Q Q Q Q ( ( Q Q Q ( ( Q ( Q ( ( Q ( Q Q ( ( Q Q Q Q Q ( Q Q ( ( Q Q ( Q Q Q Q Q ( ( Q ( Q ( I X X X X ",
"u X X X X C _ Q ( Q ( ( Q ( ( ( Q ( Q ( ( ( ( Q ( Q ( ( ( Q ( ( Q ( Q Q Q ( Q Q Q Q ( Q Q ( Q Q Q Q ( Q ( Q ( ( Q ( Q Q Q ( Q Q ( ( Q ( Q ( Q Q Q Q ( I X X X X ",
"u X X X X C ( Q Q ( ( Q ( Q Q Q Q ( Q Q ( Q Q ( Q ( Q Q Q ( Q Q ( Q Q ( Q ( ( Q ( Q Q ( ( Q Q ( ( Q Q ( Q ( ( Q Q ( Q Q ( Q Q ( Q ( ( Q ( Q Q ( Q Q ( I X X X X ",
"0 X X X X C _ ( ( Q Q Q ( Q ( Q ( Q Q ( Q Q ( Q Q Q ( ( ( Q Q ( Q ( ( Q ( Q Q ( Q ( ( Q Q ( ( Q Q ( Q ( Q Q Q Q ( Q ( Q Q ( Q ( Q Q Q Q ( Q ( Q Q ( ( I X X X X ",
"u X X X X D _ Q Q ( Q ( ( ( ( ( ( Q ( ( ( ( Q ( ( ( ( Q ( Q ( ( Q Q Q Q Q Q Q Q Q Q Q Q Q Q Q Q Q ( Q Q ( Q Q ( Q Q ( ( Q ( Q Q ( Q Q ( Q Q ( Q ( Q _ I X X X X ",
"0 X X X X C _ Q ( Q ( Q Q Q Q Q Q ( Q Q Q ( Q ( Q Q Q ( Q ( Q Q ( Q ( ( Q ( ( Q ( ( Q ( ( Q ( ( ( Q Q ( Q ( ( Q Q ( Q Q ( Q Q ( Q ( ( Q ( Q Q ( Q Q _ I + X X X "
};
