/* XPM */
static char *e7060a66a7744790ca2cbde2102e6ca9Tk5rY4uTIUSblbLU[] = {
/* columns rows colors chars-per-pixel */
"80 80 26 1 ",
"  c #6ECC46",
". c #70CC47",
"X c #72CE49",
"o c #79CE4E",
"O c #75D04B",
"+ c #79D24E",
"@ c #7DD452",
"# c #81D655",
"$ c #83D857",
"% c #87D759",
"& c #85D959",
"* c #8ADB5D",
"= c #8FDE60",
"- c #91DF62",
"; c #8FE060",
": c #94E165",
"> c #98E367",
", c #97E368",
"< c #9BE46A",
"1 c #A0E76F",
"2 c #A1E86F",
"3 c #A1E770",
"4 c #A4EA72",
"5 c #A9EC76",
"6 c #ADEE79",
"7 c #B2F17D",
/* pixels */
"XX....XXXoXX.o..............o..... .o-<3<-%oo.oXoXXX.X...o....o.@+OoXX   .......",
"XX...OXXXXXX..... ................ .o%-:-=%@@%ooX.XX..........oo@@@@oXX ........",
"XX..XXXXXXXX.oo.XXXX................oooo@@=,<,-%O .XXX.X......o-,,,@oX  ...oX XX",
"oX.oXXXXXXXX.... XXX..o..o..X.X....oo..oX@-364,%O  .X.oX.o.. o%:565,@o  .o..XXXX",
"XXX.XXXXXXXX...XXXXXXXXX.oXXXX.Xo.....  .@-465,=o .XXXXXXX.. .%,564,@X  .oXXXXXX",
"OXXXXXXXXXXX.oXXXXXXXXXX...oXXXX......  .o-365,=O  .XXXXXX.  .%,464,@O  ..XXXXXX",
"OX.XXXXXo.XXX.XXXXXXXXX...o.XXXXXX.o..  X@-<54,@O XXXXXXXX.. o@,453:@+  ...XXXXX",
"OOX.XXXXXXXX.XXXXXXXXX.X....XXXXXX..o.. X@-355,=O .XXXXXXX.. .%-453,@O  .ooXXXXX",
"OOX.XXXXXX..XXXX.   .X.XXXXXXXXXXXXXoX .X@-465,@O  .XXXXXXXX .@,564,@O XXXXXXXOX",
"OOX.XXXXXXXXXoX ...   XXXO  XXXXXXXXXX  X@-465,=O .XXXXXXXXX X=,564,@X  XOXXXXXX",
"OXXXXOXXXXXX.XXX....XXXXX XXXOXXXXXXXXX X@-455,=O..XXXXXXX.X X@-464,@O  XXXXXXXX",
"OOXXXXOXXXXXXXXX+@@@+OX.XXXXO O XXXXOX  .@=-3<-@O.XXXXXXo...Xo@=,3,-@OX XXXXXXXX",
"XOX XXXXXXXX XX+&=::;@O  XXXXXXOXXXXXXX XO@@=@@+X.XXXXXXXX.X Xo@@@@@OXX XXXXXXXX",
"OXXXXXXXXXXX  X+;<44,*O  XXXXXXXXXXXoX.XXXOOoOOXXXX.XXXXXXX.X.XOOO@@XXXXXXXXXXXX",
"OOXXXXXXXXXX.  @:365<=+  XXXXXOXXXXX XXXX.. . .XXXXX.XXXX.XXO.X.   XXXXXXXXXXXXX",
"OXXXXXXXXXXX.  @;366<&O  XXXXO XXXoX..XXX..   ...XXXX.OX.X.O....     XXXXXXXXXXX",
"OOO OOO XXOO   @;<55,*o  XXXXXXXXXXXXX XXXXXXXX XX.XXXXXXXXX X X O  OOX XXXXXXXX",
"O   O  OXXX    @;<54,&+  XXXXXXXXXXXXXXXXXXOXXXX.XX.XXXXXX XXXXXXOOOO X XOXXXXOX",
"OO O OOXXXX   X@:<65<&O  XXXXXXXXXXOXXXXXXXXXXXXXXXXXXX   OXXXXXXXXX  OXXXXXXXXX",
"O O O OXXXOXX  @;366<*+  XXXXOXXXXXXXXXOXXXXXXXXXXXXX   XXXXXX XXXXOOO OOXXXXXXX",
"OOO XXXXXXXX  X@:366<*+  XOXXXXXXXXXXXXXXXOXXXX XXXX      XXXXXXXXXXXXXXXXXXXXXX",
"OO XXXXXXXOXX  +*<33:&+  XXXXXXXOXXXXXXXXXXXXXXXXXXXOOOO+OXXXOXXXXXXXXXOXXXXXXXX",
" O XXXXXXXXXX XO#*=*$@O  XXXXXOXXXXXXXOXXXXXXXXXXX O@===@@+XXXXXXXXOXXXXXXXOXXOX",
"OOO XXXOXXXOXX O++@@+OO.X XXXOXXXXXXXXXXXXXXXXXXX  O@,<3,=o X XXX XXXXXXXXXXXXXX",
"OO OXXOXXXXXXX O X ..XXXXXXXXXXXOXXXXXOXXXXXXXXXX  +=3673-o     XXXXX XXXXXXXXXX",
" O  XX XXXX O X      ..XXXX.XXXXXXXXXXXXXOXXXXXX   +=3774-o    XXX XXXXXOXXXXXXX",
"OOO XXO XXXX O O. .O.XX..XXXXXXXXXXXXXXXXXXXOXXX   +@,343-@OOOOOXXXXXXXXXXXXXXXO",
" O OXXXOXXXXO O OO.OXXXXXXXXOXXXXXXXXXXXXXXX OXXXXX+@=--=@@=@@@OXXXXXXXXXXXXOXXX",
"OO O OO XXXXXXOOXXO.XOX..XXXXXXXXXXXXXXXXOXXXXXXXXXXo@+@@=-<3,=@X XXXX OXXXXXXXX",
"O O O O XXXXO  O..  ...XX.XXXXXXXXXXXXXXXXXXXXXXX XXX   O@<464-@   XXXOXXXXXXXXX",
"OO  O OOXXX XX       ..XXXX.XXXXXXXXXXXXXXXXXXX XXXXX   O@<664-@X  XXXXXXXO OXXX",
"O OO OO XXXO OXXO.XOO.XXXX.XXXXXXXXXXOXXXXXXOXXXXXXX    @@<464-@O  XXXXXXXXOXXXX",
"OXXXXXXXXXXXXXXO@@@@@oO.XXXX XXXXXXXXXXXXXXXOXXXXXXXXX XO@,453@@O  XXXXXXXXXOXXX",
"OXX.XXXX XXX  XO@-3,-@O  XXXXXXXXXXXXXXXXXXXXXXX XXXXX X@@,453,@   XXXXXXXXXXXXX",
"XXX  X XXXXO XX@,355,=X    XXXXXXXXXXOXXXXXOXXXXXXXXXX X@@4565@@X  OXXXXXXXOXXXX",
"XX    XXXXXX   @,5763=X   XXXX XOXXXXXXXXXXXXXXXXXXXXX  +@36663@    XXXXXXXXXXXX",
"XXXXXXXXXXXXX  @-465,=O   XXXXXXXXXXXXXXXXXXXXXXXXXXXX  @@,463@@X  OXXXXXXXXXOOX",
"@@@@@@+XXXXX XXo@,,,==@@@@+OXXXXXXXXXXXXXXXXXOXXXXXXXX  @@@3,,@@X XXXXXXXXXXXXXX",
"@;,,-@oX XXXX  o@@@@@=-,,-@o  XXOXXXXXXXXXXXXXXXXXXOXXXX@@@@@@@@XXXXXXXXXXXXXXXX",
";,443-@X  XXXXXXOOO+@=,443@@  XXXXXOXXXXOXXXXXXXXXXXXXX OOO+@++@X XXXOOXOXXXXXXX",
",,563;@X  XXXXXX..  X=,663=@X XXXXXXXXXXXXXOXXXXXXXX XXX X    XXXXX XXXXXXXXXXXX",
";<564,@X XXoXXXX.   X=<663@@  XXXXXXXXXXXXXXXXXXXXXXXXXXXXX    XXXXX XXXXXXXXXXO",
";<553;@O  XXX XXOX Xo=<55<=+   XXXXOXXXXXXXXXXXXXX XXX XXXXXXXX X O XXXXOXXXXXXX",
";,353;@X  XXXXXXXX XO=<553@@X OXXXXXXX XXXXXXXXX XXXXXXXXXXXXXXXX XOXXXXXXXOXXXX",
";<453;@XX XoXXXXXX .o=,553@@  XOXXXXXXXXXX X XX XXXX XXXXXXXXXXXXXXXXX OXXXXXXXX",
";<563,@X  XXXXXXX. .@=3563-@  XXXXXXXXXXXXX    XXXXXXXXXXXXXXXXXXXXXXXOXXXXXXXXX",
":<664;@XX XXXXXXXX .O=3663@@   XXXXXXXXXXX X X XXXXXXXXXOXXXXXXXXXXXXXXXXXXOXOXX",
";:<3<;@X  XoXXXXXX .O=,33,=+X XOOXXX XX XXOO++OOXXXXXXXXXXXOXXXXO OXXXXXXXXXXXXX",
"@$***@+XXXXXXXXXXXXXO@@;;@@+X X XXXXXX XX+@===-@OXX XXXXXXXXXXXOXXXXXXXOXXXXXOXX",
"+++++OOXX XOXXXXX X OOO+++O+X XOXOXXXX .X@=,33,@O  XXXXXXXXXXXXXXXXXXXXXXXXXXXXX",
"OXO  XXXXXX XXXXXXXXXX   XOX OXXXXXXXX  X@-366,@O  XXXXXXXXXXXXXOXXXXXXXXOXXXXXX",
"      XXXXXXXXXXX XXX       OX  XXXXXX XX@,4663-O  XXXXXXXOXXXXXXXXXXXXXXXXXXXXX",
"XX XXXXXXXXXXXXXXXXXXXXX OX O XXXXXXXXX X@;365,@O XXXXXXXXXXXXXXXXXXX..XXXXXXXXO",
"OX OXXXXXXXOXXXXXXXXXXXXXXXXXXXXXXXXXX   @;353,@O  XXXXXXXXXXXXXXXXXOOX.XXXXXOXX",
"XOXOXXXXXXXXXXXXXXXXXXOXXXXXXXXOXXXXXXX X@;3553-+   XXXXXXXXXXXX.XX....XX XXXXXX",
"OXO XXXXXXXXXXXXXXXXXXXXOXXXXXXXXXXXXX  X@-365,@O XXXXXXXXXXXXX  .....OXXXXXXXXX",
"OXXXXXXXXXXXXXXXXXXOXXXXXXXXXXXXOXXXOXX X@,5763@+  XXXXXXXXXXX      ..XXXXXXXXXX",
"XXXXXXXXXXXXXXXXXXXXXXXXXXOXOXXXXXXXXX  X@@5533@O  XXXXXXXXXXXXXOOO..OXXX XXXXXO",
"OXXXOXXXX XXXXXXXXXXXXXXXXXXXXXXXXXXXXXXO+@@,,@@O  XXXXXXXXXX+@@$$$#+X.X XXXXXO ",
"OXXXXXXXXXXXXXXXXXXXXXXXXXXXXXXXXXXXXXX.O@@@@@@@XXXXXX XXXXX @@@>>:*+O  XOO OX O",
"O    XX XX XOXXXXXXXXXXXXXOXXXXOXXXX XX XXXXXXXXXXXXXXXXX     @,564>@O   O OXXXX",
"O    XXXXXXXXXXXXXXXXXXXXXXXXXXXXXXXXXXXX       XXXXXXXXXX    @,676>$O  XOXXXXXX",
"OOOXOXXXXXXXXXXXOXXXXXXXXXXXXXOXXXXXXXXXXXXX X XXXXXXXXXXXXX +@3462:@O XXXXXXXXX",
"@@@@@+OX XXXXXXXXXXXXXXOXXXXXXXXXXXXXX XXXXXXXXXXX XXX  X+@@@@,@:>:*@X  XOXXXOXX",
"@;,,;*+X  .X.XXXXXXXXXXXXXXXXXXXXXXOXXXXXXXXXXXX OO OX  O#*>>-*%###+....XXXXXXXX",
";<262;+X  .XX.XXXXXXXXXXOXXXOXXXXXXXXXXXXXXXXXXXX XXO   O&>452=#. ...O.OXXXXXXXX",
",2675,@    .XXX.XXXXXXXXXXXXXXXXXXXXXXXXXXXXXXOXOXXXXX  O%<562-+.   ..O.XXOXXOXX",
";2564;@X...XXX.XXXXXOXXXXXXXOXXXXXXXXXXXXXXXXXXXXXXXXO  O&1564-#    O..O XXXXXXX",
";;<<,;@@@@@OO  XXXXXXXXXXXXXXXXXXXXXXXXXXXXXXXXXXXXXXX  O&<452;#. ...O..XXXXXOXX",
"@@@$@*;;;;$@X OXXXXXXXXXOXXXXXXXXXXXXXXOXXXXXXXXXXXXOX  O&>452*#X OOO...XXXXXXXX",
"+O X+@,242:@O OXXXXXXXXXXXXXXOXXXOXXXXXXXXXXOXXXXXXXO   O&<552;#X .OX.OXOXXXXXXX",
"OX  X@<575,@    XXXXXXXXXXXXXXXXXXXXXXXXXOXXXXXXXXXXXX  O&<562;#X ..OOXXXXXXXXXX",
"O   O@,565;$O  OXXXXXXXOXXXXXXOXXXXXXXXXXXO O  OXXXXXX  O$<562;#X  XXXXXXXXXXXXX",
"OO  +@,452:$X  XXXXXXXX XXXXXXXXXXXXXXXXXXXO OO XOXXXX  O$:<2<;+X .XXXXXXXXXXXXX",
"OX  O@,254;@X  XXOXXXXXOXXOXXXXXXXXXXOXXXXXXOXXOXXXXXX XO+$**$#OX XXXXXXXXXXXXXX",
"OO  O@,254:&O XOXXOXXXXXXXXXXXXXXXXXXXXXXXXXXXXXXXXXXXX OOOO+OXX.XXXXXXXOXXXXXXX",
"OX  X@,565:$O  X  XXO  XX O X XXXXXXXXXX X XO OXXXXXX XX  X    XX. X.XXXXXX XXX ",
"OX  O$,464,@O  XXXO   XXXX  XXXX X X  XXXXXX X XXXXXXXXX O     XXXO X.XX XXXXXXX",
"OO  O@,222;@O  XOXO XOXOOOOXO XXXOXXOXXXXXXOO XXXOXXXOXXOXXXXXXXOXO.OXOXXXOXXXXO",
"OO OO@;,<,;@O OXXXOOO OXOXO OOXOOXXOXOOXXOXXXXOOXXXOXXOXOXXOXOOOXOXOXXXXOXXOXXOX"
};
