/* XPM */
static char *_63a5c37eab64f93be792d17ebb9e79ab6MqqUM4NfVzJ71I[] = {
/* columns rows colors chars-per-pixel */
"80 80 193 2 ",
"   c #000000",
".  c #0B0300",
"X  c #0C0907",
"o  c #0C0B0B",
"O  c #130600",
"+  c #160801",
"@  c #1B0A01",
"#  c #110D0B",
"$  c #14100D",
"%  c #141312",
"&  c #1C1B1A",
"*  c #191616",
"=  c #240D01",
"-  c #290F02",
";  c #2D1102",
":  c #341302",
">  c #3C1603",
",  c #3F1905",
"<  c #201E1D",
"1  c #24201F",
"2  c #232323",
"3  c #2B2827",
"4  c #2D2D2D",
"5  c #272728",
"6  c #332E2B",
"7  c #3B2E26",
"8  c #36312F",
"9  c #3D312B",
"0  c #323333",
"q  c #373939",
"w  c #3C3C3C",
"e  c #393432",
"r  c #431903",
"t  c #4C1C04",
"y  c #441C07",
"u  c #511F04",
"i  c #49230F",
"p  c #552105",
"a  c #5B2204",
"s  c #56250D",
"d  c #59260C",
"f  c #492918",
"g  c #582C15",
"h  c #5A311A",
"j  c #622605",
"k  c #6D2A06",
"l  c #682706",
"z  c #742D06",
"x  c #792E07",
"c  c #7A2F08",
"v  c #772E08",
"b  c #7E3008",
"n  c #6E391E",
"m  c #793C1C",
"M  c #773B1C",
"N  c #483329",
"B  c #5C3622",
"V  c #533728",
"C  c #4C3E38",
"Z  c #553F32",
"A  c #402D25",
"S  c #643720",
"D  c #663A21",
"F  c #713C20",
"G  c #5D483D",
"H  c #564339",
"J  c #65412E",
"K  c #744024",
"L  c #7D4122",
"P  c #674838",
"I  c #3F3F40",
"U  c #444343",
"Y  c #4C4C4C",
"T  c #484747",
"R  c #534F4E",
"E  c #51504F",
"W  c #555555",
"Q  c #5C5C5C",
"!  c #585553",
"~  c #6F5547",
"^  c #745A4C",
"/  c #715445",
"(  c #785E51",
")  c #64615F",
"_  c #796256",
"`  c #796459",
"'  c #5F6060",
"]  c #626262",
"[  c #6C6C6C",
"{  c #696665",
"}  c #796C64",
"|  c #72706F",
" . c #757474",
".. c #7B7B7B",
"X. c #7A7776",
"o. c #843308",
"O. c #8B3609",
"+. c #803107",
"@. c #953A0A",
"#. c #9C3C0A",
"$. c #833F1B",
"%. c #8A3F18",
"&. c #8A3F17",
"*. c #A23E0A",
"=. c #84401C",
"-. c #8A411B",
";. c #944116",
":. c #9F4314",
">. c #A6410C",
",. c #AC430C",
"<. c #B4460D",
"1. c #BB490D",
"2. c #B6480E",
"3. c #A54512",
"4. c #AB4611",
"5. c #AF4811",
"6. c #B44911",
"7. c #BC4B10",
"8. c #824220",
"9. c #C44D0E",
"0. c #CC4E0D",
"q. c #CC510F",
"w. c #D1530F",
"e. c #C14E10",
"r. c #CD5110",
"t. c #D55510",
"y. c #DA5610",
"u. c #DD5911",
"i. c #E45D12",
"p. c #EB5E12",
"a. c #F05E11",
"s. c #ED6112",
"d. c #F36413",
"f. c #FC6412",
"g. c #FD6C14",
"h. c #F66814",
"j. c #FF7215",
"k. c #806D62",
"l. c #82726A",
"z. c #847C79",
"x. c #82807F",
"c. c #8F837D",
"v. c #848483",
"b. c #8B8B8B",
"n. c #938D8B",
"m. c #928984",
"M. c #98918C",
"N. c #959595",
"B. c #9B9592",
"V. c #9D9996",
"C. c #9C9B9B",
"Z. c #A49E9C",
"A. c #A3A09F",
"S. c #A4A4A4",
"D. c #A9A7A5",
"F. c #ABABAB",
"G. c #B1AEAC",
"H. c #AFB0AF",
"J. c #B3B3B3",
"K. c #B9B7B7",
"L. c #BCBCBC",
"P. c #B7B8B8",
"I. c #C0BFBF",
"U. c #C4C4C4",
"Y. c #CBCBCB",
"T. c #D0CFCF",
"R. c #D0D0CF",
"E. c #D4D4D4",
"W. c #DBDBDB",
"Q. c #E4E4E4",
"!. c gray92",
"~. c #EAEAEA",
"^. c #E9E9E9",
"/. c #ECECEC",
"(. c gray93",
"). c #EDEDEC",
"_. c #EEEEEE",
"`. c #EFEFEF",
"'. c #EDEDED",
"]. c #E7E7E8",
"[. c #F3F3F3",
"{. c #F1F1F1",
"}. c #F7F7F7",
"|. c #F5F5F5",
" X c #F3F3F3",
".X c #F8F8F8",
"XX c #F9F9F9",
"oX c #FAFAFA",
"OX c #FDFDFD",
"+X c gray99",
"@X c #FEFEFE",
"#X c white",
"$X c #FDFDFD",
/* pixels */
"@X@X@X@X@X X/./././. X@X@X@X@X@X`./._././.oX@X@X@X@X.X!.!.!.!./.@X@X@X@X@X X/./././. X@X.X+X+X+X/./././.!. X@X@X@X@X.X/./././.[.@X@X@X@X@X[././././.[.@X@X@X@X@X",
"@X@X@X@X@X X/./././. X@X@X@X@X@X_._./._./..X@X@X@X@X@X.X+X.X X`.@X@X@X@X@X X/./././.}.@X@X@X@X@X_./.`. X.X@X@X@X@X@X.X/.[./././.@X@X@X@X@X[././.[./. X@X@X@X@X@X",
"@X@X@X@X@X X/./.[./.[.@X@X@X@X@X_././._./..X@X@X@X+XE.F.S.S.I.Q.@X@X@X@X@X[././././.].Y.F.F.L.W././.!.U.S.D.H.E..X@X.X/././././.@X@X@X@X@X[././././.[.@X@X@X@X@X",
"@X@X@X@X@X X/./././.[.@X@X@X@X@X`./._././..X@X@X@X}.v.      ! E.@X@X@X@X@X[.!.[.!.`.Y.U     $ C./._.Q.[       [ /.@X.X/./././.[.@X@X@X@X@X[././././. X@X@X@X@X@X",
"@X@X@X@X@X X/./././. X@X@X@X@X@X/././././..X@XoX@X).v.$ . X Q Y..X.XoX.X@X/.].!.].!.U.R .   1 V.]./.E.[ $   # | Q.@X X!././././.@X@X@X@X@X[././././.[.@X@X@X@X@X",
" X X X X[..X.X.X.X.X.X[.[.[.[.[..X.X.X.XoX_.U.D.S.B._ g u s / n.S.S.S.S.S.S.S.S.S.S.c.P a u h } A.S.B.( g p s ^ M.S.S.U./.@X.X.X[.[. X|. X.X.X.X.X.X.X X X X X X",
"/./././.!..X@X@X@X@X.X/././.!./.@X@X@X@X@XQ.v.w 5 6 n 5.w.1.=.N 4 4 4 4 5 0 8 0 0 0 V -.e.r.3.S 0 0 N M 1.w.6.m 7 4 q v.Q.@X@X@X/.!././.'..X@X@X@X@X.X/././././.",
"/././././..X@X@X@X@X.X/./././.[.@X@X@X+X@XQ.[ o   . z i.j.h.#.=                     : ,.g.j.u.l     + o.s.j.d.O.@     Q Q.@X@X@X[././././..X@X@X@X@X.X/././././.",
"/././././..X@X@X@X@X.X!./././.[.@X@X@X@X@XW.{ o   . z u.g.d.@.=                     : >.h.g.t.j .   @ o.i.j.p.O.@     Q W.@X+X+X/./././._..X@X@X@X@X.X/././././.",
"/././././..X@X@X@X/.U.F.F.L.W./.@X XE.L.L.Z.^ i r t z #.1.>.j @                     = k ,.2.O.r     O p *.1.#.a +   o T C.L.L.P.H.F.H.L.W.oX@X@X@X@X.X!././././.",
" X X X X X.X.X.X.XY.[ w w ] L.[.oXQ.v.Y I C K 4.9.,.z t , > =                       . = > r ; +       @ : r : @     . & q U I I U w w [ U.}.XXXX.X.X.X[. X X X X",
"@X@X@X@X@X[.!./.[.J.q     0 L.@X/.E.Q o   @ O.s.j.p.b +                                                                               w U.|.^.'././. X@X@X@X@X@X",
"@X@X@X@X@X X/.`.`.J.0     4 P.@X XE.W     @ O.d.j.p.b O                                                                               q U. X/.`././.[.@X@X@X@X@X",
"@X@X@X@X@XQ.U.L.L.n.V : : V M.U.L.C.Y     + a <.q.,.a .                                                                       . ; : : Z B.I.L.U.Q.!. X@X@X@X@X@X",
"@X@X@X@X+XL.[ Y Y G %.,.,.&.P ! W U 2     . - r u t = .                                                                       : b ,.4.-.P Y Y [ P.!.[.@X@X@X@X@X",
"@X@X@X@X.XA.4     t 2.h.g.9.i .                                                                                               t 1.g.h.6., .   4 S./.[.@X.X@X@X@X",
"/././.[.!.C.2     t e.g.j.r.u                                                                                                 u r.j.g.1.,     2 F.@X@X/.{././.[.",
"/./././.].S.0     : @.t.t.#.r                                                                                                 > #.t.t.#.u ; = N M.E.E.Y.W.!././.",
"[././.[.].S.0     @ r j a y @                                                                                                 @ r a a l b @.#.=./ ] ]  .J.]././.",
"/./././.!.F.q         . .                                                                                                       . .   : >.d.h.1.s #   & b.Q.[./.",
").)./.{./.J.0                                                                                                                         - <.j.j.t.a     o ..Q.[.!.",
".X.X[.W.W.M.9 @ @ +                                                                                                           . O @ @ r #.u.u.4.g < * q C./..X.X",
"@X@XE.[  .^ m O.o.p @                                                                                                         = j O.O.x k z z F _ x.v.Z.E..X@X@X",
".X@XH.  % s 1.s.i.*.>                                                                                                         r ,.s.p.*.r . . 9 V.W.^.|.}.@X@X@X",
"+X@XD.    u u.j.g.9.,                                                                                                         u t.j.j.1.:     0 P.[. X@X@X@X@X@X",
"@X@XJ.  * g 2.d.i.*.:                                                                                                         r ,.s.i.,.r O . 9 V.W.].[..X@X@X@X",
".X@XR.| X.^ M o.+.p @                                                                                                         - a +.o.x k z z n _ ..v.N.Y. X.X.X",
"/./.Q.W.E.V.9 + @ +                                                                                                           . O @ @ r #.i.i.5.g < * 4 N.]._./.",
"/./._.`.|.I.w                                                                                                                         : 1.g.j.t.u     # ..Q././.",
"/././.^.Q.D.e   .                                                                                                                     : *.p.h.7.d #   2 b.Q././.",
"/.[.R.b.b.l.D j j r +                                                                                                                 = j @.@.$./ { {  .J.^././.",
"/.+XF.% 2 h 4.y.t.O.:                                                                                                                   + = = N B.E.W.E.Q./.`./.",
".X@XD.    a w.j.g.1.r                                                                                                                         0 P.|. X@X@X+X@X@X",
"@X@XF.  # p 9.h.h.,.>                                                                                                                         6 S.!.[.@X+X@X@X@X",
"@X@XU.Y ! P &.,.>.k =                                                                                                                 O > t p B l.A.S.L.Q..X@X@X",
"@X@X).Y.Y.c.N : : = .                                                                                                                 ; o.9.q.:.B 8 4 Y F. X@X@X",
"@X@X@X@X@XS.2                                                                                                                         r 1.g.g.w.p     % v.|.@X+X",
"[.[.[.[.[.F.4                                                                                                                         > <.g.g.q.p .   % v.^.|.[.",
"/./././.^.L.[ U U 0 %                                                                                                                 ; x <.1.;.J H I W D.Q.'./.",
"/././././.Q.Y.I.L.b.4                                                                                                                 . ; r r V c.L.P.P.E./.`.'.",
"/././././..X@X@X@XY.U                                                                                                                         5 F.@X.X/.`./././.",
"/././././..X@X@X@XR.Y                                                                                                                         5 H.@X.X!././././.",
" X X X X[.!.E.Y.Y.B.H : : = .                                                                                                         $ 5 0 0 Q P. X.X[. X X[.[.",
"@X@X@X@X@XL.[ Y Y P =.>.>.v :                                                                                                         5 ..D.S.H.E.!. X@X@X@X@X@X",
"@X@X+X+X@XD.0   . , 6.h.f.9.t                                                                                                         U U. X!.!././. X@X@X@X@X@X",
"@X@X@X@X@XD.2     , 1.j.j.r.u .                                                                                                       Y E..X/.[._./. X@X@X@X@X@X",
"@X@X XW.E.n.7 = - t >.w.t.#.>                                                                                                 . @ = = H D.E.Y.E.]./. X@X@X@X@X@X",
"+X@XY.' { / $.@.@.x j j l y @                                                                                                 - k @.@.L ^ ] ] ..L./. X@X@X@X@X@X",
"!.@XS.  # d 1.d.s.,.> . . .                                                                                                   t <.h.d.,.y o o w H.@X}././.[./.`.",
"!..XC.  . u y.j.j.1.:                                                                                                         u q.j.g.9.,     2 F.@X+X/././././.",
"!..XS.o & g 6.i.u.@.:                                                                                                         r ,.i.i.*.t @ @ 9 V.Q.Q.W.Q./././.",
"/.[.Y.....` F z z t @                                                                                                         = u z z z z +.o.M ^  . .v.L.!.[./.",
"/./.!.W.W.V.e O + .                                                                                                             . + O r *.i.s.7.g $ o 4 b.]././.",
".X.X.X.X+XH.0                                                                                                                         : 1.j.j.w.a     o x./.+X.X",
"@X@X@X@X@XS.6       . . . . O O O .                                                                                                   : #.p.s.7.d # # 5 N.}.@X@X",
"@X@X@X@X.XS.4     @ t k z l l k z p -                                                                                                 @ p o.o.m ~ [ | b.U.oX@X@X",
"@X@X@X@X.XS.4     , #.y.y.t.0.t.w.,.t .                                                                                                 + @ @ 7 n.E.W.!.[.@X@X@X",
"@X@X@X@X.XC.<     t e.g.g.f.a.f.f.0.a .                                                                                                       2 S./. X@X@X@X@X@X",
".X.X.X.X XS.0   o t 5.p.a.a.a.a.f.9.a .                                                                                 . . .           o o o q S.[. X.X.X.X.X@X",
"/./././.!.U.v.' ] ~ 8.@.@.*.0.f.f.9.p .                                                                               = t j a > #     * U Q ] x.Y.@X.X'././././.",
"/./././././.Q.W.E.Z.C = - u *.a.f.9.a .                                                                               t *.t.r.o.;     0 b.E.W.W.[.@X.X/.[./././.",
"[././././..X@X@X@XU.q     - ,.f.g.w.a .                                                                             . l y.j.g.<.>     q P.@X@X@X@X@X.X/././././.",
"/./.[././..X@X+X@XU.U     ; #.d.f.9.d . o                 .                               .               .         . a r.g.h.,.>     w J..X@X@X@X@X.X/././././.",
"/.[./././.}.@X+X@XT...Y Y G =.*.<.;.P E E Y 2       = r u r - .                     . : t t > =       = r u t = .     , o.,.>.8.G Y Y  .U..X@X@X@X@X.X/./.[././.",
"@X@X@X@X@X[././.[.Q.Y.Y.U.A.G : : f z.K.I.H.Q o   . u *.r.<.l @                     = z 1.0.#.t     O a ,.q.,.j +     + ; : : G Z.Y.Y.E.[.[././.[./. X@X@X@X@X@X",
"@X@X@X@X@X[././././.[.@X@XR.T     & V././.]. .o   + v i.j.h.#.=                     : *.d.g.0.a .   + O.p.j.s.O.@             U Y.@X@X@X@X[././././.[.@X@X@X@X@X",
"@X@X@X@X@X[./.[././.[.@X@XE.Y     2 C./.`.!...o   X z i.j.d.@.=                     ; *.h.g.w.j .   @ o.p.j.s.O.@             Y E.@X@X@X@X X/./././. X@X@X@X@X@X",
"@X@X@X@X@X[././././.[.@X@XW...U w W F.!./.].C.Y w H F 3.9.,.l @     O ; > > - O     ; #.a.f.9.a .   . p *.e.4.L C U w w w w U  .E.@X@X@X@X X/./././. X@X@X@X@X@X",
"@X@X@X@X@X[.!./././. X@X@X[.E.L.F.P.E././. XW.L.L.F.} i r r = .     > o.<.<.z -     ; #.a.f.0.p .     = > t i _ D.L.P.F.F.F.F.U.[.@X@X@X@X[.!./././. X@X@X@X@X@X",
" X X X X X.X.X.X.X.X.X[.[.[.[. X.X}..X.X.X X[.[. X].z.%           . u 9.g.f.2.r     ; *.d.g.w.j .           o [ Q. X[.}..X.X.X.X X X X X X.X.X.X.X.X.X[. X X X[.",
"/././././..X@X@X@X@X.X/.!.!././.@X@X@X@X@X X!././.].v.%             p q.j.g.9.r     - #.f.g.q.a .           X [ W./.[.@X@X@X@X@X/././././..X@X@X@X@X.X/././././.",
"/././././..X@X@X@X@X.X/././././.@X@X@X@X@X X/././.Q.C.Y 4 0 0 0 4 4 B :.r.r.;.V 0 0 V %.9.q.3.D 8 0 0 0 0 4 w v.W./.[.@X@X@X@X@X/././././..X@X@X@X@X.X/./././.[.",
"/./.[././..X@X@X@X@X.X/./././.[.@X@X@X@X@X X/././.!.Y.J.S.D.D.D.C.C.l.B p p J c.D.F.m.J p u h } A.F.S.D.S.S.S.U.Q./.[.@X@X@X@X@X[././././..X@X@X@X@X.X/././././.",
"/././././..X@X@X@X@X.X/././././.@X@X@X@X@X X/././.!.[.@X+X+XoXoX!.].C.3 .   w I.oX@XY.T . . < b.[.+XoXoX@X[.].].!.!.[.@X@X@X@X@X/././././..X@X@X@X@X.X/././././.",
" X X[.[. X X@X.X.X.X.X[.[.[.[.[..X.X.X.X.X X X X[.|. X.X.XoXoX.X[. XF.5     q U.@X+XE.T     & N.}..X.XoX.X X X X X X X.X.X.X.X X X X X X X.X.X.X.X.X.X[. X X X X",
"@X@X@X@X@X[.!./././. X@X@X@X@X@X/././././..X@X@X@X@X.X!././.!.'.@X@XL.E 2 2 W L././.T.[ 5 2 U F.!.'.!.!.!..X@X@X@X@X.X/././././.@X@X@X@X@X X/./././. X@X@X@X@X@X",
"@X@X@X@X@X X/./././. X@X@X@X@X@X[././././..X@X@X@X@X.X/.'.'.'.`.@X@XW.F.N.b.S.E././.Q.L.N.N.S.E.!.!./._./..X@X@X@X@X.X/.[././.[.@X@X@X@X@X[././././. X@X@X@X@X@X",
"@X@X@X@X@X X/./././. X@X@X@X@X@X/./.[././..X@X@X@X+X.X/.'.'.'.`.@X@X.X X X!.].!._./.[. X X X X.X_./._././..X@X@X@X@X.X/././././.@X@X@X@X@X[././././. X@X@X@X@X@X",
"@X@X@X@X@X X/./././. X@X@X@X@X@X[././././..X@X@X@X@XoX/.'.'.'.`.@X@X@X@X@X X/.[././.[.@X@X@X@X@X_._./._./..X@X@X@X@X.X/./.[./.[.@X@X@X@X@X X/./././. X@X@X@X@X@X",
"@X@X@X@X@X X/./././. X@X@X@X@X@X/././././..X@X@X@X@XoX'.'.'.'.`.@X@X@X@X@X[././././. X@X@X@X@X@X_._._././.oX@X@X@X@X.X/././././.@X@X@X@X@X X/./././. X@X@X@X@X@X"
};
