/* XPM */
static char *_5bcf3083174408ea81201f9a59ddd26ASbzO5VOIBOi3JNu[] = {
/* columns rows colors chars-per-pixel */
"80 80 228 2 ",
"   c None",
".  c #000000",
"X  c #0A0404",
"o  c #0A0A0A",
"O  c #090709",
"+  c #130D0B",
"@  c #180706",
"#  c #1B110E",
"$  c #050B17",
"%  c #0C1215",
"&  c #131314",
"*  c #1B1B1B",
"=  c #1B1714",
"-  c #160D13",
";  c #230809",
":  c #290706",
">  c #3A0E0D",
",  c #281B16",
"<  c #3B1413",
"1  c #33231D",
"2  c #3A271F",
"3  c #2D201A",
"4  c #0A0D23",
"5  c #071626",
"6  c #0B1428",
"7  c #0F1D30",
"8  c #282828",
"9  c #3C2A23",
"0  c #372620",
"q  c #39393A",
"w  c #272834",
"e  c #430F0F",
"r  c #5C1516",
"t  c #581A19",
"y  c #590E0B",
"u  c #761C1C",
"i  c #681919",
"p  c #4B342A",
"a  c #473329",
"s  c #563B2F",
"d  c #573B31",
"f  c #47352D",
"g  c #683032",
"h  c #5D4235",
"j  c #5F4438",
"k  c #494E3D",
"l  c #67483B",
"z  c #72681C",
"x  c #181E45",
"c  c #0F1543",
"v  c #19294E",
"b  c #0A3C69",
"n  c #2D387A",
"m  c #262F6B",
"M  c #362E4E",
"N  c #0D416B",
"B  c #13436B",
"V  c #134571",
"C  c #2B5471",
"Z  c #304458",
"A  c #454545",
"S  c #4B4B4B",
"D  c #4A4645",
"F  c #575756",
"G  c #4C4D55",
"H  c #684644",
"J  c #775A53",
"K  c #68615D",
"L  c #5F6161",
"P  c #686868",
"I  c #747474",
"U  c #7C7C7C",
"Y  c #7A7768",
"T  c #485868",
"R  c #653951",
"E  c #8C2424",
"W  c #922524",
"Q  c #A82828",
"!  c #B82B2A",
"~  c #8F201F",
"^  c #D3231E",
"/  c #CC2E2D",
"(  c #C72D2C",
")  c #D22E2D",
"_  c #D92C28",
"`  c #DB302F",
"'  c #D1312F",
"]  c #C93334",
"[  c #D53232",
"{  c #DC3231",
"}  c #CD312F",
"|  c #E53433",
" . c #8F3E6A",
".. c #863F53",
"X. c #865D4A",
"o. c #8E4055",
"O. c #AD4559",
"+. c #8D6452",
"@. c #936A56",
"#. c #956B58",
"$. c #A4745D",
"%. c #8C5578",
"&. c #917171",
"*. c #A66D6D",
"=. c #A97A64",
"-. c #A57762",
";. c #B1796E",
":. c #D46B6A",
">. c #FFEB36",
",. c #FDEB3B",
"<. c #FFF238",
"1. c #FFF436",
"2. c #FFF32F",
"3. c #8A857E",
"4. c #BB866C",
"5. c #B6836A",
"6. c #B5B16D",
"7. c #B6B26E",
"8. c #C88F74",
"9. c #C38A73",
"0. c #CC9175",
"q. c #CE967A",
"w. c #D39679",
"e. c #D59A7C",
"r. c #DB9C7E",
"t. c #D29477",
"y. c #D3856E",
"u. c #E59B79",
"i. c #DADD5C",
"p. c #FAEC46",
"a. c #F2E84B",
"s. c #F0E74B",
"d. c #FFFF40",
"f. c #D2CE6F",
"g. c #FAC964",
"h. c #D9E165",
"j. c #364597",
"k. c #275D8D",
"l. c #3C4BA9",
"z. c #3548B3",
"x. c #3D4EB2",
"c. c #3345B5",
"v. c #3E50B4",
"b. c #3A51B9",
"n. c #1F70B3",
"m. c #2171B4",
"M. c #53789B",
"N. c #4052B5",
"B. c #4154BB",
"V. c #414FAF",
"C. c #517AAB",
"Z. c #6F6D9B",
"A. c #1772C1",
"S. c #326ACB",
"D. c #2974CC",
"F. c #475BC6",
"G. c #75AB99",
"H. c #63A5B1",
"J. c #2286D7",
"K. c #1A8DEA",
"L. c #1E93EE",
"P. c #168FF5",
"I. c #1A8DF2",
"U. c #1B93F5",
"Y. c #1D9AFB",
"T. c #1594FD",
"R. c #2392EB",
"E. c #2792E9",
"W. c #2195F2",
"Q. c #2398F4",
"!. c #269EFB",
"~. c #26A1FE",
"^. c #29A5FF",
"/. c #1CA5FF",
"(. c #469ED3",
"). c #6499C9",
"_. c #54A7C2",
"`. c #41A0D2",
"'. c #46A9DC",
"]. c #5EAFF1",
"[. c #6FC5FF",
"{. c #838383",
"}. c #8B8A8A",
"|. c #888985",
" X c #969696",
".X c #9A9A9A",
"XX c #999492",
"oX c #8F9090",
"OX c #BD9D94",
"+X c #84B99C",
"@X c #B69EA5",
"#X c #83BCA0",
"$X c gray63",
"%X c gray68",
"&X c #B4B4B4",
"*X c #BCBCBC",
"=X c #869AB5",
"-X c #DB9E81",
";X c #DE948C",
":X c #D08788",
">X c #EB9E88",
",X c #EC9D94",
"<X c #ED9999",
"1X c #EA9698",
"2X c #F29D9B",
"3X c #DFA081",
"4X c #E3A282",
"5X c #EBA685",
"6X c #EEA886",
"7X c #EEAB8A",
"8X c #ECA18F",
"9X c #F4AD8B",
"0X c #F6AC87",
"qX c #F6B08E",
"wX c #F9B18E",
"eX c #FEB996",
"rX c #F1A592",
"tX c #FBA5A5",
"yX c #D6A8A6",
"uX c #8CC09E",
"iX c #ACCC82",
"pX c #B5D688",
"aX c #89C2A2",
"sX c #C1C0BE",
"dX c #C8C8C8",
"fX c #FEFFFF",
"gX c #F3F3F3",
"hX c gray92",
/* pixels */
"                                                                                                                                                                ",
"                                                          . . . . . . . . . . . . . . . . . . . . . .                                                           ",
"                                                        G.. O . . . . . . . . . . . . . . . . . . O .                                                           ",
"                                                        &.. @ X . . . . . . X X X X . . . X X @ X X . }.                                                        ",
"                                            8 & = & = % t ] ! W . . . . . . u } ( u . . @ ! ( ! ( ! ( t & o F                                                   ",
"                                            & . . . . . r { ` Q . . . . . . E | | u . . : / ` [ ) ) | r . . S                                                   ",
"                                            % . . . . . r { { Q . . . . . . u ` { E . . @ ] [ [ ) ) { r . . G                                                   ",
"                                      A S D E W E W E W i e < r W W W W W W ! ) ) ! E W E e e e ! ) ` r . . * S S S S S D D S q                                 ",
"                                      . . . ( | ` ` ` | u . . : [ ` { ` ` { ) ) ) [ ` | ! . . . Q ` { r . . . . . . . . . . . . I                               ",
"                                      . . X ! ) / ` ` | u . . ; } ) ) ) ) / ) ) ) ) ) ) ! X . . Q ` { y . . . . . . . . . . O . U                               ",
"                                    Y r r i ( ) ) W u u i r r u ' ) ) ) ) ) ) ) ) ) ) ) Q X . . Q ) ` R N B B B B N B N B $ . . U                               ",
"                                . . : | { { ) ) { > . . r | ` ` ) ) ) ) ) ) ) ) ) ) / ` ! X . . Q [ ) Z./.~.~.~.~.~.!.!.^.v . . {.                              ",
"                                . . < ] ) / ) / [ e . . r ` / ) ) ) ) ) / ) ) ) ) ) _ _ ! X . . Q _ ^ Z.T.R.L.L.R.W.Y.Y.!.7 . . U                               ",
"                              I . . > [ ) ) ) ) [ e . . r | / ) ) ) ) ) ) ) ) ) ' ] O.O.o.7 7 7 ..O.O.Z.Y.W.L.L.W.R.A.m.m.Z q 8                                 ",
"                              I . . > ) ) / ) ) [ e . . r { ) ) ) ) ) ) ) ) ) ' _ %.R.E.E.R.W.W.E.E.E.W.W.W.Q.W.Y.J.$ . .                                       ",
"                              {.. . > [ ) _ ) ) { e . . r ` / ) ) ) ) ) ) ) ) ) _ %.Y.W.U.W.W.W.Q.U.U.U.Q.U.W.U.Y.J.$ . .                                       ",
"                              {.. . < } ( } ( ( } e . . t { } ' ] } [ } } ( ( } / %.L.E.E.R.R.R.E.Q.E.E.L.R.R.R.R.J.$ . .                                       ",
"                                      @ ; ; ; ; ; X . . d u.y.y.y.y.y.< @ ; ; ; : - 5 5 5 5 5 5 3.:XOXF $ 7 5 5 5 % . . .                                       ",
"                                      . . . . . . . O . d 4Xq.e.e.e.q.# . . . . . . . . . . . . $.r.4Xh . . . . . . . . .                                       ",
"                                      . . . . . . . . . d >X0.w.w.t.8., . . . . . . . . . . . . =.e.r.h . . . . . . . . .                                       ",
"                                S P A . . . . . . l #.+.5.4X4X4Xu.4X3X, . . . . . 2 #.+.@.X.X.X.8.t.3Xj . . . . . . . . . D P G                                 ",
"                              I . . . . . O . . . =.eXqX0X5X5X6X5X5X3X, . X . O . j eXqX0X-X-X-Xw.t.u.h . O . . . . . O X . . . U                               ",
"                              U . O . . . . . . . $.9X4X5X5X5X5XqXwX6X& . . . . . p qX4X5Xr.-X-Xw.q.r.s . . . . . . . . . . o . 3.                              ",
"                              U . . # p p p O . . $.qX5X5X5X6Xr.#.#.@.j s d d d p +.9X6Xr.+.X.X.0.u.4X@.p h 9 . . O p p p + . . Z.                              ",
"                              I . . 0 4Xr.e.# . . $.9X5X5X4X9X4.. . . w.eXqXwX9XqX9X4X0X8.. . . 4.9X5X6X9XeX=.. . + q.4X3X0 . . |.                              ",
"                              U . . 0 e.t.9.o . . $.9X5X5X5X9X4.. . X 8.5X4X5X5X5X5X5X6X8.O . . 4.9X5X5X4X9X$.. . o 9.t.e.0 . . I                               ",
"                              {.. . 0 -Xe.8.1 = # =.9X5X5X5X0X4.. . X 8.9X5X5X5X5X5X5X6X8.X . . 4.9X5X5X5X9X=.# , 1 8.t.3X1 . . I                               ",
"                              U . . 0 e.t.e.u.4X4X5X5X5X5X5X0X4.. . X 8.6X5X5X5X5X5X5X9X8.X . . 4.9X5X5X5X5X5X4Xu.3Xe.q.e.0 . . U                               ",
"                              {.. . 0 -X0.w.5X5X5X5X5X5X5X5X9X4.. . X 8.9X5X5X5X6X5X5X6X8.O . . 4.9X5X5X5X5X6X6X5X5Xe.t.-X0 . . I                               ",
"                              U . . 1 -Xe.e.5X5X5X5X5X5X5X5X9X4.. . . 8.6X5X5X5X5X5X5X9X8.. . . 4.qX5X5X5X5X5X5X5X5Xe.e.3X3 . . I                               ",
"                                    XX, , 0 0.r.e.4X5X5X5X5X6X>X4.5.4.4X6X5X5X5X5X5X5X6Xu.4.4.5.3X6X5X5X5X6X4Xe.r.8.2 , ,                                       ",
"                                      . . O 4.w.0.4X5X5X5X5X5X6X9X0X0X6X5X5X5X5X5X5X5X5X6XqX9X9X5X5X5X5X5X6Xu.t.w.4.O . .                                       ",
"                                      . . . 8.4X3X6X5X4X5X5X5X5X5X5X5X5X5X5X5X5X5X5X5X5X5X5X4X5X5X5X5X5X6X5X5X3X4Xq.. . .                                       ",
"                                      I }.|.H l j 4.rX,X8X8X8X,X5X5X5X5X5X5X5X5X5X6X5X6X5X5X5X6X,X,X8X8X,X2X4.j j H U {.|.                                      ",
"                                            % . . *.tX1X<X<X<X,X5X5X5X5X5X4X5X5Xu.5X4X5X5X5X5X6X,X<X<X<X1X2X*.. . %                                             ",
"                                            o . . *.tXtX2X<X<X,X5X5X6X9XqXqX9XqXqXqXqXqX0X5X5X6X,X,X<X2XtXtX*.. . o                                             ",
"                                            F A A +.*.*.:X<X<X,X5X5X5X;.-.=.=.-.=.=.=.-.;.5X5X5X,X<X<X:X*.*.+.A A F                                             ",
"                                                  S . . g tX1X,X5X6Xu.# . . . . . . . . # 5X5X6X,X1XtXH . . S                                                   ",
"                                                  S . . H tX<X,X6X5X4X, . . . . . . . . = 4X5X5X<X<XtXH . . D                                                   ",
"                                                  F O $ H 1X;X1X5X5X4X1 X + + + + + + o 1 4X5X5X;X;X1XH o O F                                                   ",
"                                                    dXgX|.X X 0 e.e.w.e.r.e.r.r.r.r.r.r.e.w.w.e.0 o . }.fX                                                      ",
"                                                        |.. . , q.w.t.5X6X5X6X6X6X6X5X6X5Xw.t.w., . . XX                                                        ",
"                                                    gXfX}.. . , 3Xr.r.7X7XqX7X5X5X5X9X9X6Xe.-X3X, . . XXfXfX                                                    ",
"                                                  I q A C n.n.k.9 2 9 a a 2 $.3X3X$.2 a a 9 9 9 k.n.m.C D q U                                                   ",
"                                                fXf . . N ^.~.A.. . . . . . X.3X-XJ . . . . . . D./.^.N . . A                                                   ",
"                                                fXD . . b T.T.n.. . . . . . X.u.u.X.. . . . . . n.T.T.b . . S fX                                                ",
"                                            }.U G.J l l Y aXuXG.B B V B V N M.=X=XM.N B V B V B G.aXaXY l l J }.|. X                                            ",
"                                            o . . 5.eX7Xg.1.2.h.~.~.~.~.~.~.Q.U.L.!.~.~.~.~.~.~.h.2.1.g.qXeX-.. . O                                             ",
"                                            & . . =.wX5Xg.,.,.f.K.P.I.P.P.P.P.P.P.P.P.P.P.I.I.K.f.,.,.g.>X0X$.. . *                                             ",
"                                          &Xa 1 , &.yX@Xf.,.,.i._._._._._._._._._._._._._._._._.i.2.,.f.$XyX&.1 1 9 sX                                          ",
"                                      . . X e.9X7X).K.P.+X1.,.>.p.p.p.p.p.p.p.p.p.p.p.p.p.p.p.p.,.,.,.+XI.L.).9XqXe.o . .                                       ",
"                                      . . o w.6X6X).T.T.#X>.,.>.>.>.,.>.>.>.>.>.>.>.>.>.>.>.>.>.,.,.2.+XT.T.).5X6Xe.o . .                                       ",
"                                      . O + w.6X6X).K.K.G.p.a.a.s.s.a.a.a.a.a.a.s.s.a.a.p.p.a.a.s.s.p.G.L.K.).5X6Xe.+ O .                                       ",
"                                & * f e.8.0.5X5X6Xk 4 $ C '._.E.`.`.`.`.`.`.`.`.`.`.`.`.E.(.`.`._.E.'.C $ $ A 9X5X4X0.8.q.d * &                                 ",
"                              I . . 2 wX0X6X5X5XqXa . . N /.U.U.U.U.U.U.U.U.U.U.P.U.U.U.U.U.U.P.U.U.Y.N . . p qX4X5X6X6XqX0 . . U                               ",
"                              {.. . 9 9X4X5X5X5XqXf . . N Y.K.U.U.L.I.U.U.P.W.Q.Q.Q.Q.Q.Q.Q.Q.Q.Q.R.~.B . . f qX5X5X9X9XeX0 . . I                               ",
"                              G.. . 9 9X5X5X5X4XqXp . . k pXiXiXiXiXiXiXiXpXH.S.S.S.S.S.S.S.S.S.S.S.S.v . . f qX5Xr.l s p 3.  }.                                ",
"                              &.. . 9 6X5X4X5X4X7Xp . . z 1.>.>.>.>.>.>.>.1.&.c.V.x.V.x.x.V.V.x.z.V.F.x . . a 7X5Xw.. . .                                       ",
"                              I . . 1 eX9XwXwXwXeXp . . z d.>.<.1.<.<.<.>.1.G.c.N.v.v.v.x.v.v.v.F.B.F.v . . p eXwX4X. . .                                       ",
"                                F L K @.@.+.@.+.#.q x c L 7.6.6.6.6.6.6.6.6.Z.c.N.v.v.v.x.v.v.N.n m n 7 . . 0 #.#.+.K L F                                       ",
"                                      . . . . . . n F.F.x.z.z.z.z.z.z.z.z.z.x.x.x.x.v.v.v.x.x.x.4 . . . . . . . . %                                             ",
"                                      . . . . . . n b.x.x.N.v.N.N.v.N.N.x.N.N.b.B.N.v.x.v.B.b.x.4 . . . . . . . . =                                             ",
"                                      * 8 8 . . . n B.v.v.v.v.v.v.v.v.v.v.v.l.j.j.l.b.x.x.j.l.j.w * * * * * * & & 8                                             ",
"                                            * . . n B.x.v.v.v.v.x.v.v.v.v.B.x . . x B.b.j.O . .  XsX&X*X&X*X%XXX X|.o O .                                       ",
"                                            * . . n F.x.x.x.v.v.v.v.v.v.x.F.x . . x B.N.j.. . . .XdX*X*X*XsX&X X.X}.O . .                                       ",
"                                            = . . n B.V.x.x.v.v.v.v.v.v.x.v.x . . x N.N.j.O . .  XdX*X*X*X*X&X X.X}.o . .                                       ",
"                                                  G $ 6 4 6 4 x N.x.N.N.x.B.x . . O 6 4 w  X X X.X$X.X$X$X$X.X X.X}.O . .                                       ",
"                                                  S . . . . . 4 V.x.V.N.x.b.x . . . . . & *XdXdX$X X X X X X X X.X}.O . .                                       ",
"                                                  S . O . . . 4 x.b.b.B.B.F.x . . . . . * *X*X*X$X X.X.X X X.X X.X}.O . .                                       ",
"                                                  G . . > u u u  . . .v v v 4 . . . . . * &X*X*X$X X X X.X.X.X X.X}.O . .                                       ",
"                                                  S . . i | { { _ _ ) ; . . . O O . . . * &XsX*X$X X X.X X.X X X.X}.o . .                                       ",
"                                                  S . . y _ ^ ) { ` ) ; . . . . . . . . * *XsX*X$X X.X X.X X.X$X$X X. . .                                       ",
"                                                  T v v J :.:.:.W W E @ . . 8 S F w . . * %X&X&X.X.X X.X X.X}.P P P S D D                                       ",
"                                            o . . C.[.].        . . . . O .         . . * oX X X X X X X X$XP . . &                                             ",
"                                            = . . _.].].        . . . . . .         . . %  X$X.X$X.X.X.X.X$XP . . =                                             ",
"                                            8 & + M.].(.        . . . & * O         O & 8 |.}.}.}.}.}.}.}. XP & & 8                                             ",
"                                                  G . o o & % o . . O                     + O o O o o o o . S                                                   ",
"                                                  G . . . . . . . . O                     O . . . . . . . . S                                                   ",
"                                                  S . . . . . . . . .                     . . . . . . . . . D                                                   ",
"                                                                                                                                                                "
};
