/* XPM */
static char *_9fc14feede14ff0a3601bbac6bf243en3uGoOrJ3Nf6lhJ8[] = {
/* columns rows colors chars-per-pixel */
"80 80 238 2 ",
"   c #000000",
".  c #0A0404",
"X  c #0A0A0A",
"o  c #090709",
"O  c #130D0B",
"+  c #180706",
"@  c #1B110E",
"#  c #050B17",
"$  c #0C1215",
"%  c #131314",
"&  c #1B1B1B",
"*  c #1B1714",
"=  c #160D13",
"-  c #230809",
";  c #290706",
":  c #3A0E0D",
">  c #281B16",
",  c #3B1413",
"<  c #33231D",
"1  c #3A271F",
"2  c #2D201A",
"3  c #0A0D23",
"4  c #071626",
"5  c #0B1428",
"6  c #0F1D30",
"7  c #282828",
"8  c #392621",
"9  c #3A2822",
"0  c #39393A",
"q  c #272834",
"w  c #430F0F",
"e  c #5C1516",
"r  c #581A19",
"t  c #590E0B",
"y  c #761C1C",
"u  c #681919",
"i  c #4B342A",
"p  c #473329",
"a  c #563B2F",
"s  c #573B31",
"d  c #47352D",
"f  c #683032",
"g  c #5E4236",
"h  c #494E3D",
"j  c #67483B",
"k  c #72681C",
"l  c #181E45",
"z  c #0F1543",
"x  c #19294E",
"c  c #0A3C69",
"v  c #2D387A",
"b  c #262F6B",
"n  c #362E4E",
"m  c #0D416B",
"M  c #13436B",
"N  c #134571",
"B  c #2B5471",
"V  c #304458",
"C  c #454544",
"Z  c #4B4B4B",
"A  c #4A4645",
"S  c #575756",
"D  c #4C4D55",
"F  c #70504B",
"G  c #68615D",
"H  c #676767",
"J  c #7B7B7B",
"K  c #747474",
"L  c #7A7768",
"P  c #545D64",
"I  c #653951",
"U  c #8C2424",
"Y  c #922524",
"T  c #B82B2A",
"R  c #A82828",
"E  c #8F201F",
"W  c #D3231E",
"Q  c #CC2E2D",
"!  c #C72D2C",
"~  c #D22E2D",
"^  c #D92C28",
"/  c #DB302F",
"(  c #D1312F",
")  c #C93334",
"_  c #D53232",
"`  c #DC3231",
"'  c #CD312F",
"]  c #E53433",
"[  c #8F3E6A",
"{  c #863F53",
"}  c #865D4A",
"|  c #8E4055",
" . c #AD4559",
".. c #8D6452",
"X. c #936A56",
"o. c #956B58",
"O. c #A4745D",
"+. c #917170",
"@. c #A87964",
"#. c #AB736E",
"$. c #8C5578",
"%. c #D46B6A",
"&. c #FFEB36",
"*. c #FDEB3B",
"=. c #FFF238",
"-. c #FFF436",
";. c #FFF32F",
":. c #8A857E",
">. c #BB866C",
",. c #B6836A",
"<. c #B5B16D",
"1. c #B6B26E",
"2. c #C88F74",
"3. c #C38A73",
"4. c #CC9175",
"5. c #CE967A",
"6. c #D39679",
"7. c #D59A7C",
"8. c #DB9C7E",
"9. c #D29477",
"0. c #D3856E",
"q. c #E59B79",
"w. c #DADD5C",
"e. c #FAEC46",
"r. c #F2E84B",
"t. c #F0E74B",
"y. c #FFFF40",
"u. c #D2CE6F",
"i. c #FAC964",
"p. c #D9E165",
"a. c #334A95",
"s. c #3C4BA9",
"d. c #3548B3",
"f. c #3D4EB2",
"g. c #3345B5",
"h. c #3E50B4",
"j. c #3A51B9",
"k. c #1F70B3",
"l. c #2171B4",
"z. c #52789C",
"x. c #4052B5",
"c. c #4154BB",
"v. c #414FAF",
"b. c #517AAB",
"n. c #6F6D9B",
"m. c #1772C1",
"M. c #326ACB",
"N. c #2974CC",
"B. c #475BC6",
"V. c #75AB99",
"C. c #63A5B1",
"Z. c #2286D7",
"A. c #1A8DEA",
"S. c #1E93EE",
"D. c #168FF5",
"F. c #1A8DF2",
"G. c #1B93F5",
"H. c #1997FC",
"J. c #2392EB",
"K. c #2792E9",
"L. c #2195F2",
"P. c #2398F4",
"I. c #269EFB",
"U. c #26A1FE",
"Y. c #29A5FF",
"T. c #1CA5FF",
"R. c #469ED3",
"E. c #6499C9",
"W. c #54A7C2",
"Q. c #41A0D2",
"!. c #46A9DC",
"~. c #5EAFF1",
"^. c #6FC5FF",
"/. c #848484",
"(. c #8B8B8B",
"). c #8A8986",
"_. c #959595",
"`. c #9A9A9A",
"'. c #989492",
"]. c #8F9090",
"[. c #B49E96",
"{. c #84B99C",
"}. c #B69EA5",
"|. c #83BCA0",
" X c #A2A2A2",
".X c #ACACAC",
"XX c #ACA4A4",
"oX c #B4B4B4",
"OX c #BBBBBB",
"+X c #B0AEAD",
"@X c #869AB5",
"#X c #DB9E81",
"$X c #DE948C",
"%X c #D08788",
"&X c #EB9E88",
"*X c #ED9999",
"=X c #EB9996",
"-X c #F29D9B",
";X c #DFA081",
":X c #E3A282",
">X c #EBA685",
",X c #EEA886",
"<X c #EDA78C",
"1X c #F4AD8B",
"2X c #F6AC87",
"3X c #F6B08E",
"4X c #F9B18E",
"5X c #FEB996",
"6X c #F1A592",
"7X c #FBA5A5",
"8X c #D6A8A6",
"9X c #8CC09E",
"0X c #ACCC82",
"qX c #B5D688",
"wX c #89C2A2",
"eX c #C1C0BE",
"rX c #ACCDE6",
"tX c #C3C3C3",
"yX c #CACBCB",
"uX c #D8D8D8",
"iX c #CFD0D1",
"pX c #E4E4E4",
"aX c gray93",
"sX c #ECECEC",
"dX c #EEEEEE",
"fX c #EFEFEF",
"gX c #EDEEEE",
"hX c #EDEDED",
"jX c #F3F3F3",
"kX c #FDFDFD",
"lX c gray99",
"zX c #FEFEFE",
"xX c white",
"cX c #FEFFFF",
"vX c #FEFEFE",
"bX c #FDFDFD",
"nX c #F8F8F7",
"mX c #EFEFF0",
/* pixels */
"zXzXzXzXzXaXaXaXaXaXzXzXzXzXzXaXaXaXaXaXzXzXzXzXzXaXaXjXiXXXOXoXOXOXoX.X.X.X.X.XOXoXOXOXoX.X.X.X.X.XoXuXzXzXzXaXaXaXaXaXzXzXzXzXzXaXaXaXaXaXzXzXzXzXzXaXaXaXaXaX",
"zXzXzXzXzXaXaXaXaXaXzXzXzXzXzXaXaXaXaXaXzXzXzXzXnXaXpXzX/.                                            ].zXnXzXaXaXaXaXaXzXzXzXzXzXaXaXaXaXaXzXzXzXzXzXaXaXaXaXaX",
"zXzXzXzXzXaXaXaXaXaXzXzXzXzXzXaXaXaXaXaXzXzXzXzXzXjXaXzXV.  .                                         _.zXzXzXfXaXaXaXaXzXzXzXzXzXaXaXaXaXjXzXzXzXzXzXaXaXaXaXaX",
"zXzXzXzXzXaXaXaXaXaXzXzXzXzXzXaXaXaXaXaXzXzXjXaXaXpXuXaX+.  + .               + . .       . + . . +   ).zXsXjXfXaXaXsXaXzXzXzXzXzXaXaXaXaXaXnXzXzXzXzXaXaXaXaXaX",
"zXzXzXzXzXaXaXaXaXaXzXzXzXzXzXaXaXaXaXmXzXaX7 % & % % $ r ) T Y             y ) ! y     + T ! T T ! ! r % X S lXaXaXaXmXzXzXnXzXzXaXaXaXaXaXzXzXzXzXzXaXaXaXaXaX",
"aXaXaXaXaXzXzXzXzXzXaXaXaXaXaXzXzXzXzXnXmXpX%           e ` / R             E / ` U     - Q / ~ ~ ~ ] e     A zXnXnXzXlXaXsXaXaXaXzXzXzXzXzXaXaXaXaXaXzXzXzXzXzX",
"aXaXaXaXaXzXzXzXzXzXaXaXaXaXaXzXzXzXzXzXzXsX%           e ] ` R             y ` ` y     + _ _ _ _ Q ` e     D zXzXzXzXzXnXnXnXnXjXzXzXzXzXzXmXaXaXaXaXzXzXzXzXzX",
"aXaXaXaXaXzXzXzXzXzXaXaXaXaXaXzXzXzXiXC A A U U Y Y Y Y u w : r Y Y Y Y Y Y T ~ ~ T Y U U w w w T ~ ` e     * D Z Z Z Z C C Z 0 `.zXnXzXzXzXaXaXaXaXaXzXzXzXzXzX",
"aXaXaXaXaXzXzXzXzXzXaXaXaXaXaXzXnXzXOX      ! ] / / / ] y     - ` ` ` ` ` / / ~ ~ ~ / ] T       R ~ ` e   .                     K zXnXzXzXzXaXaXaXaXaXzXzXzXzXzX",
"aXaXaXaXaXzXzXzXzXzXaXaXaXaXaXzXzXzXyX    . T ~ Q / / ] y     - ! ~ Q ~ Q ~ ~ ~ ~ Q Q / R .   . R / ` t                     o   J zXnXzXzXzXaXaXaXaXaXzXzXzXzXzX",
"zXzXzXzXzXaXaXaXaXaXzXzXzXzXzXOXJ (.L e e u ! ~ ~ Y y y u e e y ~ ~ ~ ~ ~ ~ ~ Q ~ ~ ~ ~ T       R ~ / I m M m M M M m m M #     J zXaXaXaXaXzXzXzXzXzXaXaXaXaXaX",
"zXzXzXzXzXaXaXaXsXaXzXzXzXnXzXK     ; ] ` ` ~ ~ ` :     e ] / / ~ ~ ~ ~ ~ ~ ~ ~ ~ ~ Q / T .     R _ ~ n.T.I.U.U.I.I.I.I.Y.x     J zXsXaXsXaXzXzXzXzXzXaXaXaXaXaX",
"zXzXzXzXzXaXaXaXaXaXzXzXzXlXzXJ     , ) ~ Q ~ Q _ w     e ` Q ~ ~ ~ ~ ~ ~ ~ ~ ~ ~ ~ ^ ^ T .     R ^ W n.H.J.S.S.G.P.P.H.I.6 o   J zXsXaXaXaXzXzXzXzXzXaXaXaXaXaX",
"zXzXzXzXzXaXaXaXaXaXlXzXzXnXzXJ     : _ ~ ~ ~ ~ _ w     e ` ~ ~ ~ ~ ~ ~ ~ ~ ~ ~ ~ )  . .| 6 6 6 {  . .n.H.P.S.P.P.J.m.l.l.V q 7 _.zXpXaXaXaXzXzXzXzXzXaXaXaXaXaX",
"zXzXzXzXzXaXaXaXaXmXzXzXlXnXzXJ     : ~ ~ Q ~ ~ _ w     e ` Q ~ ~ ~ ~ ~ Q ~ ~ _ ^ $.L.K.K.J.L.L.K.K.K.L.J.G.P.G.P.Z.#     eXzXzXzXaXaXaXaXjXnXzXzXzXzXaXaXaXaXaX",
"aXaXaXaXaXlXzXlXzXzXmXaXaXsXzXJ     : _ ~ ^ ~ ~ ` w     e / ~ ~ ~ ~ ~ ~ ~ ~ ~ ~ ^ $.H.L.L.L.L.L.P.G.G.L.P.G.L.P.H.Z.#     oXlXsXaXzXzXzXzXnXjXaXaXaXaXzXzXzXzXzX",
"aXaXaXaXaXzXzXzXzXzXaXaXaXpXzXJ   o : ' Q ! ' ! ) w     e ` ' ( ( ~ ) ' ) ' ! ' Q $.S.K.K.J.J.J.K.P.P.K.S.J.J.J.J.Z.#     oXnXsXaXzXzXzXzXzXaXaXaXaXaXzXzXzXzXzX",
"aXaXaXaXaXzXzXzXzXzXaXaXaXaXjXsXiXpXXX+ - - - - - .     s q.0.0.0.0.0., + - - - ; = 4 4 4 4 4 4 :.%X[.S # 6 4 4 4 $       oXjXsXaXzXzXzXzXzXaXaXaXaXaXzXzXzXzXzX",
"aXaXaXaXaXzXzXzXzXzXaXsXaXaXaXzXzXzXtX              .   j &X4.6.7.7.5.@                         @.8.q.g                   .XjXpXaXzXzXzXzXzXaXaXaXaXaXzXzXzXzXzX",
"aXaXmXaXaXzXzXzXzXzXaXaXaXmXjXzXzXzXyX                  a #X4.6.9.6.2.>                         O.6.8.j                   tXzXzXjXnXzXzXzXzXaXaXaXaXaXzXzXzXzXzX",
"zXzXzXzXzXaXaXaXaXmXzXzXzXzXzX XZ H C             j o...,.>X8.&X8.:X8.>           8 o.X.X.} } } 2.9.:Xg                   A H S .XzXaXaXaXaXzXzXzXzXzXaXaXaXaXaX",
"zXzXzXzXzXaXaXaXaXaXzXzXzXnXzXK         .         @.5X3X2X>X,X>X,X,X8.>   .   .   g 5X1X1X8.#X#X6.9.8.g   o             .       K zXsXsXaXaXlXzXzXzXzXaXaXaXaXaX",
"zXzXzXzXzXaXaXaXaXaXzXzXzXnXzXJ   o               O.1X:X:X>X>X,X3X4X1X@           i 3X:X>X8.#X#X6.4.8.a                     o   /.zXsXaXaXaXzXzXzXzXzXaXaXaXaXaX",
"zXzXzXzXzXaXaXaXaXaXzXzXzXlXzXJ     O a i i o     O.4X>X>X>X>X8.o.X.X.g a s s s i ..1X,X#X} ..} 9.q.:XX.i g 9     . p i a O     J zXpXaXaXmXzXzXzXzXzXaXaXaXaXaX",
"zXzXzXnXzXaXaXaXaXaXzXzXzXnXzXJ     8 :X8.6.@     @.1X:X>X>X1X>.      6.5X3X3X3X3X1X>X1X2.      >.1X>X,X3X5X@.    @ 6.8.:X9     J zXsXaXaXjXnXzXzXzXzXaXaXaXaXaX",
"aXaXmXaXaXzXzXzXzXzXaXaXaXsXzXJ     8 7.6.3.X     O.4X:X>X>X1X>.    . 2.,X:X>X>X:X>X>X,X2..     >.1X>X>X:X1XO.    o 3.6.7.9     J zXnXzXzXnXjXaXaXaXaXzXzXzXzXzX",
"aXaXaXaXaXzXzXzXzXzXaXaXaXpXzX/.    8 #X6.4.< * @ @.1X>X>X>X1X>.    . 3.,X>X>X>X>X>X>X2X2..     >.1X>X>X:X3X@.@ * < 3.6.#X<     K zXnXzXzXzXaXaXaXaXaXzXzXzXzXzX",
"aXaXaXaXaXzXzXzXzXzXaXaXaXsXzXJ     8 7.6.6.8.:X:X>X>X>X>X>X1X>.    . 4.2X>X>X>X>X>X>X,X2..     >.1X>X>X>X,X>X:X:X:X6.9.7.8     J zXlXzXzXzXaXaXaXaXaXzXzXzXzXzX",
"aXaXaXaXaXzXzXzXzXzXaXaXaXsXzXJ     8 7.5.6.>X,X>X>X>X>X,X>X1X>.      4.,X:X,X>X,X>X>X2X2..     >.1X>X>X>X>X>X,X>X>X6.6.#X8     K zXzXzXzXzXaXsXaXaXaXzXzXzXzXzX",
"aXaXaXaXaXzXzXzXzXzXaXaXaXsXzXJ     8 ;X6.7.>X>X>X>X>X>X>X>X1X>.    . 2.1X>X>X>X>X>X>X2X2.      >.3X>X>X>X>X>X>X>X>X7.7.;X2     J zXnXzXzXzXaXaXaXaXaXzXzXzXzXzX",
"zXzXzXzXzXaXaXaXaXaXzXzXnXzXzXuXoXtX'.> > 8 2.8.8.:X,X>X>X>X>X:X>.,.>.:X,X>X>X>X>X>X>X,X:X>.>.>.;X,X>X>X>X>X:X7.8.2.1 > >  XiXtXpXjXaXaXaXaXzXzXzXzXzXaXaXaXaXaX",
"zXzXzXzXzXaXaXaXsXaXzXzXzXzXzXjXjXzXOX    o >.6.4.q.,X>X>X>X>X>X1X1X1X>X>X>X,X>X>X>X>X>X>X1X1X1X>X>X>X>X>X>X&X9.6.>..     yXzXzXzXaXaXaXaXaXzXzXzXzXzXaXaXaXaXaX",
"zXzXzXzXzXaXaXaXaXaXzXzXzXzXzXaXsXnX.X      2.:X#X>X>X>X>X<X>X>X:X>X>X>X>X>X,X>X>X>X>X>X>X>X>X>X>X,X>X>X>X>X>X&X:X2.      OXzXnXzXaXaXaXaXaXzXzXzXzXzXaXaXaXaXaX",
"zXzXzXzXzXaXaXaXaXaXzXzXzXzXzXaXsXjXiXJ (./.F j s 3.6X=X<X&X&X6X>X>X>X>X>X>X>X>X>X>X>X>X>X>X>X>X&X=X6X<X=X-X3.s g F J /./.pXzXzXzXaXaXaXaXaXzXzXzXzXzXaXaXaXaXaX",
"zXzXzXzXzXaXaXaXaXjXnXzXzXzXzXaXaXaXjXzXzXzX$     +.7X*X*X*X*X-X,X>X>X:X>X:X>X:X>X:X:X>X>X>X>X>X=X*X*X*X*X-X+.    $ jXzXzXzXzXzXzXaXaXaXaXaXzXzXzXzXzXaXaXmXaXaX",
"aXaXaXaXaXzXzXzXzXnXjXaXaXaXaXlXlXzXzXnXjXuXX     #.7X-X-X*X=X=X>X>X,X4X4X2X4X4X4X1X4X1X4X>X>X>X=X*X*X-X7X7X#.    X sXlXsXaXaXaXaXzXzXzXzXzXaXaXaXaXaXzXnXzXzXzX",
"aXaXaXaXaXzXzXzXzXzXaXaXaXaXaXzXzXzXzXzXmXpXD h C ..#.#.%.-X8X=X>X>X>X@.@.@.@.@.@.@.@.@.@.>X>X>X=X=X-X%X#.#...C C S jXzXaXaXaXaXaXzXzXzXzXzXaXaXaXaXaXzXzXzXzXzX",
"aXaXaXaXaXzXzXzXzXzXaXaXaXaXaXzXzXzXzXzXmXsXnXjXlXZ   o I 7X*X=X,X,X:X@                 * >X,X>X=X=X-XI     Z zXzXzXzXzXaXaXaXaXaXzXzXzXzXzXaXaXaXaXaXzXzXzXzXzX",
"aXaXaXaXaXzXzXzXzXzXaXaXaXaXaXzXzXzXzXzXsXsXsXpXnXZ     g 7X*X6X>X>X:X>                 > :X>X>X-X-X7Xj     A zXnXzXzXzXaXaXaXsXaXzXzXzXzXzXaXaXaXaXaXzXzXzXzXzX",
"aXaXaXaXaXzXzXzXzXnXjXaXmXaXaXzXzXlXzXlXmXmXmXsXlXS . # F =X$X$X>X>X:X< . O O O O O O . < :X>X>X$X%X=XF o o S zXlXzXzXnXjXaXaXaXaXzXzXnXzXzXaXaXaXaXjXnXzXzXzXzX",
"zXzXzXzXzXaXaXaXaXmXzXzXzXnXzXaXaXaXaXjXlXzXlXzXlXpXuXsX/.. X 1 7.6.6.#X8.7.8.8.8.#X7.8.7.6.6.7.8 X . (.zXpXjXmXaXaXaXjXnXzXzXzXzXaXaXaXaXjXzXzXzXzXzXaXjXaXaXaX",
"zXzXzXzXzXaXaXaXaXaXzXzXzXzXzXaXaXaXaXaXzXzXzXzXlXdXsXlX/.    > 6.9.9.>X>X>X,X,X,X,X>X,X>X9.6.6.>     ].zXzXzXaXaXaXaXaXzXzXzXzXzXaXaXaXsXaXzXzXzXzXzXaXsXaXaXaX",
"zXzXzXzXzXaXaXaXaXaXzXzXzXzXzXaXaXaXaXaXzXzXzXzXlXnXjXlX(.    > #X8.#X,X1X1X,X>X>X,X1X1X,X#X#X;X>     '.zXzXzXaXaXaXaXaXzXzXzXzXzXaXaXaXaXaXzXzXzXzXzXaXaXaXaXaX",
"zXzXzXzXzXaXaXaXaXaXzXzXzXzXzXaXsXaXsXaXlXzXzXzXzXK 0 h B k.l.a.9 9 9 p p 9 O.:X;XO.1 p p 9 9 9 a.l.l.B Z 0 /.jXsXaXsXaXzXzXzXzXzXaXaXaXsXaXzXzXzXzXzXaXsXaXaXaX",
"zXzXzXzXzXaXaXaXaXaXzXzXzXzXzXaXaXaXaXjXlXzXnXnXlXC     m T.U.m.            } ;X#XF             m.T.Y.m     A nXpXsXaXjXzXzXzXzXzXaXaXaXaXaXlXzXzXzXnXjXaXaXaXaX",
"aXaXaXaXaXzXzXzXzXzXaXaXaXaXaXzXzXzXzXnXaXfXzXlXlXA     c H.H.k.            } q.q.}             l.H.H.m     Z zXzXzXzXzXaXaXaXaXaXzXzXzXzXzXaXaXaXaXjXnXzXzXzXzX",
"aXaXaXaXaXzXzXzXzXzXaXsXaXaXaXzXzXzXzXzXfXsX(.J V.F j j L wX9XV.M N N N N c z.@X@Xz.m N N N N M V.wXwXL j j G (.)._.jXzXaXsXaXaXaXzXzXzXzXzXaXaXaXsXaXzXzXzXzXzX",
"aXaXaXaXaXzXzXzXzXzXaXaXaXaXaXzXzXzXzXnXjXuXo     ,.5X6Xi.;.;.p.U.U.U.U.U.U.P.G.P.I.Y.U.U.I.U.I.p.;.-.i.3X5XO.    o aXzXsXaXaXaXaXzXzXzXzXzXaXaXaXaXaXzXzXzXzXzX",
"aXaXaXaXaXzXzXzXzXzXaXaXaXaXaXzXzXzXzXzXzXsX%     @.4X>Xi.*.&.u.A.D.D.D.D.G.D.D.G.D.D.D.D.D.F.A.p.*.*.i.&X2XO.    % lXzXnXaXsXsXaXzXzXzXzXzXaXaXaXaXaXzXzXzXzXzX",
"aXaXaXaXaXzXzXzXlXzXaXaXaXaXaXzXcXzXmXtXOXoXp < > +.8X}.u.*.*.w.W.W.W.W.W.W.W.W.W.W.W.W.W.W.W.W.w.*.*.u.XX8X+.2 2 d eXyXOXpXjXaXaXzXzXzXzXlXaXaXaXmXaXzXzXzXzXzX",
"zXzXzXzXzXaXaXaXaXaXzXzXnXzXzXaXpXcXoX    . 7.1X<XE.A.D.{.-.*.*.e.e.e.e.e.e.e.e.e.e.e.e.e.e.e.e.*.*.&.V.D.G.E.,X1X7..     OXzXnXzXaXaXaXaXaXzXzXzXzXzXaXaXaXaXaX",
"zXzXzXzXzXaXaXaXaXaXzXzXzXzXzXjXsXlXoX    X 6.,X>XE.H.H.|.&.*.&.&.&.&.&.&.*.&.*.&.&.&.&.&.&.*.*.*.*.;.wXD.H.E.>X1X5.o     tXzXzXzXaXaXaXsXaXzXzXzXzXzXaXaXaXaXaX",
"zXzXzXzXzXaXaXaXaXmXzXzXzXzXzXsXpXmX.X  . + 6.,X>XE.A.A.V.e.t.r.t.t.r.r.r.r.r.r.t.t.r.r.t.t.t.r.t.t.e.V.S.A.E.>X,X6.O .   OXcXjXnXmXaXaXaXaXzXzXzXzXzXaXaXaXaXaX",
"zXzXzXzXzXaXaXaXaXaXnXzXzXzXzX/.% & s 5.4.9.:X>X1Xh 3 # B !.W.K.Q.Q.Q.Q.Q.Q.Q.Q.Q.Q.Q.Q.R.R.R.Q.W.K.!.B # # h 3X>X>X4.4.5.s & % ].zXsXaXaXaXzXzXzXzXzXaXaXaXaXaX",
"zXzXzXzXzXaXaXaXaXjXzXzXzXjXzXK     1 3X,X1X>X>X1Xp     m T.G.G.G.G.G.G.G.G.G.G.G.G.G.D.F.G.F.F.G.D.H.m     i 3X>X>X<X>X3X9     J zXsXaXaXjXnXzXzXzXzXaXaXaXaXaX",
"aXaXaXaXaXzXzXzXzXnXjXaXaXsXzX/.    9 1X:X>X>X>X1Xd     m H.S.S.G.G.F.S.F.D.L.P.P.P.P.P.P.P.I.G.P.J.Y.M     d 3X>X>X1X1X5X<     K zXnXzXzXnXjXaXaXaXaXzXzXzXzXzX",
"aXaXaXaXaXzXzXzXzXzXaXaXaXpXzXJ     9 1X>X>X>X>X3Xi     h qX0X0X0X0X0X0X0XqXC.M.M.M.M.M.M.M.M.M.M.M.M.x     p 1X>X8.g a a :.`._.tXzXzXzXzXzXaXaXaXaXaXzXzXzXzXzX",
"aXaXaXaXaXzXzXzXzXzXaXaXaXsXzX/.    9 1X:X:X:X:X1Xi     k -.&.&.&.&.&.&.&.-.+.g.x.f.v.v.v.d.v.v.d.v.B.l     p <X>X5..     OXzXjXjXlXzXzXzXzXaXaXaXaXaXzXzXzXzXzX",
"aXaXaXaXaXzXzXzXzXzXaXaXsXsXzXK     < 5X4X4X4X1X5Xp     k y.;.=.-.-.-.*.-.-./.g.x.f.f.x.x.f.f.j.B.c.B.x     a 5X4X;X      .XjXsXsXzXzXzXzXzXaXaXaXsXaXzXzXzXzXzX",
"aXaXaXaXaXzXzXzXzXzXaXaXaXaXzX.XD H G X.X.X...X.o.n l z G 1.<.<.<.<.<.<.1.1.n.g.x.x.f.x.x.x.f.x.v b v 6     2 o.X...G P S yXjXsXjXnXzXzXzXzXaXaXaXaXaXzXzXzXzXzX",
"zXzXzXzXzXaXaXaXaXaXzXzXzXzXnXjXnXzXOX            B B.c.h.d.d.d.d.d.d.d.g.d.h.h.d.x.x.x.f.f.f.f.3       .         $ sXcXzXzXzXzXzXaXaXaXaXaXzXzXzXzXzXaXaXaXaXaX",
"zXzXzXzXzXaXaXaXaXaXzXzXzXzXzXaXpXnX+X            v c.d.h.h.h.x.h.x.x.h.j.j.x.j.c.x.x.d.h.h.c.f.3                 % pXnXzXzXzXzXzXaXaXaXaXaXzXzXzXzXzXaXsXaXaXaX",
"zXzXzXzXzXaXaXaXaXaXzXzXzXzXzXaXsXnXOX& 7 7       v c.x.h.h.h.h.h.h.h.h.h.x.s.a.a.s.f.x.f.a.s.a.q & & & & & & % % 7 eXiXuXjXzXzXzXaXaXaXaXaXzXzXzXzXzXaXaXaXaXaX",
"zXzXzXzXzXaXaXaXaXaXzXzXzXzXzXaXsXaXsXpXlXsX*     v B.v.h.h.h.h.h.h.h.h.h.c.l     l c.x.a.#     _.eXoXOXoXOX.X_.`./.X .   tXzXzXzXaXaXaXaXaXzXzXzXzXzXaXaXaXaXaX",
"zXzXzXzXzXaXaXaXaXaXzXzXzXzXzXaXaXaXaXjXzXjX&     v B.f.f.f.h.h.h.h.h.h.f.B.l     l c.x.a.o     `.tXOXOXOXOXoX_.`.(.o     eXzXnXzXaXaXaXaXaXcXnXzXzXlXaXaXmXaXaX",
"aXaXaXaXaXzXzXzXzXzXaXaXaXaXaXzXzXzXzXnXjXuX%     v c.v.f.f.h.h.h.f.h.h.f.x.l     l x.x.a.o     `.tXOXOXOXeXoX_.`.(.o     oXcXpXaXzXzXzXzXcXjXaXaXaXaXzXzXzXzXzX",
"aXaXaXaXaXzXzXzXzXzXaXaXaXaXaXzXzXzXzXzXjXsXtXOXyXD # 5 5 5 3 l v.f.x.x.f.B.l     o 5 3 q ].`.`. X X X X X X`.`.`.(.o     oXnXsXaXzXzXzXzXzXaXaXaXaXaXzXzXzXzXzX",
"aXaXaXaXaXzXzXzXzXzXaXaXaXaXaXzXzXzXzXzXaXaXjXjXzXZ           $ v.f.x.x.f.h.l           & OXtXtX`._._._._._._._.`.(.o     oXnXsXmXzXzXzXzXzXaXaXaXaXaXzXzXzXzXzX",
"aXaXaXaXaXzXzXzXzXzXaXaXaXaXaXzXzXzXzXzXaXsXsXsXnXZ   o       3 h.j.j.c.B.B.l           & oXOXOX`.`.`.`._.`.`._.`.(.o     oXnXsXaXzXzXzXzXzXaXsXaXaXaXzXzXzXzXzX",
"aXaXaXaXjXnXzXzXzXzXaXaXaXaXaXzXzXzXzXzXaXaXaXaXlXD     : y y y [ [ [ x l x 3           & OXeXOX X_._._.`._.`._.`.(.o     oXlXaXaXzXzXzXzXlXaXaXaXaXjXnXzXzXzXzX",
"zXzXzXzXnXjXaXaXaXaXzXzXzXzXzXaXaXaXaXmXzXzXnXnXzXZ     u ] ` ` ^ ^ Q -       .         & oXeXOX`.`._.`._.`._._.`.).X     eXzXnXzXaXaXaXaXaXzXzXzXzXnXjXaXaXaXaX",
"zXzXzXzXzXaXaXaXsXaXzXzXzXzXzXaXsXaXaXaXzXzXzXzXzXA     t ^ W Q ` ` ~ -             o   & OXeXOX X_.`._.`._.`. X X_.      OXzXnXzXaXaXaXaXaXzXzXzXzXzXaXaXaXaXaX",
"zXzXzXzXzXaXaXaXaXaXzXzXzXzXzXaXaXaXaXaXzXlXOXoXoXP x x G %.%.%.Y Y U +     7 Z S q     & .XoX+X`._.`._._.`.(.H K H C Z C uXzXzXzXaXaXaXaXaXzXzXzXzXzXaXaXaXaXaX",
"zXzXzXzXzXaXaXaXaXaXzXzXzXzXzXaXaXaXaXaXzXmXX     b.^.~.rXzXzXiX        .   `.zXlXXX    * _._._._.`._.`._. XH     % sXnXzXzXzXzXzXaXaXaXaXaXzXzXzXzXzXaXaXaXaXaX",
"zXzXzXzXzXaXaXaXaXaXzXzXzXzXzXaXaXaXaXfXzXfX%     b.^.~.rXzXzXiX            _.nXzX`.    $ _. X`.`.`.`.`.`. XH     % uXjXnXzXzXzXzXaXaXaXaXaXzXzXzXzXzXaXaXaXaXaX",
"aXaXaXaXaXzXzXzXzXzXaXaXaXaXaXlXzXzXzXnXjXpX7 % $ z.~.R.rXsXjXOX      % & o  XzXnX Xo % 7 (.(.(.(.(.(.(.(._.H % % 7 jXzXaXaXaXaXaXzXzXzXzXzXaXaXaXaXaXzXzXzXzXzX",
"aXaXaXaXaXzXzXzXzXzXaXaXaXaXaXzXzXzXzXzXfXsXpXuXsXD   $ # $ O X     . iXnXaXnXzXfXpXpXpXeX$ . o X o X X X   Z nXaXjXzXzXaXsXaXaXaXzXzXzXzXzXaXaXaXaXaXzXzXzXzXzX",
"aXaXaXaXaXzXzXzXzXzXaXaXaXaXaXzXzXzXzXzXaXaXaXaXzXZ                 o uXzXzXzXzXaXaXfXnXyX.                 Z zXzXzXzXzXaXaXaXaXaXzXzXzXzXzXaXaXaXaXaXzXzXzXzXzX",
"aXaXaXaXaXzXzXzXzXzXaXaXaXaXaXzXzXzXzXzXaXaXsXsXnXZ                   uXzXzXzXlXaXsXsXjXyX                  C zXnXzXzXzXaXaXaXaXaXzXzXzXzXzXaXaXaXaXaXzXzXzXzXzX",
"aXaXaXaXaXzXzXzXzXzXaXaXaXaXaXzXzXzXzXzXaXsXsXsXjXyXoXOXOXoX.X.X.X.X.XjXzXzXzXzXfXaXsXfXpXOXOXoXOXoX.X.X+X.XtXzXzXzXzXzXaXaXaXaXaXzXzXzXzXzXaXaXaXaXaXzXzXzXzXzX"
};
