/* XPM */
static char *e0627a76d61444e7d7c2460c0d8d75f8jpxdRsMtpgTs4wcl[] = {
/* columns rows colors chars-per-pixel */
"80 80 249 2 ",
"   c None",
".  c #020000",
"X  c #0B0303",
"o  c #0B0906",
"O  c #0D0A09",
"+  c #0B0509",
"@  c #120505",
"#  c #1C0708",
"$  c #140A0A",
"%  c #1B0C0C",
"&  c #160807",
"*  c #1B120D",
"=  c #13120C",
"-  c #1A0E11",
";  c #141212",
":  c #1E1211",
">  c #1C1C15",
",  c #0F1111",
"<  c #230A0C",
"1  c #2B0B0D",
"2  c #230608",
"3  c #25130C",
"4  c #340E11",
"5  c #3A0F12",
"6  c #221515",
"7  c #221D14",
"8  c #251919",
"9  c #2A1C1C",
"0  c #2C1411",
"q  c #3C1114",
"w  c #341113",
"e  c #31100E",
"r  c #24231A",
"t  c #2A241A",
"y  c #2B2B1C",
"u  c #242317",
"i  c #362A18",
"p  c #2D2C2B",
"a  c #2A2624",
"s  c #312B28",
"d  c #343422",
"f  c #393A26",
"g  c #3C3D2A",
"h  c #393626",
"j  c #343333",
"k  c #3B3A39",
"l  c #2F3131",
"z  c #25201B",
"x  c #431215",
"c  c #4B1619",
"v  c #53151A",
"b  c #57171C",
"n  c #450E13",
"m  c #65171E",
"M  c #47290C",
"N  c #50310F",
"B  c #6D3019",
"V  c #651C22",
"C  c #6A1C23",
"Z  c #791E26",
"A  c #771E26",
"S  c #413D2A",
"D  c #4D322F",
"F  c #7C2229",
"G  c #762328",
"H  c #6C2A2A",
"J  c #5E1F24",
"K  c #3D402C",
"L  c #3F4132",
"P  c #6F4913",
"I  c #43432C",
"U  c #47482F",
"Y  c #4B4C33",
"T  c #454637",
"R  c #4E5237",
"E  c #5B5C3E",
"W  c #55553A",
"Q  c #524E36",
"!  c #6E4B3A",
"~  c #6B723A",
"^  c #5C613C",
"/  c #434444",
"(  c #4A4946",
")  c #565748",
"_  c #5B5B5B",
"`  c #555654",
"'  c #504F4C",
"]  c #725747",
"[  c #5F624B",
"{  c #676946",
"}  c #6D724B",
"|  c #73774C",
" . c #6D7153",
".. c #767955",
"X. c #676852",
"o. c #5F6162",
"O. c #686867",
"+. c #777877",
"@. c #75766C",
"#. c #5E5F60",
"$. c #3F3F41",
"%. c #83232B",
"&. c #8C242D",
"*. c #82282F",
"=. c #94262D",
"-. c #8B2931",
";. c #982B34",
":. c #913336",
">. c #A52A35",
",. c #AA2E38",
"<. c #A9313B",
"1. c #BC303C",
"2. c #B3333C",
"3. c #AF2E37",
"4. c #841E26",
"5. c #C6313E",
"6. c #E63D3E",
"7. c #9C671B",
"8. c #AF711D",
"9. c #9D561E",
"0. c #F7483C",
"q. c #F97131",
"w. c #CD4C2D",
"e. c #BB3641",
"r. c #C83743",
"t. c #DC3847",
"y. c #D63A47",
"u. c #E33B49",
"i. c #E93B4A",
"p. c #F63F4F",
"a. c #FE3B4C",
"s. c #FC3F51",
"d. c #84655D",
"f. c #DA4A51",
"g. c #E7414F",
"h. c #F8434E",
"j. c #EA4352",
"k. c #FF4455",
"l. c #FF4658",
"z. c #FF4A5B",
"x. c #F64453",
"c. c #FF4E60",
"v. c #FF5364",
"b. c #E76D63",
"n. c #78813F",
"m. c #7C8548",
"M. c #7D8355",
"N. c #7E8459",
"B. c #7D816F",
"V. c #D08D24",
"C. c #F89627",
"Z. c #FDAF29",
"A. c #EA971E",
"S. c #848D4D",
"D. c #818A46",
"F. c #858B5C",
"G. c #838957",
"H. c #8C9454",
"J. c #8C945C",
"K. c #8D9658",
"L. c #929A5B",
"P. c #919958",
"I. c #89914E",
"U. c #868C63",
"Y. c #8D9362",
"T. c #8E9566",
"R. c #939A64",
"E. c #949A69",
"W. c #868A7A",
"Q. c #939875",
"!. c #8F9476",
"~. c #9BA365",
"^. c #9CA46B",
"/. c #9CA56D",
"(. c #9EA575",
"). c #A2AB6D",
"_. c #A1A76E",
"`. c #A4AC72",
"'. c #A3AA79",
"]. c #AAB275",
"[. c #ACB57A",
"{. c #AFB87B",
"}. c #A7B074",
"|. c #B2BB7D",
" X c #B0B77A",
".X c #B98165",
"XX c #CF8F71",
"oX c #F09379",
"OX c #DFA32B",
"+X c #7E8281",
"@X c #898A88",
"#X c #969998",
"$X c #93968A",
"%X c #9CA188",
"&X c #A4AB86",
"*X c #ABB388",
"=X c #B5BD82",
"-X c #B2BA8C",
";X c #A6AB98",
":X c #B5BD98",
">X c #AEB594",
",X c #9C9FA1",
"<X c #AAADAD",
"1X c #A4A7A5",
"2X c #B1B4B5",
"3X c #B3B9B9",
"4X c #B7BCB8",
"5X c #B1B6A9",
"6X c #A29FA0",
"7X c #F7AB88",
"8X c #B7C083",
"9X c #BAC385",
"0X c #BDC58A",
"qX c #BFC98C",
"wX c #BCC49A",
"eX c #BBC3A4",
"rX c #BEC5AA",
"tX c #BCC1BC",
"yX c #C1CB8C",
"uX c #C0C987",
"iX c #C4CD95",
"pX c #C6D190",
"aX c #C3CBAC",
"sX c #C1C8A9",
"dX c #CAD2AB",
"fX c #CCD4BA",
"gX c #CCD3B5",
"hX c #D9E2BF",
"jX c #BDC2C1",
"kX c #C5C8C7",
"lX c #D3DBC7",
"zX c #CED2D2",
"xX c #D6DBDA",
"cX c #CDD4C5",
"vX c #DBE3CB",
"bX c #DBE3D4",
"nX c #DEE5DA",
"mX c #E2E9DA",
"MX c #E9F1DA",
"NX c #DDE2E2",
"BX c #E6ECE8",
"VX c #ECF3ED",
"CX c #ECF3E3",
"ZX c #F1F8EE",
"AX c #EEF4F3",
"SX c #F3FAF4",
"DX c #F5FCFD",
"FX c #FDFFFF",
"GX c #F1F7F5",
/* pixels */
"                                                                                                                                                                ",
"                                                                                                                                                                ",
"                                s 9 8 8 9 9                                               9 8 6 8 6 8 6 8 9 9 a a                                               ",
"                              a 9 9 6 8 6 6 9 9                                         8 8 8 6 6 6 6 8 6 9 9 9 9 s                                             ",
"                            9 a 9 8 6 - - - ; -                                       - : % % & % % % % : : 8 9 w s                                             ",
"                            9 9 8 6 3 $ + @ @ ,                                       $ % & @ & @ o @ % : : 6 8 9 9                                             ",
"                            6 9 0 * 0 9 M N f N M                                     M N N N N c c v b c 9 6 6 8 9                                             ",
"                            6 6 6 < i P 8.V.V.8.N 3 $ : 8 6 8 6 8 8 8 9 8 8 8 8 3 < i P 8.8.8.8.9.5.1.e.<.J < * 6 8                                             ",
"                            6 6 3 3 M 7.Z.Z.Z.V.P $ + % 6 6 * 6 6 6 8 8 8 6 6 : : % w 7.A.Z.Z.C.q.h.k.z.f.G 6 $ 6 6                                             ",
"                            6 6 * 3 M 8.Z.Z.Z.V.P X . + o O O $ % * 6 6 6 6 : $ O X 3 P A.Z.Z.A.q.k.c.c.g.*.< $ : 6                                             ",
"                            6 6 * 2 i 7.OXZ.Z.V.P X . @ & & & # # : : : : : % $ & @ 3 9.V.A.C.C.q.k.x.k.y.G < % : 6                                             ",
"                            6 6 3 * e P 7.8.8.7.B V V V m m C C C b 0 # $ % q b m m m 9.q.q.q.q.w.,.>.;.-.v % $ : 6 6                                           ",
"                            6 6 6 % # e M M M B >.5.f.5.y.5.f.f.y.:.x $ X < V <.t.y.5.6.0.0.0.0.=.n 1 5 e < % % : 6 6 : 6 6 6                                   ",
"                            % % $ + X @ X X @ n 3.z.z.z.l.l.k.z.c.e.c @ X 1 A f.l.k.k.a.a.a.a.u.Z & . . X @ & $ $ $ $ % % : 6                                   ",
"                            . . . . . . X X @ n 3.x.z.z.l.z.z.c.c.e.c + X 1 F g.c.z.l.k.s.s.k.i.4.% . . X X @ X X X X X @ & &                                   ",
"                            > 8 z z > $ X X @ x ;.g.j.g.u.u.g.j.g.<.x O X 2 C e.j.g.g.u.i.i.j.r.G 1 . X & * 3 6 > : 8 9 a s s                                   ",
"                          9 _ d.@X@XO.$.$ X @ 1 b %.-.%.%.%.%.-.*.J w & $ < x C *.%.F %.F %.%.G x # X @ 6 I { { [ X.@.+X@X@Xd./ + . % : 6 6 :                   ",
"          8 8 8 6 % % @ @ a +XzXAXGXkXO.- . X # 2 1 < 1 # 2 2 < < < % $ $ % : < < 2 # # % 2 < 2 % & @ @ t } _.[.`.*XgXBXAXBX<X' X X % : 6 6 8 6 8               ",
"          $ $ $ $ X X . . > +XBXFXFXBX+.> . X @ X . . . . . . . . X & % % % o . . . . . . X . + X X X X t ..8XyX9XsXMXFXFXFXjX' . . @ $ $ % : : :               ",
"          X . . . . . . . > +XNXFXFXNX+.; . X @ X . . . . . . . X X $ % % $ $ + . . X X o @ @ & @ X X X t } [.8X|.iXmXFXFXFXjX/ . . X + & % : : 6               ",
"        p j k j j j j l l $.+X3XzXzX<X_ ; . X & 1 q q q 5 5 5 x 5 4 : $ $ % < w x x q 1 % @ & # 1 x x 5 J [ F.Y.J.Q.5XjXzXkX,X` t u t s D / ( ( D               ",
"6 : & 6 ` @X1X1X1X1X1X1X1X,X+Xo._ #.' s + X @ 4 G >.<.<.,.>.,.<.<.F 4 $ X < v -.<.e.<.V 1 X X 1 V ;.2.3.:.H I K g L ' ` ` ` #.X...| ..U.#X<X2X<X+.l . @ 6 8 8 9 ",
"6 : & 6 O.kXDXFXGXGXGXDXDXNX+Xa X X + o X X @ n <.j.l.x.x.s.x.l.x.<.c X . # C y.z.c.j.:.4 . X 4 -.u.l.l.y.G & . . o + o . + h M.].].[.iXmXFXFXBX#Xl X $ 6 8 8 8 ",
"6 : @ 1 O.zXFXFXFXFXFXFXFXAX@X; . . . . . . . 5 <.l.z.l.l.l.l.c.c.e.n . . @ C y.v.v.z.:.4 . . 4 =.x.z.l.t.m . . . . . . . . y G.|.8X-XgXZXFXFXFX1Xj . & 6 6 8 8 ",
": % @ : #.kXFXFXGXGXDXFXFXNX@X9 . . . X X . X x >.h.l.x.s.x.s.k.x.2.c X . & V r.x.c.j.:.4 . . 1 &.i.k.s.5.A # . . X @ @ X @ i ..`.}.'.5XmXFXFXVX#Xl . @ 6 6 6 6 ",
": % @ % / @X<X2X<X<X<X<X2X1XO.C v v v v b b b C -.,.2.3.3.3.3.3.,.:.D S K S H :.e.e.;.C < . . 1 %.i.k.a.6.=.m v b b b b b b H ] ..} } U.#X<X2X,XO.z @ @ 6 6 6 6 ",
": : & $ 8 k ( / k $.D $.k D :.2.5.5.5.5.5.r.r.<.G x 5 n x x x 5 q D ..Y.T.G.{ D q q w 1 $ . . 1 &.u.a.a.a.t.5.5.5.5.5.5.r.r.:.H y u t s j k L k a $ @ % : 6 6 6 ",
"6 : $ X @ + @ X . . . . . 2 F i.k.k.k.k.k.l.z.r.m X . . . . . . . f F.|.|.).{ u . . . . . . . 2 4.u.a.a.a.a.s.k.k.k.k.k.z.z.e.c . . . . . . . . . @ & : 6 6 8 6 ",
"6 : % X . . . . . . . . . # %.j.l.l.l.l.l.l.z.y.m . . . . . . . . y M.`.].L.^ = . . . . . . . # 4.i.k.k.k.k.k.k.k.l.k.l.z.z.r.v X . . . . . . . X $ & : : 6 6 6 ",
": : $ X o ; ; - ; O + . . 2 G y.x.h.i.i.i.p.g.f.V * O O O O O o O K M.`.}.R.{ d , , ; ; ; ; , w %.t.p.p.i.i.i.i.g.i.g.g.x.j.2.c X . X O 3 7 7 0 : % $ : 6 6 6 6 ",
": % $ + s _ +.+X@./ ; . . # v &.;.=.=.=.=.=.&.F ! W W W R R Y I Y  .&XaXaXeX;XB.+.+.+.+.+.+.+.@.d.-.4.4.&.&.&.&.=.&.-.&.;.-.H w @ X @ 9 Q { { [ S > & % 6 6 6 6 ",
"% % X $ ' <XNXBXzX+Xp . . & 1 4 5 4 4 4 e 1 1 c { E._.E.E.R.J.G.F.(.cXVXZXVXBXNXxXxXxXxXxXNXNXjX@.w # 2 2 2 1 1 1 1 2 1 1 1 < # & X O S G.'.|.Q.{ 8 @ $ 6 6 6 6 ",
"% $ X $ _ zXFXFXDX#Xp . . @ @ X X X X . X . . t M.8XqX|.{.}.~.L.L.-XbXDXFXDXFXFXFXFXFXFXFXFXFXVX+X; . . . + X X . . . . . . X @ @ X O U T.yXpX|. .t X $ 6 6 6 6 ",
"% % . + _ kXFXFXGX#Xp . X @ X . . . . X X . X t ..8XqX{.}.~.L.S.S.&XbXDXFXDXDXFXFXDXFXFXFXFXFXBX+X> . + + $ $ $ $ o X o @ @ @ @ @ . X I T.=X0X[.} r . $ : 6 6 6 ",
"% $ X o ` 4XZXDXNX@Xp . . & : w 5 4 e % @ X X t { E./.Y.L./.(.E.E.>XbXDXFXDXDXDXDXFXDXBXxXxXxX3XO.> . + % * : % $ < e x x x 4 2 X . o L Q.iXdX-X..r . @ : : 6 6 ",
"% % X + T &XgXvXaX@.r . . # b -.<.>.&.v & X X * h R Y U X.%XfXfXgXlXBXDXDXDXDXDXDXDXAX3X+.O.O._ j $ X $ % : : % $ w G ;.<.<.F w + . o ( ;XmXMXfXW.a . @ : : 6 6 ",
"% $ X + I T.8X0X}.{ u . . < F y.z.z.f.C 2 . o @ & $ X o $.<XAXDXSXGXDXDXDXDXDXDXDXFXVX#Xl o O O + X o & - : : $ $ x >.j.z.x.e.c X . + ' tXDXFXBX#Xp . X - 6 6 6 ",
"% % . + f G.}.{.~.[ > . . < *.g.c.z.g.F # . @ X . . . . k 2XDXFXFXFXFXFXFXFXFXFXFXFXAX@X> . . . . . X @ @ % % @ X c <.l.c.z.e.v X . o ` kXFXFXAX#Xp . X % : 6 6 ",
"% $ X X f M.}.].~.[ > . . # F u.z.z.t.G # . X o . . . . L <XDXFXDXDXDXDXDXDXFXDXDXDXBX@Xa . . . . X X @ & & # o X 5 ,.x.z.k.e.v . . o ` jXFXFXVX#Xp . X % : 6 6 ",
"% % . o L !.wXiX*X .r . . < F u.k.l.t.G # . X % t d d d ' @X2X3X3X3X3X3X3X3X3X3X3XjX<XB.T a y d d d h S h 8 & . X 5 >.p.l.k.e.c X . . ' ;XnXCXvX@Xa . X % 6 6 6 ",
": % . o ' ;XMXCXzXB.p . . # Z u.k.l.t.G # . . 7 W N.Y.N. .) ( / / / / / / / ( / / / ( [ M.M.M.M.N.N.F.J...I = . . 5 >.p.l.k.1.v X . X L !.wXwX-X .r . @ % : 6 6 ",
"% $ X O ` kXFXFXBX#Xp . . # F t.l.k.t.A # . . t | {.9X{.N.f . . . . . . . . . . . . O R R.{.].}.}.}.|.8X^.R $ . . 5 >.p.l.s.1.v . . . f M.`.]./.{ 7 . @ : 6 : 6 ",
"% % . + _ kXFXFXAX#Xp . . # F u.k.k.t.A % . . r | |.qX|.N.y . . . . . . . . . . . . . T R.{.]./.~.).]. XE.R O . . 5 >.p.k.s.1.c . . o d m.).[./.{ > X @ % 6 6 6 ",
"% % . O ` aXDXFXBX$Xp . . # Z u.l.k.t.A # . . r } ].|.].N.K = o O O . + . X + O o . = R J.`.~.L.~.~.`.[.E.Y O . . 5 >.x.l.s.1.c + . . L U.8XqX[. .u . @ % : 6 6 ",
"% % . o ' ;XmXMXcXB.a . . # Z u.k.k.t.A & . . u } ).{.~.E.@.O.O.O.( > . . + 7 S Y U Y } J.~.L.R.'.:XaXdX>X) O . . 5 >.p.l.k.1.v X . X T %XgXvXsX@.a . + % 6 6 6 ",
"% % X o k !.wXiX-X .r . . < Z u.k.k.t.A # . . u { /.).~.'.rXzXxXzX#Xk . . O g N./.R.K.K.R.K.H.R.wXbXZXZXkXO., . . 5 >.p.l.s.1.c . . . ' 4XZXSXmX$Xp . X % : 6 6 ",
"6 % . X K N.[.{./.{ > . . # Z u.k.k.t.A & . . u { ~.~.P.*XvXFXFXDX2X/ . . o U R.{. X~.~.P.I.m.J.rXAXFXFXxXO.; . . 4 >.p.k.s.1.v X . . ` kXFXFXGX#Xp . X % : 6 6 ",
"% % X o f M.).].R.{ > . . # Z u.z.k.t.Z # . . > { L.P.S.(.lXFXFXDX2X/ . . + K G.`.~.L.H.m.m.n.K.eXZXFXFXxXO., . . 5 >.h.k.s.1.v . . + ` kXFXFXDX#Xp . X % : 6 6 ",
"% % X + f U.[.9X'.{ > . . # Z u.k.k.t.A # . . u { (.(.R.&XfXBXSXCX1XL . . o L U.'.`./.R.R.J.F.^.eXnXSXGXkXO., . . w >.h.k.s.1.v X . + ' 4XZXSXmX$Xp . X % 6 6 6 ",
": % . + ( &XfXvXaX@.r . . % Z u.l.k.t.F # . . a B.rXfXaXrXeXeXaXaXW.j . . o ( ;XfXfXaXrXrXrXrXrX:X:XwXaX&X) O . . w >.p.l.k.1.v . . X L %XdXhXeX@.y . o - : 6 6 ",
"% % . o ` 4XSXFXBX$Xp . . # Z u.k.k.t.A & . . p $XBXFXZXlX*XT.~./. .y . . O _ kXDXDXAXAXAXSXGXNXeXR.L.^.J.T o . . 5 >.h.k.s.1.v X . . f M.].=X/.{ 7 X X % : 6 6 ",
"% % . O _ kXFXFXGX#Xp . . # Z u.k.k.t.Z & . . j ,XDXFXFXnX&Xm.I.P.{ y . . O o.zXFXFXFXFXFXFXFXAXeXH.m.P.m.I o . . 5 >.p.k.s.1.v X . X d | /.}.~.{ 7 X @ % : 6 6 ",
"% % . + ` kXFXFXBX#Xp . . # Z u.k.k.t.Z # . . l ,XAXFXFXbX&XS.H.P.{ y . . O #.kXFXFXFXFXDXDXDXVXeXY.H.~.G.I o . . 5 >.p.l.k.1.v X . . f ..}.|.'.{ u . @ % : 6 6 ",
"% $ X o ` 5XCXSXbX@Xp . . # Z u.k.k.t.Z # . . p @XxXCXnXfX>X(.[.[.N.d . . o ` 5XmXMXbXbXbXbXbXlXeX&X'.-XQ.R O . . 5 >.p.k.k.1.v X . + L Q.iXdX:X..a . X % % : 6 ",
"% $ . o T %XgXhXrX@.r . . # Z u.k.k.t.Z # . . r ..>XwX*X:XaXcXvXlX$Xj . . o T Q.:X-X&X&X(.&X(.&X:XcXbXbXrXo.= . . 5 >.p.k.k.1.v X . X ( <XmXCXlX@Xp . X $ % % : ",
"& @ . o g U.=XqX[.} u . . # Z u.k.k.t.G # . . > { Y.P.G.(.cXSXFXSX<X/ . . o f ..L.K.S.m.m.m.n.M.:XBXFXFXzXO.; . . 4 >.p.k.s.1.v X . o ` tXFXFXVX#Xp . . @ $ % % ",
"X . . . g U.=XyX{.| t . . # Z u.h.h.u.A # . . > E S.I.m./.lXFXFXFX2X/ . . . d | I.D.m.~ ~ ~ ~ m.:XVXFXFXxX@.; . . 5 >.p.k.k.1.v X . + _ kXFXFXDX6Xs . . X @ & & ",
"X + . O L F.|.9X[. .t . . # Z u.h.z.g.A # . . > ^ K.K.m.(.cXSXFXGX<X/ . . + d m.R.K.S.S.D.D.m.F.5XCXFXDXzXO.; . . 4 >.p.k.k.1.v X . + ' 4XDXFXBX#Xj X @ & $ % * ",
"f f h g R { ..G...Q 6 X . % G f.b.v.f.*.# . . r  .>X:X*X>XrXlXvXlX$Xj . . o T Q.wX:X*X*X*X&X&X*XeXgXvXvX5X_ = . . 5 >.p.k.k.5.v X . X k +X1X<X,X+.W S S I U U Y ",
"d.G.G.G.{ I d i i t $ . . = ! b.oXoXb.! * . . p @XbXCXnXcX:X(.*X*XM.d . . o ` 4XmXBXnXnXnXnXnXvXrX'.(.*XE.R O . . 5 >.x.l.k.1.v @ . . ; p j j k ) ..F.J.J.J.J.K.",
").).}.`.| y X X X X X . . = ! XX7X7XXX! * . . l ,XGXFXFXbX*XJ.K.L.{ y . . O o.kXFXFXFXFXFXFXFXAXrXY.I.L.m.I o . . q >.x.z.k.r.v @ . . . . . . X I F.]. X].].].].",
").}.].`.| u . . . . . . . $ ! XX7X7XXX} 3 . . l ,XGXFXFXnX*XS.I.P.~ u . . O o.zXFXFXFXFXFXFXFXGXrXJ.I.L.M.U $ . . q <.z.c.l.5.v X . X . . . . . g G.}.].).).).).",
"~.).].).| d = o = $ = = O > ! b.XXoXXX! < . . l $XBXFXAXvX*XE.~./.| y X . O _ jXGXSXVXAXVXVXZXnXrX(.~.'.T.T $ . . w ;.g.x.j.2.J 0 * * * = = o * Y G.)._.~.~.~.~.",
"~.~.).~.F.^ Y Y R R R W R W E E :.d.! D % . . a B.aXfXaXrXrXeXdXaXW.j . . O ( %XgXdXrXrXeXeXeXeXeXrXaXgX>X) $ . . < b %.-.-.H ! E ^ ) E E E W E | P.).).~.~.~.L.",
"~.).~.).~.R.J.Y.R.T.R.E.E.T.^ i 4 0 0 % @ . . u X._.).^.*XfXVXSXBX1X/ . . + K m.^./.T.R.K.K.J.^.eXnXDXSXcXO.- . X X & 2 # # h  .E.`._._._._.^.^./.).`.).^._.^._.",
").}.}.}.].].].[.[.].]. X=X_.E * . . X X X X . u { E.~.L.[.lXFXFXDX2X( X . X d | H.I.S.D.I.S.m.L.rXSXFXFXxX@.- . . . . . . . y M.[.|.|.|.|.|.=X|.{.].}.`.).).).).",
"{.{.{.|.{.{.|.|. X[.].]. X^.E = . . . X X X . u } `.).~.-XvXFXFXFX2X/ X . . f } P.K.K.P.P.P.H./.dXSXFXFXxX@.; . . . . . . . y } `.].].]. X X|.|.|.{.[.[. X[.].[.",
"{.{.{.{.=X=X|.{. X].}.]. X^.{ d > u 7 * & X X u E F.F.G.Q.aXmXZXBX1XS . . o K U.[.*X'.R.M.m.| F.;XtXzXzX2XO.s 7 u u r r > r I M._.}.}.}.}.}.[.{.|.|.=X=X|.|.|.|.",
"                  `.`.].].).G.} { } { h * X X $ y K K K [ !.wXdXsX!.h X . O ' ;XlXvXfX@XW d d K ( _ o.o.#.X.{ } } } | } } } M.R.`.].[.]._.                      ",
"                    ].].].`.).^.`.}.R.E 3 X X X o o X X y } E.[.]...d . . O _ kXFXFXBX@Xp . . + o O . + u ^ R.'.}.}.}.[.`.].`.}.}.[.|.{.                        ",
"                    =X=X X].].].[.|./.E * . . . . . . . u { _.|.|.G.h X . O O.zXFXFXGX#Xz . . . . . . . o E E. X X|.|.|.8X=X|.|. X=X9X=X                        ",
"                    yX0X=X|.].`.].{.E.W = . . X . . . . y | ).9X|.F.S o . O #.kXFXFXBX@Xp . . . o . . . > E R.}.}.].].{. X|.|.=X=XuXyX0X                        ",
"                    qX9X=X[.].}.]. XE.{ S d d d h h d f T { ..J.U.{ i $ . + / @X2XjX1X+.T h h h d f d d U | ~.`.}.].`.}.[.|.=X=X0XyXpX                          ",
"                            `.`.].].`.Y.G.....G.N.F.U.U.| Q h h h t 6 & @ @ 8 j $.S ( ) ..G.F.U.J.F.N.N.F.R.(.].].].(.                                          ",
"                              [. X].].}.}.]. X X{.|.9X=XR.Y % @ o & % # % $ @ . + . $ Y T. X-X=X8X8X8X=X{.].].[.|.{.                                            ",
"                              9X9X|.|.=X=X=X=X9X9X9XpXpXE.Q 3 @ & % : 6 : % % $ X . & Q ^.0XuXuX9X0X8X8X8X=X|.8X0X0X                                            ",
"                              iXyX0X=X=X=X=X=X=X9X9XpXiX'.! t % 6 6 8 6 9 6 8 6 - @ : W (.0XuXuX9X8X8X8X8X8X8X0XpXiX                                            ",
"                                0X=X=X=X=X|.=X=X=X=XyXyX(.) t 6 6 6 6 9 6 6 8 6 : & 3 ) _.0XuX-X9X9X9X9X8X8X9XyXpX                                              ",
"                                                                                                                                                                ",
"                                                                                                                                                                "
};
