/* XPM */
static char *_808037e2d0248c6f883657a2de74062UISX4N6T9Puephiz[] = {
/* columns rows colors chars-per-pixel */
"80 80 229 2 ",
"   c None",
".  c #010001",
"X  c #0B0100",
"o  c #0D0901",
"O  c #01020A",
"+  c #080209",
"@  c #090A09",
"#  c #130100",
"$  c #1B0200",
"%  c #140A03",
"&  c #1D0A00",
"*  c #130C0A",
"=  c #1C0C0B",
"-  c #1A150C",
";  c #110D15",
":  c #171617",
">  c #080B11",
",  c #230300",
"<  c #2B0500",
"1  c #230B01",
"2  c #2C0B00",
"3  c #230C0D",
"4  c #310200",
"5  c #340C00",
"6  c #3C0C00",
"7  c #3E0500",
"8  c #2B1101",
"9  c #211004",
"0  c #341502",
"q  c #3C1401",
"w  c #3C1903",
"e  c #3C1809",
"r  c #2B1C17",
"t  c #241C1B",
"y  c #1F221C",
"u  c #25231A",
"i  c #3A291B",
"p  c #1D1F23",
"a  c #1F2224",
"s  c #2D2D2D",
"d  c #282727",
"f  c #332B25",
"g  c #372B27",
"h  c #2F322D",
"j  c #37312A",
"k  c #2C2C32",
"l  c #272D34",
"z  c #362F33",
"x  c #2D3438",
"c  c #343334",
"v  c #33343A",
"b  c #3B3D3C",
"n  c #3C3939",
"m  c #410E00",
"M  c #431500",
"N  c #4A1401",
"B  c #441A02",
"V  c #4C1C03",
"C  c #451B0C",
"Z  c #531C02",
"A  c #561903",
"S  c #661F03",
"D  c #4C2205",
"F  c #4A250D",
"G  c #482308",
"H  c #542301",
"J  c #5C2302",
"K  c #54230A",
"L  c #5C250A",
"P  c #592908",
"I  c #482819",
"U  c #542C14",
"Y  c #552917",
"T  c #4E3317",
"R  c #5B321D",
"E  c #642202",
"W  c #6C2403",
"Q  c #6C2B04",
"!  c #682A09",
"~  c #732B02",
"^  c #782E0A",
"/  c #783409",
"(  c #682C14",
")  c #742F14",
"_  c #673318",
"`  c #753614",
"'  c #7C3A13",
"]  c #763918",
"[  c #66300C",
"{  c #432C23",
"}  c #4B3228",
"|  c #573927",
" . c #433532",
".. c #453C38",
"X. c #573C38",
"o. c #753C23",
"O. c #603726",
"+. c #394035",
"@. c #7C431C",
"#. c #43413C",
"$. c #4A463C",
"%. c #58453A",
"&. c #67432E",
"*. c #7B4324",
"=. c #774426",
"-. c #674837",
";. c #70543D",
":. c #7C4538",
">. c #323641",
",. c #423F47",
"<. c #3C4342",
"1. c #3F4652",
"2. c #4C4C4A",
"3. c #474648",
"4. c #564A46",
"5. c #57524E",
"6. c #4F5251",
"7. c #555656",
"8. c #4C4D54",
"9. c #765646",
"0. c #675E5D",
"q. c #785A52",
"w. c #6F564A",
"e. c #68625D",
"r. c #7A6757",
"t. c #7C634A",
"y. c #5D5E64",
"u. c #696967",
"i. c #7A716A",
"p. c #747072",
"a. c #84370B",
"s. c #953D0C",
"d. c #853F14",
"f. c #873913",
"g. c #973F14",
"h. c #802F00",
"j. c #A43D0B",
"k. c #833E22",
"l. c #94410A",
"z. c #82421C",
"x. c #8A431A",
"c. c #8A4418",
"v. c #944314",
"b. c #9B4514",
"n. c #94431B",
"m. c #99491A",
"M. c #A8420A",
"N. c #A94C16",
"B. c #A34C1B",
"V. c #A64916",
"C. c #BA4913",
"Z. c #AC521C",
"A. c #A5511D",
"S. c #BA551B",
"D. c #B8571D",
"F. c #8A4725",
"G. c #9B4B23",
"H. c #954A26",
"J. c #9D5128",
"K. c #A24D23",
"L. c #AA4D22",
"P. c #A24E28",
"I. c #A25022",
"U. c #AB5323",
"Y. c #A7542B",
"T. c #B45423",
"R. c #B45A23",
"E. c #BB5C2C",
"W. c #BB5826",
"Q. c #B8622E",
"!. c #BD6735",
"~. c #C35719",
"^. c #C74A09",
"/. c #E95C12",
"(. c #E86417",
"). c #F5651A",
"_. c #C35B29",
"`. c #D15F24",
"'. c #C3632B",
"]. c #CB6629",
"[. c #D46A2D",
"{. c #DB6D2C",
"}. c #D96728",
"|. c #CC6A32",
" X c #CA6736",
".X c #D36B33",
"XX c #D86D34",
"oX c #DE7335",
"OX c #DD712F",
"+X c #E76929",
"@X c #E16C32",
"#X c #E47335",
"$X c #EB7435",
"%X c #EC7933",
"&X c #E3743A",
"*X c #EC783A",
"=X c #F37531",
"-X c #F37737",
";X c #F26F2C",
":X c #805846",
">X c #82675B",
",X c #BF6740",
"<X c #886B62",
"1X c #847977",
"2X c #8D7569",
"3X c #DB7444",
"4X c #E67B44",
"5X c #898379",
"6X c #94837D",
"7X c #9B927D",
"8X c #A1847B",
"9X c #E98142",
"0X c #7D8288",
"qX c #868686",
"wX c #948883",
"eX c #99938D",
"rX c #9A9597",
"tX c #A89A98",
"yX c #A1978F",
"uX c #9EA39D",
"iX c #A7A49D",
"pX c #B2A698",
"aX c #A49EA1",
"sX c #9EA8A7",
"dX c #AAA5A3",
"fX c #A7A6A5",
"gX c #B2AAAC",
"hX c #B3ADB4",
"jX c #BDBBB6",
/* pixels */
"                                                                                                                                                                ",
"                                                                                                                                                                ",
"                                                                                                        fXhXgX                                                  ",
"                                                    qX@ X X                           3.@ . -         p.. o . u.                                                ",
"                                                    5X& # $ 5.                        $.o X -         u.& 1 & i.                                                ",
"                                                  7Xt.U J U w.wXdXfXfXuXfXiXuXfXsXrX5X-.G D | >X  fXeXe.K Z P ;.eX                                              ",
"                                            qXn f i ] A.S.N.=.} f s l s g g h v >.z T F.U.R.P.O.{  .I =.J.R.Y.@.I z n                                           ",
"                                            i.+ X % ~ '.-XOXz.2 X . O . . X . . O + m v.$X-X_.W $ # 1 ] |.*X.Xa.2 X O                                           ",
"                                            i.$ # , ~ _.$X{.@.2 X . O . o X . . > O m m.+X$X_.W $ # , ]  X&X].a., X +                                           ",
"                                          tXq.C V A ~ g.N.v.P & X . O . . . . . O . < ! b.N.f.N # X $ D c.B.v.J # X O                                           ",
"                                        3.X.*.G.A.b.^ A N w & o . . . . . . . . O . # 8 w w 0 % . . X & M B M & . . O y                                         ",
"                      . .             . X < a. X&X]./ 4 $ X . . . . . . . . . . . . . . X . X X . . . . X # X X . O . . . . . . . . .                           ",
"                    j X + f         y.@ X < f..X%X{./ < X X . . . . O . . . . . . . . . . . . . . . . O . X . . . . O . . . o X X X X                           ",
"                    R M q           3.@ X , E L.D.m.J $ X X X . . O . . O . . . . . X . O . . . X . . O O O O . O . O . . . X $ 5 m w |                         ",
"                4.&.d.b.m.z.        y . . X , B D B 1 X + X . . . . . . . X . . @ . O . . . . . . . . O . O . . . . . . O . X 5 ^ B.H.=.-.-.2.                  ",
"              . # Z B.oXoXL.K $ X . . . . . X X X o . . . . . . . . . . . . . . O . + . . o . . . . . . . + . . . . O . . . X B T.@X3XP.N % X d                 ",
"            l . # Z Z.#X-XT.Z # X . . . . . . . . . . . . . . . . . . . . . . . . . . . . . . . . . . . . . . . . . . . . . X F R.$X&XL.N # X d                 ",
"            l . X q d.R._.g.q X . . . . . . . . . . . . . . . . . . . . . . . . . . . . . . . . + . . . . . . . . . O . + X X 0 c.W._.g.A 6 0 I                 ",
"            x O . & B L E B % X . . . . . . . . . . . . . . . . . . . . . . . . . . . . . . . . . O . . . . . . . . . . . . X % w K ! E h.s.l.z.-.e.e.          ",
"            v . . X # # # # X . . . . . . . . . . . . . . . . . . . . . . . . . . . . . . . . . . . . . . . . . . . . . X X X X # # $ M M.}.+XZ.U * . u         ",
"            j X . . . . . . . . . . . . . . . . . . . . . . . . . . . . . . . . . . . . . . . . . . . . . . . . . O . . . . X X # # # 6 M.$X=X~.D X X *         ",
"            I 2 1 % . O O . . . . . . . . . . . . . . . . . . . . . . . . . . . . . . . . . . . . . . . . . . . . O . . . X X # , 4 4 N g.`.].A.U r r ..        ",
"          9.' a.' K % . . . . . . . . . . . . . . . . . . . . . . . . . . . . . . . . . . . . . . . . . . . . . . . O . . . X 1 S f.f.^ ) ( [ O.                ",
"      X 1 L L.|.|.n.0 X X o o . . . . . . . . . . . . . . . . . . . . . . . . . . . . . . . . . . . . . . . . . . . . . X X X e B.[. Xg.N , , {                 ",
"      . # H W.-X%XB.w X X O X . . . . . . . . . . . . . . . . . . . . . . . . . . . . . . . . . . . . . . . . . . . O . o . X F D.%X%XY.q # X j                 ",
"      > 3 Y U.[.].l.w X + O . . . . . . . . . . . . . . . . . . . . . . . . . . . . . . . . . . . . . . . . . . . . O . . X . e m.].].m.N , , g                 ",
"      u.i.q.o.] ` H 1 X + . O . . . . . . . . . . . . . . . . . . . . . . . . . . . . . . . . . . . . . . . . . . . O . . X . 1 P / h.~ Q ~ ^ ] q.              ",
"          yXI < 1 % X X . . O O . . . . . . . . . . . . . . . . . . . . . . . . . . . . . . . . . . . . . . . . . . . . . . . o $ 4 4 A l.'.].P.Y r - c         ",
"             .# X . X . . . . O . . . . . . . . . . . . . . . . . . . . . . . . . . . . . . . . . . . . . . . . O . O . . . . X . X $ N B.&X*XT.K X X ;         ",
"            } # # o . . X . . . . . . . . . . . . . . . . . . . . . . . . . . . . . . . . . . . . . . . . . . . . . . . . . . . O O X q m..X.XU.Y 1 % t         ",
"          <X( E J w % . X + X . . . . . . . . . . . . . . . . . . . . . . . . . . . . . . . . . . . . . . X . . . . O . . . . . O . X , P @.c.@.9.  0.          ",
"      : f R H._.R.@.0 . . . . X . . . . . . . . . . . . . . . . . . . . . . . . . . . . . . . . . . . . . . . . . O . . . . . . . X X # $ 2 2 T                 ",
"      X # J W.$X#XZ.M X . O . . . . . . . . . . . . . . . . . . . . . . . . . . . . . . . . . . . . . . . . . . . . . . . . . . . . o X X X X j                 ",
"      X # H T.#X{.V.B o . O . . . . . . . . . . . . . . . . . . . . . . . . . . . . . . . . . . . . . . . . . . . . . . . . . . . . + X X X X g                 ",
"      7.5.-.k.H.n.Q 1 . O O O X . . . . . . . . . . . . . . . . . . . . . . . . . . . . . . . . . . . . . . . . . . . . . . . . . . X # q V J _ 2X              ",
"          wXY m 6 2 X . . O . . . . . . . . . . . . . . . . . . . . . . . . . . . . . . . . . . . . . . . . . . . . . . . . . . . . X 8 ' U.R.m.| f h 6.        ",
"            f X X X X X . . X . . . . . . . . . . . . . . . . . . . . . . . . . . . . . . . . . . . . . . . . . . . . . . . . . . X X M L.@X$XR.H X . > 6X      ",
"            k . . O . X X . . X . . . . . . . . . . . . . . . . . . . . . . . . . . . . . . . . . . . . . . . . . . . . . . . . . o X B G.&X&XR.D % . : 6X      ",
"            u.3.8.>.; X X . . X . . . . . . . . . . . . . . . . . . . . . . . . . . . . . . . . . . . . . . . . . . . . . . . . . . X 2 ` G.K.F.&.#.<.          ",
"                    v O . . . . . . . . . . . . . . . . . . . . . . . . . . . . . . . . . . . . . . . . . . . . . . . . . . . . . . . # 5 B V U                 ",
"                    1.O . . . . . . . . . . . . . . . . . . . . . . . . . . . . . . . . . . . . . . . . . . . . . . . . . . . . . O . . X % X i                 ",
"                    3.+ X X + . . . . . . . . . . . . . . . . . . . . . . . . . . . . . . . . . . . . . . . . . . . . . . . . . . . . . . X +                   ",
"                    O.m 6 5 % . . . . . . . . . . . . . . . . . . . . . . . . . . . . . . . . . . . . . . . . . . . . . . . . . O O . > u b                     ",
"            u.6.4.-.F.g.b.` 8 X . . . . . . . . . . . . . . . . . . . . . . . . . . . . . . . . . . . . . . . . . . . . . . . . + . . f p.                      ",
"            h X $ N V.@X{.Z.G X . . . . . . . . . . . . . . . . . . . . . . . . . . . . . . . . . . . . . . . . . . . . . . . . X X o ..                        ",
"            u X $ A T.-X$XZ.G o . . . . . . . . . . . . . . . . . . . . . . . . . . . . . . . . . . . . . . . . . . . . . . . X X # X ..                        ",
"          6XF 5 7 A n.E.E.H.0 X . . . . . . . . . . . . . . . . . . . . . . . . . . . . . . . . . . . . . . . . . . . . . . . X % 2 5 X.                        ",
"      y.e.w.*.c.d.^ ! E S Z & X X . . . . . . . . . . . . . . . . . . . . . . . . . . . . . . . . . . . . . . . . . . . . . o 1 ( d.o.:.q.0.u.                  ",
"      X 1 H N.OX|.m.M $ , $ X X o X . . . . . O . . . . . . . . . . . . . . . . X . . . . . . . . . . . . . O . . . . . O . # D N.{.[.m.C = > c                 ",
"      . % L D.%X&XI.0 X X X . . . . . . . . O O . . . . . . . . . . . . . . . . . . . . . . . . . . . O . . . . . . . . O . # Z ~.=X%XZ.N # X f                 ",
"      ; 3 T I.'.!.F.8 X X X . . @ . . . O . O . . . . . . . . . . . . . . . . . . . . . . . . . X . . O . . . . . . X . O . # B b.'.Q.m.V < 1 i                 ",
"        p.r.@.^ [ Z & X X + . . . o . . . . . . . . . . . . . O . . . . . . . . . . . . . . . . . . . . . . . . + . . . O O X 2 H ~ ~ ~ ~ a./ =.q.p.p.qX        ",
"          tX} , , # X . . . O . . . . . o . . . . . . . . . . . . . . . . . . . . . . . . . . . X . X . . . . . . X . . > > . X # & , N j.+X`.L.Y 8 * d         ",
"          hXz X X X X X X . . O . X . . X . . . @ . . . . + O O . . . . . . . . . . . . . . . . . X . . . . . . . . . . O O O . . . X M j.=X=X_.A # X @         ",
"          fXk . X X $ , , $ $ % % # X X . + . . . . . . o X O O . . . . . . . . . . . . . O . + . . O O O O . . . X X . . . . . . O + e g.`.}.Y.Y 3 * d         ",
"          aXl O X & V ! Q Q W W [ D 1 X X . . . . . . . . . . . . . . . . . . . . . . . . . . . . . O O O . O . . . . + . . O . . . . , S a.c.]                 ",
"          dXa + X q k.E.'.~.~.~.E.H.B # . . . . . . . . . . . O . . . . . . . . . . . . . O . . . . . . O O . . . . . X . X . . X X . X % 1 1 i                 ",
"          rXa . # B Y.oX%X(.).).$XW.L $ . . . . O O . . . . . . . . . . . . . . . . . . . . . . . . . . . . . . . . . . X X X X X X . . . . . y                 ",
"            v @ % Z J. X}.(./.).).C.A # . @ . . O O O . . . . . . . . . . . . . . . . . . . . . . X X X . X . X O . . X # $ # X . . . O @ ; @ c                 ",
"            0Xy.0.;.F.d.s.M.^./.).^.E $ . O . . . O + . . . . . . . . . . . . . . . . . . . . . . . . X . . . . . . X 1 V L L e % O . : ,.                      ",
"                  tX| 5 m A j.+X+X^.E $ . . . . . . O X X X . . . . . . . . . . . . . X X . X . O O O . . . + . . . # V x.Q.R.' 9 X X z                         ",
"                     .X $ m g.@X-X~.L $ . O . . O . X X X X . . . . . . . . . . . . X . . X . . O O . . . X X . . X # P Q.9XoXm.w X . c                         ",
"                    3.X # 6 g.].{.Z.L $ + @ . . . X . X $ # X . . . . . . . . . . . + . X X o . . . . # # # X X . + X K R.OX{.B.q X o b                         ",
"                    p.2.4.-.*.H.b.H.-.4.6.3.u o . X 1 e Z C 1 X . . . . . . . . . X # 8 e G 0 & o X # 2 B V M 2 X X X e ' b.B.d.-.$.2.                          ",
"                            %.0 q I 1X      7.* X $ A v.S.N.! $ . O O . . . . O . X 5 ` L.L.g.V o + $ L B._.j.W $ X O o 8 q q &.                                ",
"                            3.o X r           * X , ^  X%X{.d.0 X . + X . . . . O X 5 g.@X-XT.Z X X , ]  X-X+Xa.1 . . O X # # ..                                ",
"                            2.. . y           * X , )  X4X.Xk.< # X X X o X X X X X 6 n.+X;XR.E # X & o.,X4X X^ 1 . O . X X X 2.                                ",
"                            p.3.n 5.          2.>.%.o.F.P.H.( < X X $ 6 B M 5 $ X X 6 s.}.;XS.S # X # F F.Y.H.*.%.#.>.b ....                                    ",
"                                gX                  >XF B B & X X X M / B.m.) 6 X X 0 l.(.).C.S # X X 1 e V K 9.pXjX                                            ",
"                                                    1X9 # # . . . # Z U.&X4XP.N X X w l.+X;X_.W $ X X X X # & r.                                                ",
"                                                    qX: . . . . . X A T.$X&XP.N X . 0 c.@X-XW.S # . X . . X o                                                   ",
"                                                      3.h v c j h i _ H.T.E.H.Y f f T =.L.T.H._ { c k v h h +.                                                  ",
"                                                            gXdXtXrX2XR A L O.8XpXgX6X&.K Z R >X                                                                ",
"                                                                    tX{ # # ..        4.$ # r                                                                   ",
"                                                                    aXs . . ,.        3.+ . p                                                                   ",
"                                                                      7.d a 6.        u.k d <.                                                                  ",
"                                                                      dXeXeXdX          rXeX                                                                    ",
"                                                                                                                                                                ",
"                                                                                                                                                                ",
"                                                                                                                                                                "
};
