/* XPM */
static char *_8fe0261ab1d4c4fa9120d34968baa3a7QWAr8qQEL38xyNG[] = {
/* columns rows colors chars-per-pixel */
"80 80 214 2 ",
"   c None",
".  c #3D251E",
"X  c #37231F",
"o  c #3D2723",
"O  c #3E2824",
"+  c #3B2626",
"@  c #3D2A34",
"#  c #3C2C3C",
"$  c #523E1F",
"%  c #4C351E",
"&  c #4A2625",
"*  c #432A26",
"=  c #442C28",
"-  c #492F29",
";  c #442824",
":  c #562527",
">  c #4C312B",
",  c #493523",
"<  c #52352E",
"1  c #513A23",
"2  c #4C3632",
"3  c #4A3A38",
"4  c #5B3C34",
"5  c #553731",
"6  c #6D232B",
"7  c #67242A",
"8  c #7A222D",
"9  c #77222D",
"0  c #653E37",
"q  c #55401F",
"w  c #6D5C1A",
"e  c #6E4E1B",
"r  c #51423F",
"t  c #654139",
"y  c #6B463D",
"u  c #6F493F",
"i  c #70493F",
"p  c #776026",
"a  c #3B2E49",
"s  c #3B3159",
"d  c #3B3057",
"f  c #393266",
"g  c #3A3979",
"h  c #453548",
"j  c #483355",
"k  c #584745",
"l  c #5E5151",
"z  c #734C41",
"x  c #784F44",
"c  c #7B5146",
"v  c #7D5549",
"b  c #614F4C",
"n  c #6B6765",
"m  c #787776",
"M  c #776D6C",
"N  c #9B1F33",
"B  c #8C1F30",
"V  c #A21F34",
"C  c #AE1E36",
"Z  c #BE1C39",
"A  c #80222E",
"S  c #8D2031",
"D  c #982032",
"F  c #A02D3B",
"G  c #DB1A3E",
"H  c #D41B3D",
"J  c #C41A38",
"K  c #8E6717",
"L  c #A27615",
"P  c #9E6D3C",
"I  c #B43B47",
"U  c #FF1744",
"Y  c #FA1843",
"T  c #FF1E49",
"R  c #E61E5B",
"E  c #E91D58",
"W  c #FF3B57",
"Q  c #FF3859",
"!  c #DD2262",
"~  c #FE3C62",
"^  c #DB374D",
"/  c #82554A",
"(  c #87594D",
")  c #8D5D50",
"_  c #95464D",
"`  c #936254",
"'  c #9B6758",
"]  c #9D685A",
"[  c #976E45",
"{  c #A26C5C",
"}  c #A4725B",
"|  c #AF4F62",
" . c #BE5E71",
".. c #877C7A",
"X. c #947C7A",
"o. c #AD7362",
"O. c #B07564",
"+. c #B47866",
"@. c #B77A68",
"#. c #BB7D6A",
"$. c #B77C71",
"%. c #FF5173",
"&. c #FF4564",
"*. c #CC6B6E",
"=. c #FF6E71",
"-. c #F16D70",
";. c #C4435A",
":. c #998E13",
">. c #BE8D11",
",. c #B49610",
"<. c #B2A90E",
"1. c #BEB60E",
"2. c #999223",
"3. c #C7980F",
"4. c #FBBD08",
"5. c #C5BE0A",
"6. c #DDD805",
"7. c #CDC80D",
"8. c #FFC307",
"9. c #FFCA06",
"0. c #E2DF03",
"q. c #FBD705",
"w. c #EAE804",
"e. c #FEFE00",
"r. c #F9F608",
"t. c #F8E706",
"y. c #99A05D",
"u. c #B2B854",
"i. c #BF806D",
"p. c #AAB768",
"a. c #ABB869",
"s. c #969C5B",
"d. c #C3836F",
"f. c #C68471",
"g. c #CE8B76",
"h. c #C98672",
"j. c #D08C77",
"k. c #D28D78",
"l. c #DB8E7A",
"z. c #DB937C",
"x. c #D6907A",
"c. c #D79A6A",
"v. c #E0967F",
"b. c #B9C456",
"n. c #373B94",
"m. c #333FB5",
"M. c #763CBC",
"N. c #3C429B",
"B. c #3441B4",
"V. c #414187",
"C. c #55619D",
"Z. c #6E3EC6",
"A. c #3345C8",
"S. c #3249DC",
"D. c #3247D7",
"F. c #324BE5",
"G. c #314CEF",
"H. c #2E4EFE",
"J. c #304EF6",
"K. c #304FFE",
"L. c #3B4CF4",
"P. c #2D50FF",
"I. c #3050FF",
"U. c #6479C2",
"Y. c #6372CD",
"T. c #4849E8",
"R. c #444AE9",
"E. c #485AF1",
"W. c #455DF7",
"Q. c #4457EF",
"!. c #4864FF",
"~. c #5558CF",
"^. c #CE6E85",
"/. c #FF7FAB",
"(. c #9A9A99",
"). c #918E8C",
"_. c #A69294",
"`. c #A1A09E",
"'. c #9DA1A0",
"]. c #AEA4A2",
"[. c gray63",
"{. c #D39186",
"}. c #E29780",
"|. c #E59982",
" X c #EA9D85",
".X c #ED9D88",
"XX c #EB9199",
"oX c #EEA088",
"OX c #F3A38A",
"+X c #FCA68E",
"@X c #FCA98F",
"#X c #E8A19E",
"$X c #FFA694",
"%X c #FFAC92",
"&X c #FFB095",
"*X c #FF8AA5",
"=X c #FF81AB",
"-X c #FF92A0",
";X c #FD9EB0",
":X c #E49FAB",
">X c #CDBBB7",
",X c #FEB9A4",
"<X c #FEC5B3",
"1X c #A8B4FC",
"2X c #A4A8D5",
"3X c #F8B7C4",
"4X c #DEDAD9",
"5X c #CBCECD",
"6X c #FEC9C9",
"7X c #F8D4CC",
"8X c #F7ECEF",
"9X c #E9EDFF",
"0X c #FDFEFE",
"qX c #EEF1F0",
/* pixels */
"                                                                                                                                                                ",
"                                                                                                                                                                ",
"                                                                                                                                                                ",
"                                                              O o o O o o o o ; O O O O O O o o O o                                                             ",
"                                                              o o o O o o o o O O O O O O O O O o ;                                                             ",
"                                                              o o o o + o o o o O O O o X O . . o o                                                             ",
"                                                  o o ; o O o o o < o.o.O.O.o.O.t . O i O.O.o.O.o.{ > o O                                                       ",
"                                                O o O o o o ; o o 4 OX&X%X%X%X%Xv O . ] &X&X@X&X%X}.> O o                                                       ",
"                                                o o o o O O o o o 4 oX&X@X&X%X%Xv X X ] &X&X&X&X%X}.- X .                                                       ",
"                                                8 S S 7 o o : S S F -.=.=.=.=.=.I S S _ O.O.*.=.=.-.X.X...k                                                     ",
"                                          o o O Z U U V o o 8 U U U U U U U U U U U U V o X 9 U Y ~ 8X0XqXb X o O O o o o o o                                   ",
"                                          o o o Z U U N X + 9 Y U U U U U U U U U U U V O . 9 U U ~ 8X0XqXb X o o . ; . o o o                                   ",
"                                          6 6 6 C H H N 6 6 D U U U U U U U U U U U U V O . 9 U U Q 3X3X3X_ 7 7 h s s h r k 4                                   ",
"                                    O O & H Y Y 8 ; ; N U Y Y U U U U U U U T U U U T V o O 9 U U U T T T Y Y Y M.I.K.Y.(.`.m O o o                             ",
"                                    O O & G U U 8 o o D U U U U U U U U U U U U U U U V o + 6 Y U U U U U U U U M.K.H.Y.[.[...O o ;                             ",
"                                    O O & G U U 8 o o N U U U U U U U U U U U U U U U V o o 9 U U T R R R E R E Z.K.K.Y.).).m ; O o                             ",
"                                    o o & G U U A o o N Y U U U U U U U U U U U U U U V o o 9 U U R T.T.T.T.T.T.L.K.I.N.> 2 2                                   ",
"                                    O o & G U U 8 o o N U U U U U U U U U U U Y U U T V o . 9 U U ! R.K.K.K.K.P.P.K.I.n.. o O                                   ",
"                                    o o & H Y Y 8 o + N Y Y Y Y Y Y Y Y Y Y Y Y Y Y U N o o A U U ! R.H.J.I.J.J.J.H.H.n.o o O                                   ",
"                                          6 6 6 & o o : 6 6 6 6 6 6 6 6 6 6 6 7 6 6 6 & o o y *.*. .j d s s s s s s d a                                         ",
"                                          o o o o o O o o o o o o . o o o o o o o o o o O o y g.x.i.- . . . . . . o . o                                         ",
"                                          O o o O o o ; o o o O O O o O O o o o O . o o o o t g.j.+., . . O o O ; o o o                                         ",
"                                    o O o o O O O o o O o o o o o O o o = / ` ` ` ` ` ] O.o.d. Xv.v.i.O.o.< O o o O o ;                                         ",
"                                    o o O O o o o o O o o o O O o o o O - @.k.k.k.g.g.oX%X%X%X%X&X%X@X&XOXt o O o o O o                                         ",
"                                    o o O o o o o o O o o o O o o o . o = +.j.j.j.g.g.|.%X%X%X%X%X%X%X%X+X4 X o o o o o                                         ",
"                                    o O o o ; o O o ; o o o > x x u = o = +.j.g.z.v.}.OX%X@X%X%X%XOX@.o.o.` ) ) 4 o o o                                         ",
"                                    ; o o O o o O o o o o o y g.k.#.- o = +.j.j.oX%X%X%X%X%X%X@X%Xz.> o - z.&X%Xv . o o                                         ",
"                                    o o o o ; O o o O o o + y g.g.@.= o = +.j.g.oX%X%X@X%X@X%X%X%X}.> o - z.%X%Xv X . o                                         ",
"                                    o o o O o o O o o o o o y g.g.d.z y i h.z.z.OX@X%X%X%X@X%X%X%Xz.> O - z.%X%X] y y t                                         ",
"                                    ; o o o O o o ; ; o o o y g.g.x.OX+X@X@X@X@X%X%X%X%X@X$X%X%X%X}.> O - z.%X%X@X+X@X{ o o o                                   ",
"                                    o o O o ; o o o O o o o y g.j.x.@X%X%X%X%X%X@X%X%X%X%X%X%X%X%Xv.> o > z.%X%X%X%X%X{ o o o                                   ",
"                                    o O o O o o o o o O o o 0 #.i.h.@X%X%X$X$X%X$X$X$X$X$X$X%X%X%X|.4 < 4 x.@X+XoX X X' o O o                                   ",
"                                          o o O O o o o ; o * < > y OX@X%X*X=X*X=X=X=X=X*X=X-X%X%X%X X X Xx.k.k./ < < <                                         ",
"                                          o ; o o o O O o o o o o 4 oX%X%X*X/./.=X=X=X=X=X=X*X%X%X%X%X%X%Xx.g.g.y o o o                                         ",
"                                          o O O o O o O ; ; * * ; t oX%X$X*X/./.=X/.=X/.=X=X*X%X@X%X%X%X@Xx.g.j.u o o o                                         ",
"                                                o o o z o.o.+.g.g.x.@X%X$X*X/././.=X/.=X=X=X*X&X%X%X%X%X%Xx.g.g.u o o o                                         ",
"                                                ; o o ( k.g.}.%X%X%X%X@X$X=X=X=X/.=X/.=X=X=X*X$X%X%X%X%X@Xx.g.g.y o o o                                         ",
"                                                o o o / k.g.}.$X%X%X%X%X%X*X/.=X=X/.=X/.=X=X*X&X%X%X%X%X%Xz.g.g.i o O o                                         ",
"                                                      t x x ' }.}.|.%X%X$X*X/.=X/.=X=X=X=X=X^.` ( ' z.|.z.) c x 0                                               ",
"                                                        o X y g.g.x.+X%X$X*X/./.=X=X=X=X=X=X*.o o > f.g.d.5 . o                                                 ",
"                                                        o o y k.j.z.%X%X@X*X=X/./.=X/./.=X=X^.O o < f.k.h.4 o O                                                 ",
"                                                      o o o 5 ) ` { |. XoX-X-X-X-X-X-X-X-X-X^.c x v ` ` ` 5 o o                                                 ",
"                                          o o O o o o o o o o o o 5 d.g.k.OX%X@X%X%X%X%X%X%XOXj.j.@.- o o                                                       ",
"                                          ; o o ; o o ; + o + o o 5 f.k.j.+X&X%X%X@X%X%X%X%XOXj.k.@.- o o                                                       ",
"                                          o o O o o o 1 w w w w w p } o.o.h.j.j.|.OXOX}.g.j.d.o.o.] - O o                                                       ",
"                                                o ; X :.e.r.r.e.r.6.1 ; ; = = = { k.x.) ; * = ; * *                                                             ",
"                                                ; o o :.e.e.e.e.e.6.% o O . o . ] j.j.( o o o O ; o                                                             ",
"                                                $ $ $ :.e.e.r.w.w.7.3 # # # # # } c.c.[ $ q , O o o                                                             ",
"                                          O o O <.w.w.q.8.9.3.1 $ r D.F.F.F.F.F.u.r.r.w.w.w.<.O o o                                                             ",
"                                          o o ; 1.e.e.t.4.4.3.O . a G.K.K.K.K.K.b.e.e.e.e.e.5.O o O                                                             ",
"                                          ; o O 1.e.e.q.4.4.>.; ; a G.K.K.K.J.J.b.r.r.r.r.e.1.+ @ O                                                             ",
"                                          o o o >.q.q.,.e e l A.A.D.J.K.J.g d s C.U.U.U.U.U.Y.A.A.B.@ o o                                                       ",
"                                          O o ; >.8.8.L o o f K.K.K.K.K.G.a . o B.H.H.H.H.H.H.K.K.S.@ o O                                                       ",
"                                          o o o >.8.8.L o X f J.H.H.K.K.J.a . o B.I.H.H.H.H.H.H.H.S.@ O o                                                       ",
"                                          o o o e K K P o.o._.1X1X2XV.g g 2.<.<.u.p.p.p.p.p.p.p.a.y.- O o                                                       ",
"                                          o o ; O o X ' %X%X<X0X0X4X2 o % 6.e.e.e.e.e.e.e.e.e.e.e.0.% O O                                                       ",
"                                          o O o o o . ' &X@X<X0X0X4X3 o , 6.e.e.e.e.e.e.e.e.e.e.e.w., o o                                                       ",
"                                            o o O o o ' %X@X,X7X7X>X> o = s.a.p.p.p.p.p.p.p.p.p.p.y.= o o                                                       ",
"                                                o o o ' %X%X%X@X%X}.> o @ D.K.H.H.H.H.H.H.H.H.H.H.S.@ ; O                                                       ",
"                                                o O . ' &X&X%X%X%X|.> . O D.I.I.K.K.K.K.I.I.K.K.H.S.@ o o                                                       ",
"                                                  o o ) j.j.j.j.g.$.j d f S.K.K.K.K.K.I.K.K.K.K.K.S.@ O o                                                       ",
"                                                        * * * = = h F.K.J.H.K.K.K.I.K.K.K.I.K.I.K.S.@ . ;                                                       ",
"                                                        o O o o o a G.I.I.K.H.H.H.H.H.H.H.H.H.H.I.S.@ O o                                                       ",
"                                                        o O o O O # D.F.F.Q.E.E.E.E.E.W.!.!.W.F.F.A.@ O o                                                       ",
"                                                              o o + 2 # h {.#X#X#X#X#X7X9X9X2X2 # #                                                             ",
"                                                              o o O + o = k.%X%X@X%X+X7X0X0X>X; X o                                                             ",
"                                                              ; O o o O - l.$X+X+X%X+X<X8X0X>X; o o                                                             ",
"                                                                    o O & ^ Q Q Q W W &.%.%.;.o o o                                                             ",
"                                                                    O O & G U U U U U U U U J o o o                                                             ",
"                                                                    O O & G U T U U T T U U J X o o                                                             ",
"                                                                    O + ; _ | |  .*.*.^.;X;X:X].]._.2 o ;                                                       ",
"                                                                    O + = n m m ).'.'.5X0X0X0X0X0X4X2 o o                                                       ",
"                                                                    o o = n m m ).[.(.5X0X0X0X0X0X4X3 O o                                                       ",
"                                                                    o O O l l l n M M ).].].].].]._.2 O o                                                       ",
"                                                                          o o o ; ; o o o X o o o o                                                             ",
"                                                                          O O o o o o o o o ; o o O                                                             ",
"                                                                          o o ; o o o o o o o O o o                                                             ",
"                                                                                                                                                                ",
"                                                                                                                                                                ",
"                                                                                                                                                                "
};
