/* XPM */
static char *_641fe81baca4da3acb9c90eab150bcbjFR5V8hoiLFDqY3Z[] = {
/* columns rows colors chars-per-pixel */
"80 80 218 2 ",
"   c None",
".  c #3D251F",
"X  c #37231F",
"o  c #3D2722",
"O  c #3E2824",
"+  c #3B2728",
"@  c #3C2C3C",
"#  c #3D2A34",
"$  c #2D3932",
"%  c #503C1F",
"&  c #4B2625",
"*  c #422A25",
"=  c #452E29",
"-  c #492E29",
";  c #432723",
":  c #4D312B",
">  c #47312D",
",  c #52352E",
"<  c #513A23",
"1  c #4B3733",
"2  c #533631",
"3  c #5C3B34",
"4  c #543C38",
"5  c #562527",
"6  c #6D232B",
"7  c #67242A",
"8  c #7A222D",
"9  c #77222D",
"0  c #653E37",
"q  c #24423A",
"w  c #55411F",
"e  c #6D5C1A",
"r  c #79561A",
"t  c #51423F",
"y  c #654139",
"u  c #6B463D",
"i  c #6F493F",
"p  c #70493F",
"a  c #776026",
"s  c #3C2D45",
"d  c #3B2E4B",
"f  c #3B3159",
"g  c #373352",
"h  c #3A3366",
"j  c #383778",
"k  c #493450",
"l  c #403768",
"z  c #0F584E",
"x  c #00695C",
"c  c #217061",
"v  c #285F5A",
"b  c #5A4946",
"n  c #5E504D",
"m  c #455147",
"M  c #754D42",
"N  c #7B5146",
"B  c #785846",
"V  c #655654",
"C  c #614F4C",
"Z  c #746B69",
"A  c #7D7674",
"S  c #746B69",
"D  c #7F5962",
"F  c #9B1F33",
"G  c #8D1F30",
"H  c #A21F34",
"J  c #AE1E36",
"K  c #BE1C39",
"L  c #80222E",
"P  c #8D2031",
"I  c #982032",
"U  c #A02D3B",
"Y  c #D71A3D",
"T  c #CF1A3B",
"R  c #906816",
"E  c #A27715",
"W  c #A13D44",
"Q  c #FF1744",
"!  c #FA1843",
"~  c #FF1E49",
"^  c #E61E5B",
"/  c #E91D58",
"(  c #FD3454",
")  c #F02C4B",
"_  c #DD2262",
"`  c #FE3C62",
"'  c #825549",
"]  c #8A5A4D",
"[  c #8D5D50",
"{  c #805755",
"}  c #93474E",
"|  c #946254",
" . c #9D6959",
".. c #9B6758",
"X. c #A26C5C",
"o. c #A7715C",
"O. c #877B79",
"+. c #946C71",
"@. c #AD7362",
"#. c #B07564",
"$. c #B77A68",
"%. c #A26F6D",
"&. c #975F68",
"*. c #DB4A66",
"=. c #D1576D",
"-. c #CE4E60",
";. c #F45966",
":. c #CB6A6F",
">. c #FF6E71",
",. c #F16D70",
"<. c #998D13",
"1. c #B88811",
"2. c #AB9A0F",
"3. c #BDB50C",
"4. c #B3AA0E",
"5. c #C4950F",
"6. c #C5B30C",
"7. c #E8B522",
"8. c #D1CC08",
"9. c #FFC407",
"0. c #FFD705",
"q. c #E1DE05",
"w. c #EAE704",
"e. c #FFE403",
"r. c #FEFE00",
"t. c #F6F502",
"y. c #CDD53E",
"u. c #D9DF2E",
"i. c #DBE02D",
"p. c #90914B",
"a. c #90847F",
"s. c #BA8473",
"d. c #AFBB62",
"f. c #C2826E",
"g. c #CE8B76",
"h. c #C68571",
"j. c #D18C76",
"k. c #D28D78",
"l. c #D38572",
"z. c #DB937C",
"x. c #D6907A",
"c. c #E0967F",
"v. c #BAC556",
"b. c #FFD846",
"n. c #373B8F",
"m. c #363FA4",
"M. c #353FA9",
"N. c #763CBC",
"B. c #413E85",
"V. c #3542B7",
"C. c #3540AA",
"Z. c #3C429B",
"A. c #58629E",
"S. c #6E3EC6",
"D. c #3646C8",
"F. c #354AD9",
"G. c #324AE5",
"H. c #314CEC",
"J. c #3C56ED",
"K. c #2E4EFE",
"L. c #304EF6",
"P. c #304FFE",
"I. c #3B4CF4",
"U. c #2D50FF",
"Y. c #3654F6",
"T. c #3150FE",
"R. c #3B56F6",
"E. c #6372CC",
"W. c #4749E9",
"Q. c #4056F6",
"!. c #4356EE",
"~. c #5645DC",
"^. c #B1788E",
"/. c #9C7A92",
"(. c #CB6F84",
"). c #FF7FAB",
"_. c #937BCD",
"`. c #758AA9",
"'. c #8B8685",
"]. c #978B89",
"[. c #859796",
"{. c #9D9E9D",
"}. c #949291",
"|. c #94918E",
" X c #AD908F",
".X c #9F9FA0",
"XX c #AA94A8",
"oX c #9DA2A1",
"OX c #A1A1A1",
"+X c #AEA4A2",
"@X c #B9B5B5",
"#X c #B5ADAB",
"$X c #A1A09E",
"%X c #D49287",
"&X c #E59982",
"*X c #EA9D85",
"=X c #E59882",
"-X c #FB949B",
";X c #EEA088",
":X c #F3A38A",
">X c #FCA68E",
",X c #FDAA8F",
"<X c #FFA694",
"1X c #FFAC92",
"2X c #D598A7",
"3X c #FF8AA5",
"4X c #FF81AB",
"5X c #FF92A0",
"6X c #E09DA2",
"7X c #D5B1A6",
"8X c #FEC5B3",
"9X c #F8B7C4",
"0X c #DCBFC2",
"qX c #D5D1D0",
"wX c #FDD3CF",
"eX c #F7ECEF",
"rX c #FDFEFE",
"tX c #E9E8E8",
/* pixels */
"                                                                                                                                                                ",
"                                                                                                                                                                ",
"                                                                                                                                                                ",
"                                                              O o O o O O o ; o o o O o O o o o o O                                                             ",
"                                                              o O o O O o o o O O O O O O . O . o ;                                                             ",
"                                                              o o o o o o o o o O O . O O O O . o o                                                             ",
"                                                  o O O o o o O o 1 @.@.#.#.@.#.u O o B #.#.s.o.@.X.: o O                                                       ",
"                                                O o o o ; O O o o 3 :X1X1X1X1X1XB X X  .1X1X1X1X1X&X: O o                                                       ",
"                                                X + O O O o o o o 3 ;X1X,X1X1X1XB O . ..1X1X1X1X1X&X- o .                                                       ",
"                                                8 P P 7 o o 5 P P U ,.>.>.>.>.>.W I P } #.@.:.>.>.,.O.O.O.b                                                     ",
"                                          o o o K Q Q H o + 9 Q Q Q Q Q Q Q Q Q Q Q Q H X + 9 Q Q ` eXrXeXn X o o o o O o o o                                   ",
"                                          o O o K Q Q F X + 9 Q Q Q Q Q Q Q Q ~ Q Q Q H O O 9 Q Q ` eXrXtXn X X o o ; . o o o                                   ",
"                                          6 6 6 J T T H 6 6 F ! Q Q Q Q Q Q Q Q Q Q Q H O O 9 Q Q ( 9XwX9X} 7 7 k f f k t t t                                   ",
"                                    O o & Y ! ! L * * F Q ! ! Q Q Q ~ Q Q Q Q Q Q Q ~ H o o 9 Q Q Q ~ Q ~ ! ! ! N.L.K.E.{.{.O.; o O                             ",
"                                    O o & Y Q Q 8 o O I Q Q Q Q Q Q Q Q Q Q Q Q Q Q Q H + X 9 ! Q Q Q Q Q Q Q ! N.K.K.E.$X.XO.o o o                             ",
"                                    o ; & Y Q Q 8 O o F Q Q Q Q Q Q Q Q Q Q Q Q Q Q Q H X O 9 Q Q Q / ^ ^ / / / S.K.K.E.|.|.A o O o                             ",
"                                    o O & Y Q Q L o o F ! Q Q Q Q Q Q Q Q Q Q Q Q Q Q H O . 8 Q Q _ ~.W.W.W.W.W.I.T.P.Z.1 1 >                                   ",
"                                    o O & Y Q Q 8 o o F Q Q Q Q ~ Q Q Q Q Q Q Q Q Q Q H O . 8 ! Q _ I.P.K.K.P.K.K.P.T.n.. o o                                   ",
"                                    o o & Y ! ! 8 o o F ! ! ! ! ! ! ! ! ! ! ! ! ! ! Q F + X 8 Q ! _ W.L.L.L.L.L.L.L.P.n.o o O                                   ",
"                                          6 6 6 & o o 5 6 6 6 6 6 6 6 6 6 6 6 7 6 6 7 5 O O u :.:.:.k f f f f f f f f d                                         ",
"                                          o o o o o O o o o o o . . O + O O . X O O X O O o y g.j.$.- . o . o ; . o . o                                         ",
"                                          O o o O o o o o o o o O O O . O O O O . O O O O O u g.j.$.- O o O O o ; O o ;                                         ",
"                                    o O o o o o O o o O o o o ; O O O O * ' | | | | |  .#.#.f.*X*X=X#.#.o.2 o o o O O o                                         ",
"                                    O o O O O O o O o o o o o o o O . O = $.k.k.k.g.g.;X1X1X1X1X1X1X1X1X:Xy o o o o o o                                         ",
"                                    o o O o o o o o o o o o o o . o o o - #.k.g.g.g.g.&X1X1X1X,X1X1X1X1X:X3 o o o o o o                                         ",
"                                    o O o o ; O o O o O o o : N M i O o - #.k.g.z.&Xc.:X1X,X1X1X1X:X$.@.@.| ] [ 3 o o o                                         ",
"                                    O o o O O o O o o ; o o b g.k.$.: o - $.j.g.;X1X1X1X1X1X1X1X1Xz.: o > z.1X1XN o o o                                         ",
"                                    ; o O o o O o o o O o ; u g.j.$.= o * #.j.g.;X1X,X1X1X,X1X,X1X=X: o : z.1X1X' X . o                                         ",
"                                    o O o o o ; o o ; O o + 0 g.j.s.M i M h.z.z.:X1X1X1X1X>X1X1X1X&X: o - z.1X1X .i i y                                         ",
"                                    O o O ; o O O ; o o o o M g.j.x.:X,X:X1X1X1X1X1X>X1X1X1X1X1X1Xz.: o - z.1X1X>X:X,XX.o o o                                   ",
"                                    O o o O o o o o o o o X M g.j.x.>X1X1X1X1X1X1X1X>X1X1X1X1X1X1Xz.: . - z.1X1X1X1X1XX.o o o                                   ",
"                                    o O O o o O o O o O o o 0 $.f.h.>X>X1X<X<X<X<X<X<X<X<X<X<X1X1X&Xy : 3 x.1X,X;X*X*X..o o O                                   ",
"                                          o O O o o o o o O * : : u :X1X1X3X4X3X4X4X3X4X4X3X5X1X1X,X*X*X&Xx.k.x.N 2 2 ,                                         ",
"                                          o O O o O o O O O O O . 3 ;X1X1X3X).).4X).4X4X4X4X3X1X1X1X1X1X1Xx.g.g.i o o o                                         ",
"                                          O O O O o O O ; * O * * y :X,X<X3X).).4X4X4X).4X).3X1X1X1X,X1X,Xx.g.j.i o o o                                         ",
"                                                o ; o M @.@.$.g.g.k.>X1X<X3X).).).4X).4X).).3X1X1X,X1X1X1Xz.g.g.i o o o                                         ",
"                                                O o o ' k.j.=X1X1X1X<X1X<X3X).).).4X).).4X4X3X1X1X,X1X1X,Xx.g.g.i o O o                                         ",
"                                                o o O ' k.j.=X1X1X1X>X1X1X3X).).4X).4X4X).4X3X<X1X1X1X1X1Xz.g.j.i o o o                                         ",
"                                                      u M M ..=X&X&X1X1X<X3X).).).4X4X).4X4X(.| [ ..z.&Xz.[ N M 3                                               ",
"                                                        o o 0 g.g.x.>X1X<X3X).).4X).4X4X4X4X(.o . , f.g.f.2 o .                                                 ",
"                                                        O o u j.j.z.,X1X<X3X4X4X).).).).).4X(.O o , h.k.h.3 o o                                                 ",
"                                                      o o o 2 | | X.&X;X*X-X5X5X5X5X5X5X5X5X(.N N N | | | 2 o ;                                                 ",
"                                          o o O O o o o o o o o o 2 f.g.k.:X1X1X1X1X<X1X1X1X:Xj.j.$.- o o                                                       ",
"                                          O o o ; o o o + o + X o 2 h.j.k.>X1X1X1X1X1X1X1X1X:Xk.k.$.- o o                                                       ",
"                                          O o ; O o o % e e e e e a o.@.@.h.j.j.*X:X:X=Xg.j.h.@.@. .- O o                                                       ",
"                                                o O + <.r.r.t.t.r.8.< O * * * * X.k.j.[ * * * * * *                                                             ",
"                                                o o + <.r.r.r.r.r.q.< + o o o *  .l.l.' . o o o O O                                                             ",
"                                                % w % 2.r.r.t.w.w.8.1 @ @ @ @ @ +. X%XD @ @ # o o O                                                             ",
"                                          * ; O 4.w.w.t.r.r.8.w w t F.G.G.G.G.G.J.!.!.H.G.H.C.O O o                                                             ",
"                                          o o o 3.r.r.r.r.r.6.o o d H.T.P.P.T.T.K.P.P.K.U.U.V.O o O                                                             ",
"                                          o o o 3.r.r.r.r.r.6.O . s H.K.P.Y.Y.Y.Y.Y.L.Y.L.T.V.O o O                                                             ",
"                                          o O * 3.r.r.e.0.0.5.; o s H.T.Y.d.y.y.y.y.y.p.f f s O ; o O o O                                                       ",
"                                          O o o 3.r.r.e.9.9.5.O o s H.P.J.i.r.r.r.r.r.2.. . O O o O o O o                                                       ",
"                                          o o * 3.r.r.e.9.9.5.O . s H.P.J.u.r.r.r.r.r.2.X . . . o o O O o                                                       ",
"                                          o o o 4.0.0.5.R R M m.m.V.T.K.Y.`.[.[.[.[.`.a.#.#.s.+X+X}.1 o O                                                       ",
"                                          o O o 5.9.9.E X X h K.P.P.P.P.K.K.K.K.K.T.L._.1X,X8XrXrXqX2 ; o                                                       ",
"                                          O O ; 1.9.9.E o . h K.P.P.Y.P.P.P.P.P.K.K.K._.1X1X8XeXrXqX1 o .                                                       ",
"                                            O O R 1.1.r o o d m.m.C.C.m.C.H.P.P.`.[.`. X1X,X8XwXwXqXB.j j s                                                     ",
"                                                O O o o o o o o . * . * + F.P.P.v.r.t.b.1X1X1X1X,X6XQ.P.L.d o o                                                 ",
"                                                O O ; o . o . o . . . . # F.P.P.d.r.r.b.1X1X1X1X,X6XQ.T.L.d . o                                                 ",
"                                                . O o @ f f f f f f f f f V.D.D.p.8.8.7.g.l.%X2X2XXXD.D.D.@ o ;                                                 ",
"                                                O O . n.L.K.L.Y.L.L.L.L.H.g o + * ; % ; = o h I.Y.F.> = + O o o         o o ;                                   ",
"                                                O . . n.P.P.P.P.T.K.P.P.L.d o o o . o o o o h K.K.F.@ + o o o O         o o o                                   ",
"                                                : , , j G.G.H.P.P.T.P.K.L.f @ @ @ @ @ @ @ @ j G.G.D.d @ @ 2 2 2       4 4 t 4                                   ",
"                                    O o O O O . ..s.s.B @ @ j Y.T.P.P.P.P.H.G.G.G.G.G.G.G.G.V.@ @ f F.G.F.2Xc.*XN . . ].tXtX#X= ; O                             ",
"                                    O o O O O O  .k.j.] . . h U.P.T.P.P.P.P.P.P.P.P.P.P.P.U.V.O . s L.P.R.2X,X,X' X X ].rXeX@XO O O                             ",
"                                    o O . O O X  .j.j.] * * h Y.L.L.L.L.L.L.L.L.L.L.L.L.U.U.V.O O s H.T.!.2X>X>X' . + ].rXrX@X* O o                             ",
"                                    o o # Z a./.-.( ) ;.j.k.%.f f f f f f f f f f f f f f f g z z v ].^.^.;.` ( / T T :.@X@X'.O O o                             ",
"                                    O o - '.oX.X*.Q ! ;.1X1Xh.* o ; . . . ; . o o o o . o ; $ x x c h.j.l.) Q Q Q Q Q =.{..XA * o O                             ",
"                                    o o = '..X.X*.Q ! ;.1X1Xh.O O o o o O o o O o o o ; o . $ x x c s.j.l.) Q Q ~ ~ Q =.oXoXO.O O O                             ",
"                                    ; O = '.oX.X} G P } [ [ M O O o                         $ q q m z.;X*X~ Q Q _ :.$.&.V V n                                   ",
"                                    O o > '..X.XC . X + . O . O o o                           ; . y :X>X>X( Q Q ^..X.XS o o o                                   ",
"                                    o O = '.OXOXb . X o o o o o o ;                           O . 3 :X1X<X( Q Q $..X.XS o o o                                   ",
"                                    O O = S Z Z O.O.a.C o o o o o                             o O 4 @.#.@.=.*.*.&.A Z V o O                                     ",
"                                          O o o #XrXrX Xo O o                                       . O = '.oX{.C X + +                                         ",
"                                          O o O @XrXrX{.X ; o                                       o O = '.oX.XC + o o                                         ",
"                                          o o * }.qXqXO.o o o                                       O o - A '.O.b o O                                           ",
"                                                - * * * o o o                                             O = *                                                 ",
"                                                                                                                                                                ",
"                                                                                                                                                                "
};
