/* XPM */
static char *eb0f1a66052d487b8ecf9698914bb05d07QWc3KOKfgmfG8v[] = {
/* columns rows colors chars-per-pixel */
"80 80 218 2 ",
"   c None",
".  c #3D251F",
"X  c #37231F",
"o  c #3D2722",
"O  c #3E2824",
"+  c #3B2728",
"@  c #3C2C3C",
"#  c #3D2A34",
"$  c #2D3932",
"%  c #503C1F",
"&  c #4B2625",
"*  c #422A25",
"=  c #452E29",
"-  c #492E29",
";  c #432723",
":  c #4D312B",
">  c #47312D",
",  c #52352E",
"<  c #513A23",
"1  c #4B3733",
"2  c #533631",
"3  c #5C3B34",
"4  c #543C38",
"5  c #562527",
"6  c #6D232B",
"7  c #67242A",
"8  c #7A222D",
"9  c #77222D",
"0  c #653E37",
"q  c #24423A",
"w  c #55411F",
"e  c #6D5C1A",
"r  c #79561A",
"t  c #51423F",
"y  c #654139",
"u  c #6B463D",
"i  c #6F493F",
"p  c #70493F",
"a  c #776026",
"s  c #3C2D45",
"d  c #3B2E4B",
"f  c #3B3159",
"g  c #373352",
"h  c #3A3366",
"j  c #383778",
"k  c #493450",
"l  c #403768",
"z  c #0F584E",
"x  c #00695C",
"c  c #217061",
"v  c #285F5A",
"b  c #5A4946",
"n  c #5E504D",
"m  c #455147",
"M  c #754D42",
"N  c #7B5146",
"B  c #785846",
"V  c #655654",
"C  c #614F4C",
"Z  c #746B69",
"A  c #7D7674",
"S  c #746B69",
"D  c #7F5962",
"F  c #9B1F33",
"G  c #8D1F30",
"H  c #A21F34",
"J  c #AE1E36",
"K  c #BE1C39",
"L  c #80222E",
"P  c #8D2031",
"I  c #982032",
"U  c #A02D3B",
"Y  c #D71A3D",
"T  c #CF1A3B",
"R  c #906816",
"E  c #A27715",
"W  c #A13D44",
"Q  c #FF1744",
"!  c #FA1843",
"~  c #FF1E49",
"^  c #E61E5B",
"/  c #E91D58",
"(  c #FD3454",
")  c #F02C4B",
"_  c #DD2262",
"`  c #FE3C62",
"'  c #825549",
"]  c #8A5A4D",
"[  c #8D5D50",
"{  c #805755",
"}  c #93474E",
"|  c #946254",
" . c #9D6959",
".. c #9B6758",
"X. c #A26C5C",
"o. c #A7715C",
"O. c #877B79",
"+. c #946C71",
"@. c #AD7362",
"#. c #B07564",
"$. c #B77A68",
"%. c #A26F6D",
"&. c #975F68",
"*. c #DB4A66",
"=. c #D1576D",
"-. c #CE4E60",
";. c #F45966",
":. c #CB6A6F",
">. c #FF6E71",
",. c #F16D70",
"<. c #998D13",
"1. c #B88811",
"2. c #AB9A0F",
"3. c #BDB50C",
"4. c #B3AA0E",
"5. c #C4950F",
"6. c #C5B30C",
"7. c #E8B522",
"8. c #D1CC08",
"9. c #FFC407",
"0. c #FFD705",
"q. c #E1DE05",
"w. c #EAE704",
"e. c #FFE403",
"r. c #FEFE00",
"t. c #F6F502",
"y. c #CDD53E",
"u. c #D9DF2E",
"i. c #DBE02D",
"p. c #90914B",
"a. c #90847F",
"s. c #BA8473",
"d. c #AFBB62",
"f. c #C2826E",
"g. c #CE8B76",
"h. c #C68571",
"j. c #D18C76",
"k. c #D28D78",
"l. c #D38572",
"z. c #DB937C",
"x. c #D6907A",
"c. c #E0967F",
"v. c #BAC556",
"b. c #FFD846",
"n. c #373B8F",
"m. c #363FA4",
"M. c #353FA9",
"N. c #763CBC",
"B. c #413E85",
"V. c #3542B7",
"C. c #3540AA",
"Z. c #3C429B",
"A. c #58629E",
"S. c #6E3EC6",
"D. c #3646C8",
"F. c #354AD9",
"G. c #324AE5",
"H. c #314CEC",
"J. c #3C56ED",
"K. c #2E4EFE",
"L. c #304EF6",
"P. c #304FFE",
"I. c #3B4CF4",
"U. c #2D50FF",
"Y. c #3654F6",
"T. c #3150FE",
"R. c #3B56F6",
"E. c #6372CC",
"W. c #4749E9",
"Q. c #4056F6",
"!. c #4356EE",
"~. c #5645DC",
"^. c #B1788E",
"/. c #9C7A92",
"(. c #CB6F84",
"). c #FF7FAB",
"_. c #937BCD",
"`. c #758AA9",
"'. c #8B8685",
"]. c #978B89",
"[. c #859796",
"{. c #9D9E9D",
"}. c #949291",
"|. c #94918E",
" X c #AD908F",
".X c #9F9FA0",
"XX c #AA94A8",
"oX c #9DA2A1",
"OX c #A1A1A1",
"+X c #AEA4A2",
"@X c #B9B5B5",
"#X c #B5ADAB",
"$X c #A1A09E",
"%X c #D49287",
"&X c #E59982",
"*X c #EA9D85",
"=X c #E59882",
"-X c #FB949B",
";X c #EEA088",
":X c #F3A38A",
">X c #FCA68E",
",X c #FDAA8F",
"<X c #FFA694",
"1X c #FFAC92",
"2X c #D598A7",
"3X c #FF8AA5",
"4X c #FF81AB",
"5X c #FF92A0",
"6X c #E09DA2",
"7X c #D5B1A6",
"8X c #FEC5B3",
"9X c #F8B7C4",
"0X c #DCBFC2",
"qX c #D5D1D0",
"wX c #FDD3CF",
"eX c #F7ECEF",
"rX c #FDFEFE",
"tX c #E9E8E8",
/* pixels */
"                                                                                                                                                                ",
"                                                                                                                                                                ",
"                                                                                                                                                                ",
"                                                            O o o o O o ; o o O O O O o o O o o O                                                               ",
"                                                            o O o o O O O o o O O O O o o O o O o                                                               ",
"                                                            o o o o o O o O O o O + o o o o o O O                                                               ",
"                                                      o o : X.#.@.@.@.#.M o o y #.#.#.#.@.o., o o O o o O o O                                                   ",
"                                                      o o : =X1X1X1X1X1X..o o ' 1X1X1X1X1X:X3 o ; o O o o O o o                                                 ",
"                                                      X o 5 z.<X1X1X1X1XX.o o ' 1X1X1X1X1X:X4 o o o o o o + o o                                                 ",
"                                                    b O.O.O.,.>.>.:.@.s.} P G W >.>.>.>.>.,.U P P & o o 7 P P L                                                 ",
"                                  o o o o ; o o o o n eXrXeX` Q ! 9 X o H Q Q Q Q Q ! Q Q Q Q Q ! 8 o o F Q Q K ; o o                                           ",
"                                  o o . o . o o o X n eXrXeX` Q ! 6 o o H Q Q Q Q ! Q Q Q Q Q Q ! 9 + o H Q Q K O o o                                           ",
"                                  t b b k f f k 6 6 } 9XwX9X( Q ! 8 o o I ! Q Q Q Q Q ! Q Q Q Q ! F 6 6 F Y Y J 6 6 6                                           ",
"                            o o O A {.}.E.L.L.N.! ! ! ! ~ ~ Q Q ! 8 o o H ! Q Q Q Q Q Q ! Q Q Q Q ! ! Q F O O 8 ! Q Y & o O                                     ",
"                            O o o O.$X{.E.K.K.N.Q Q ! ! Q ! ! ! Q 8 o O H ! ! Q Q Q Q Q Q ! Q Q Q Q Q Q I o o L Q Q Y & O o                                     ",
"                            O o o A }.|.E.K.K.S.^ / ^ ^ / / Q ! ! 8 o o H ! ! ! Q ! Q ! Q Q Q Q ! Q Q ! I o o L Q ! Y & o o                                     ",
"                                  1 1 > Z.T.P.I.W.W.W.W.W.~.^ ! Q 9 o + H Q Q Q Q Q Q Q Q Q Q Q Q ! Q Q F o + 8 Q Q Y & ; o                                     ",
"                                  o o . n.T.U.K.U.U.T.U.K.!.^ Q ! 6 o o H ! Q ! Q Q Q Q Q Q Q ! Q Q Q Q F o X 8 Q Q Y & O o                                     ",
"                                  o o o n.P.L.L.L.L.L.L.K.I._ Q ! 8 o o H Q ! ! ! ! ! ! ! ! ! ! ! ! ! ! F o o L ! ! Y & o O                                     ",
"                                        d f f f f f f f f k :.:.,.0 o O 5 6 6 7 6 6 6 6 6 6 6 6 6 6 6 6 5 o O & 6 6 6                                           ",
"                                        o o o . o . o . . - $.k.h.u o o O o o o o o o o o o o o O o o o o o o o o o o                                           ",
"                                        O O o ; o o o o o = $.g.g.u o o o O o o o o o o o o o o O O o O O o O o o o O                                           ",
"                                        o O o o o o 2 o.#.#.&X;X;Xs.@.@. .| | | | | N = o o o o O o O o o o O o o o o o o o                                     ",
"                                        ; o O o o o y ,X1X1X1X1X1X1X1X1X*Xj.k.k.k.k.$.= o o o o O o o O O o o O o O O o O O                                     ",
"                                        o o O o o X 3 :X1X1X1X1X1X1X1X,X*Xg.g.g.g.j.$.- o o o o o ; o o O o O o O o o o O o                                     ",
"                                        o o o 3 ] [ | #.@.#.:X1X,X1X1X1X;X&Xc.z.j.j.#.= o * M N N - o o o o o o O o O o o O                                     ",
"                                        o o o ' 1X1Xz.- o : =X1X1X,X1X,X1X,X1X;Xg.j.$.= o - $.k.g.M o o o ; O o o o O O o O                                     ",
"                                        o o X N 1X1Xz.: o : z.1X1X1X1X1X1X1X1X;Xg.j.#.= o * $.k.g.0 o o o O ; o O o o ; O o                                     ",
"                                        y i u  .1X1Xz.- o : &X1X1X,X1X,X1X1X1X:Xz.z.h.M u B :.j.g.M + o O o O O O o o O o O                                     ",
"                                  o o o X.>X:X1X1X1Xz.: o : z.1X1X1X1X1X,X1X1X,X>X1X1X:X,X:Xx.j.g.y o o o o o o o O o ; ; o                                     ",
"                                  o O o X.1X1X1X1X1Xz.= X : z.1X1X,X1X1X1X1X1X1X1X1X1X1X,X,X%Xj.h.M X o o O ; o o O O o o O                                     ",
"                                  O o o ..*X*X;X>X1Xz.3 , 0 &X1X1X<X<X<X<X<X<X1X<X1X1X,X,X,Xg.$.$.3 o o O o O o O o o o O o                                     ",
"                                        , , , N k.k.z.*X*X*X,X1X1X5X4X3X4X4X3X4X4X3X3X1X1X:Xu > : = o o ; o O o o O ;                                           ",
"                                        o o o i j.g.k.,X1X1X1X,X,X3X).).4X4X4X4X).).3X<X1X*X3 o o o o o o O o O O o o                                           ",
"                                        o o o i j.g.k.,X,X1X1X1X1X5X).4X).4X4X4X).).3X<X1X:Xy ; * ; * * o o o o o O o                                           ",
"                                        o o o i g.g.z.,X1X1X1X,X,X3X).4X4X).4X4X).).3X<X1X>Xx.g.j.$.@.#.M o O O                                                 ",
"                                        O o o i g.g.x.1X1X1X1X1X1X3X).4X).4X).4X).).3X<X,X1X1X1X1X=Xj.k.' O O o                                                 ",
"                                        o o o i j.j.z.,X1X1X1X1X1X3X).4X4X).).4X).).3X<X1X1X1X1X1Xz.g.k.' o o O                                                 ",
"                                              3 N M [ z.=Xz...[ [ (.4X4X4X).4X).).).3X1X1X,X*Xc.&X .M M u                                                       ",
"                                                o o 2 h.j.f., X ; (.4X).4X4X).4X).).3X<X1X,Xk.g.g.y o o                                                         ",
"                                                O o 3 h.x.h.2 o + (.4X).).).).).).).3X<X1X1X%Xj.g.u o o                                                         ",
"                                                o o 2 [ | | N N N (.5X5X5X5X5X5X5X5X5X*X*X=XX.| | 2 o O o                                                       ",
"                                                      O o = $.k.k.:X1X1X1X1X1X1X1X1X:Xj.g.f., o o O O o O o o O O o o                                           ",
"                                                      O o - $.k.k.:X1X1X1X1X1X1X1X1X>Xx.k.f., + + o o o O o o o o O O                                           ",
"                                                      O O -  .@.@.h.j.g.=X:X:X&Xg.g.h.@.@.o.a e e e e e % o o o o O o                                           ",
"                                                            * ; * * ; O [ k.j. .* = = * * < q.t.t.t.t.r.<.+ o o                                                 ",
"                                                            O o O O o o ] l.x...o o ; o . < q.r.r.r.r.r.<.o o ;                                                 ",
"                                                            o O O # @ @ D  X%X&.@ @ @ @ @ 1 8.w.w.t.r.r.2.< w %                                                 ",
"                                                            O ; # M.G.G.J.!.!.J.G.G.G.G.G.F.t w w 8.r.r.t.w.w.4.o O o                                           ",
"                                                            o o + M.K.K.K.P.K.K.P.P.P.T.K.H.s o ; 6.r.r.r.r.r.3.; o o                                           ",
"                                                            o ; o M.K.L.L.R.Y.Y.Y.Y.Y.U.U.H.s o o 6.r.r.r.r.r.3.O O o                                           ",
"                                                      o o o o o + d f f p.y.y.y.y.y.d.R.K.H.s ; O 5.0.0.e.r.r.3.o o O                                           ",
"                                                      O o O o o + o ; X <.r.r.r.r.r.i.J.U.H.s o O 5.9.9.0.t.r.3.; o o                                           ",
"                                                      o ; o . X o o . + 2.r.r.r.r.r.i.J.K.H.s o o 5.9.9.e.r.r.6.O o O                                           ",
"                                                      o o > ].+X+Xs.@.#.a.[.[.[.[.[.`.Y.T.L.V.m.C.B R R 5.e.0.4.o O O                                           ",
"                                                      O o 1 tXrXrX8X<X1X_.K.K.K.K.K.K.T.P.P.K.T.T.h X o E 9.9.1.; o ;                                           ",
"                                                      ; ; , qXrXrX8X1X1X_.K.K.K.P.P.P.T.U.T.U.T.U.h . o E 9.9.5.o O o                                           ",
"                                                    s j j B.qXwXwX1X1X1X+X[.[.E.P.P.H.C.m.m.C.Z.m.d o o r 1.1.R O o                                             ",
"                                                o o d L.P.Q.6X<X1X1X1X1Xb.r.r.v.L.T.F.# o ; . o o o o o + o o O                                                 ",
"                                                ; . s L.P.Q.6X1X1X1X1X1Xb.r.r.v.K.K.F.+ . o . o ; . . X o o o o                                                 ",
"                                                o o s V.D.D.XX2X2X%Xj.j.7.8.8.p.D.D.V.h f f f f f f f f # o ; o                                                 ",
"                                  O O O         o o ; + + @ F.T.Y.l * * # O * = + o d H.L.L.L.L.L.L.L.T.n.. o o                                                 ",
"                                  o o o         o O O O o # F.U.K.h . * O . . O . ; d H.T.K.P.P.T.U.K.T.n.. o o                                                 ",
"                                  4 4 t 4       2 2 2 @ @ d D.G.G.h @ @ @ @ @ @ @ @ h L.K.T.P.P.P.H.G.G.B.: , :                                                 ",
"                            o ; O #XtXtX/.X o N *X*X%XH.H.F.f # @ V.G.G.G.G.G.G.G.G.H.T.T.T.K.T.P.j # @ { f.f.| O O O O O .                                     ",
"                            o O ; @XrXrX].X X ' 1X,X2XY.P.L.s . + V.U.U.T.U.T.U.T.U.T.L.U.L.P.P.L.h . . ] k.k. .O O O O O O                                     ",
"                            o o O @XrXrX].+ & ' >X,X6XI.Y.H.s o + V.K.Y.L.L.L.L.L.L.K.L.L.K.L.Y.L.h = * ] j.j.X.O O O O O o                                     ",
"                            o O O '.@X@X:.T T Y ( ( ;.^././.v z z g f f f f f f f f f f f f f f f %.k.j.;.( ) -.A /.A = O o                                     ",
"                            o ; ; A .X{.=.Q Q Q Q Q ~ l.k.h.c x x $ . . . o . o . . o . ; . o . O h.1X1X;.Q Q *..XOX'.= o O                                     ",
"                            O o + O.oXoX=.Q Q Q Q ! ( l.k.h.c x x $ ; o o ; o o o ; o o o o o o + h.1X1X>.Q Q *..X.X'.> O ;                                     ",
"                                  n V V &.:.$.*.! Q ( c.;X%Xm q q $                         o O O M [ ] W G G } {..X'.= o o                                     ",
"                                  O O o S .XXX^.Q Q ( >X,X:X3 O ;                           o ; O O o X X . X b .XOX'.= o O                                     ",
"                                  o o o S oXoX(.Q Q ( >X1X:X3 o ;                           O o O o O o o X X C {.OX].= o o                                     ",
"                                    o o V Z S &.*.*.=.#.#.@.3 o o                             o o O o o V a.O.O.Z Z S = O o                                     ",
"                                        o o o n {.$X'.= o o                                       o O o }.rXrX@Xo o o                                           ",
"                                        o o o n {.{.'.= o o                                       o o X  XrXrX@XO o o                                           ",
"                                          o o b '.'.A = o o                                       o o o O.qXqX}.O o O                                           ",
"                                                O O ;                                             ; O o O ; = =                                                 ",
"                                                                                                                                                                ",
"                                                                                                                                                                "
};
