/* XPM */
static char *c526341b693b45afb305920f74c50174UuPHcWhxvRcoz8NQ[] = {
/* columns rows colors chars-per-pixel */
"80 80 214 2 ",
"   c None",
".  c #3D251E",
"X  c #37231F",
"o  c #3D2723",
"O  c #3E2824",
"+  c #3B2626",
"@  c #3D2A34",
"#  c #3C2C3C",
"$  c #523E1F",
"%  c #4C351E",
"&  c #4A2625",
"*  c #432A26",
"=  c #442C28",
"-  c #492F29",
";  c #442824",
":  c #562527",
">  c #4C312B",
",  c #493523",
"<  c #52352E",
"1  c #513A23",
"2  c #4C3632",
"3  c #4A3A38",
"4  c #5B3C34",
"5  c #553731",
"6  c #6D232B",
"7  c #67242A",
"8  c #7A222D",
"9  c #77222D",
"0  c #653E37",
"q  c #55401F",
"w  c #6D5C1A",
"e  c #6E4E1B",
"r  c #51423F",
"t  c #654139",
"y  c #6B463D",
"u  c #6F493F",
"i  c #70493F",
"p  c #776026",
"a  c #3B2E49",
"s  c #3B3159",
"d  c #3B3057",
"f  c #393266",
"g  c #3A3979",
"h  c #453548",
"j  c #483355",
"k  c #584745",
"l  c #5E5151",
"z  c #734C41",
"x  c #784F44",
"c  c #7B5146",
"v  c #7D5549",
"b  c #614F4C",
"n  c #6B6765",
"m  c #787776",
"M  c #776D6C",
"N  c #9B1F33",
"B  c #8C1F30",
"V  c #A21F34",
"C  c #AE1E36",
"Z  c #BE1C39",
"A  c #80222E",
"S  c #8D2031",
"D  c #982032",
"F  c #A02D3B",
"G  c #DB1A3E",
"H  c #D41B3D",
"J  c #C41A38",
"K  c #8E6717",
"L  c #A27615",
"P  c #9E6D3C",
"I  c #B43B47",
"U  c #FF1744",
"Y  c #FA1843",
"T  c #FF1E49",
"R  c #E61E5B",
"E  c #E91D58",
"W  c #FF3B57",
"Q  c #FF3859",
"!  c #DD2262",
"~  c #FE3C62",
"^  c #DB374D",
"/  c #82554A",
"(  c #87594D",
")  c #8D5D50",
"_  c #95464D",
"`  c #936254",
"'  c #9B6758",
"]  c #9D685A",
"[  c #976E45",
"{  c #A26C5C",
"}  c #A4725B",
"|  c #AF4F62",
" . c #BE5E71",
".. c #877C7A",
"X. c #947C7A",
"o. c #AD7362",
"O. c #B07564",
"+. c #B47866",
"@. c #B77A68",
"#. c #BB7D6A",
"$. c #B77C71",
"%. c #FF5173",
"&. c #FF4564",
"*. c #CC6B6E",
"=. c #FF6E71",
"-. c #F16D70",
";. c #C4435A",
":. c #998E13",
">. c #BE8D11",
",. c #B49610",
"<. c #B2A90E",
"1. c #BEB60E",
"2. c #999223",
"3. c #C7980F",
"4. c #FBBD08",
"5. c #C5BE0A",
"6. c #DDD805",
"7. c #CDC80D",
"8. c #FFC307",
"9. c #FFCA06",
"0. c #E2DF03",
"q. c #FBD705",
"w. c #EAE804",
"e. c #FEFE00",
"r. c #F9F608",
"t. c #F8E706",
"y. c #99A05D",
"u. c #B2B854",
"i. c #BF806D",
"p. c #AAB768",
"a. c #ABB869",
"s. c #969C5B",
"d. c #C3836F",
"f. c #C68471",
"g. c #CE8B76",
"h. c #C98672",
"j. c #D08C77",
"k. c #D28D78",
"l. c #DB8E7A",
"z. c #DB937C",
"x. c #D6907A",
"c. c #D79A6A",
"v. c #E0967F",
"b. c #B9C456",
"n. c #373B94",
"m. c #333FB5",
"M. c #763CBC",
"N. c #3C429B",
"B. c #3441B4",
"V. c #414187",
"C. c #55619D",
"Z. c #6E3EC6",
"A. c #3345C8",
"S. c #3249DC",
"D. c #3247D7",
"F. c #324BE5",
"G. c #314CEF",
"H. c #2E4EFE",
"J. c #304EF6",
"K. c #304FFE",
"L. c #3B4CF4",
"P. c #2D50FF",
"I. c #3050FF",
"U. c #6479C2",
"Y. c #6372CD",
"T. c #4849E8",
"R. c #444AE9",
"E. c #485AF1",
"W. c #455DF7",
"Q. c #4457EF",
"!. c #4864FF",
"~. c #5558CF",
"^. c #CE6E85",
"/. c #FF7FAB",
"(. c #9A9A99",
"). c #918E8C",
"_. c #A69294",
"`. c #A1A09E",
"'. c #9DA1A0",
"]. c #AEA4A2",
"[. c gray63",
"{. c #D39186",
"}. c #E29780",
"|. c #E59982",
" X c #EA9D85",
".X c #ED9D88",
"XX c #EB9199",
"oX c #EEA088",
"OX c #F3A38A",
"+X c #FCA68E",
"@X c #FCA98F",
"#X c #E8A19E",
"$X c #FFA694",
"%X c #FFAC92",
"&X c #FFB095",
"*X c #FF8AA5",
"=X c #FF81AB",
"-X c #FF92A0",
";X c #FD9EB0",
":X c #E49FAB",
">X c #CDBBB7",
",X c #FEB9A4",
"<X c #FEC5B3",
"1X c #A8B4FC",
"2X c #A4A8D5",
"3X c #F8B7C4",
"4X c #DEDAD9",
"5X c #CBCECD",
"6X c #FEC9C9",
"7X c #F8D4CC",
"8X c #F7ECEF",
"9X c #E9EDFF",
"0X c #FDFEFE",
"qX c #EEF1F0",
/* pixels */
"                                                                                                                                                                ",
"                                                                                                                                                                ",
"                                                                                                                                                                ",
"                                                            o O o O o o o o o ; o O o o o o O o ;                                                               ",
"                                                            o o o o o O o o O o O o o o o o o O o                                                               ",
"                                                            o O o o o o O o o O O + o o o o o O o                                                               ",
"                                                      o o > { O.o.O.o.+.z o o t O.O.O.o.o.o.< o o o o o o o O                                                   ",
"                                                      O o > }.%X%X%X%X%X' o o / %X&X%X%X%XOX4 O o O ; o O o o ;                                                 ",
"                                                      X + = z.%X&X&X&X&X} X X v &X%X%X&X&XOXq + + o O o o o o o                                                 ",
"                                                    k ....s.-.=.=.*.o.o._ S S I =.=.=.=.=.-.F S S : o o 7 S S 8                                                 ",
"                                  o o ; o O o o ; o b qX0X8X~ U U 9 . + V U U U U U U U U U U U U 9 X o V U U Z o O o                                           ",
"                                  . o . o . ; . o o b 8X0X8X~ U U 9 X o V U U U U U U U U Y U U Y 9 + + V U U Z o o o                                           ",
"                                  3 k k h d d h 6 7 _ 3X6X3XQ U Y 8 O + N U U U U U U U U U U Y Y N 6 6 N H H C 6 6 6                                           ",
"                            o o ; m `.(.Y.H.H.M.Y Y Y Y T T U U U 8 X + V U U U U U U U U U U U Y Y Y Y N O O A Y Y H & O o                                     ",
"                            o O ; ..[.`.Y.K.H.M.U U Y Y U U U U Y 9 O o V U U U U U U U U U U U Y U Y Y D o o A U U G & O o                                     ",
"                            ; o ; m ).).Y.H.H.Z.E R R R E E Y U U 9 o o V T U U U U U U U U U U U U U U D + o A U U G & o o                                     ",
"                                  2 2 > N.I.K.L.T.T.T.T.T.T.R U Y 9 X + V U Y Y U U U U U U U U U U U U N o + A Y Y G & O O                                     ",
"                                  o o . n.P.H.P.P.P.H.P.J.T.! U Y 9 . + V U Y Y U U U U U U U Y U Y U U D o X 8 Y Y G & o O                                     ",
"                                  o o o n.I.J.J.I.J.J.J.J.R.! T T 8 o o V U Y Y Y Y Y Y Y Y Y Y Y Y Y Y D o O A Y U G & o o                                     ",
"                                        a s s s s s s s s j  .*.*.0 o O : 6 6 6 6 6 6 6 6 6 6 6 6 6 6 6 : o o & 6 6 6                                           ",
"                                        o o . ; . o . . . - @.k.l.y . ; o o + o o o o + o o o o o o o o o o o o o o o                                           ",
"                                        O O o o o o ; o o - @.g.g.y . . o O . o o o o . O o o o o o o o O O O o o o o                                           ",
"                                        o o o o o o < o.o.+.}.oXoXd.o.o.] ` ` ` ` ` / * O o o o O O o o o o o o O O ; o o O                                     ",
"                                        o ; o o o . t OX&X&X%X%X%X%X%X&XoXk.k.k.k.k.@.= o o O o o o o ; o O o O o o o O o o                                     ",
"                                        o o o o o X 0 OX%X%X%X%X@X%X%X%X|.g.g.g.g.j.+.- + o o o o o o o ; o o O O o o O o o                                     ",
"                                        o o o 5 ) ) ` o.o.+.OX%X%X%X@X%XOXv.}.z.j.j.+.- o * z c x < o o o O o o o o o o o O                                     ",
"                                        o o . v %X%Xz.- + - }.%X@X%X@X%X%X%X%XOXg.j.O.- o - +.j.g.y o o o o O o O O o ; ; o                                     ",
"                                        o o X v %X%Xz.- o > }.%X%X%X%X%X%X@X%XoXg.j.+.* o * @.j.g.y o o O o o o o o o o o o                                     ",
"                                        t u y ] %X%Xz.- o > z.%X@X%X%X@X%X%X%XOXz.z.f.z z z #.j.h.y o O o O o o ; o o O o o                                     ",
"                                  o o o { @X+X@X%X&Xz.> o > }.%X%X%X%X%X@X%X%X@X+X%X%X+XOX+Xz.g.g.y o O o O o ; o O o o o O                                     ",
"                                  O o o { %X%X%X%X%Xz.- . > }.%X%X%X%X%X%X%X%X%X%X%X%X%X%X$Xz.g.g.y o o o o o O o o o o O o                                     ",
"                                  o o o '  X X.X+X@Xz.4 > t }.%X@X$X$X$X$X$X$X%X$X$X%X%X%XOXh.#.#.0 o o o ; o o O o o ; o o                                     ",
"                                        < < < / k.j.x. X X X@X@X%X-X=X=X*X=X=X*X=X=X-X+X%XOXu > < * o o o o O o o o ;                                           ",
"                                        o o X u g.g.z.@X%X%X%X%X@X*X=X=X=X=X=X=X=X/.*X%X%XoX5 o o o o o o o o ; O o o                                           ",
"                                        ; o X i j.g.x.@X%X%X%X%X%X*X=X=X/.=X=X=X=X=X*X$X@XOXt * * * * * O o ; o o o O                                           ",
"                                        o o o u g.g.z.@X%X@X@X%X%X*X=X=X=X/.=X=X=X=X=X$X%X@Xk.g.j.@.o.o.z o o O                                                 ",
"                                        O o o u g.g.z.@X%X%X%X%X%X*X/.=X/./.=X/.=X/.=X%X%X%X%X%X%Xv.j.j.( o O o                                                 ",
"                                        o O o u j.j.z.@X%X%X%X%X%X*X/.=X=X=X/.=X=X/.*X%X%X%X%X%X%Xz.j.j./ o o o                                                 ",
"                                              4 x x ) z.|.z.' ) ) ^.=X=X/.=X=X/.=X=X*X$X@X@X X}.}.' x x y                                                       ",
"                                                o o 5 f.g.d.< X O ^.=X/.=X/.=X=X=X=X=X%X%X@Xx.g.g.y X o                                                         ",
"                                                o o 5 h.x.f.< o O ^.=X=X/./././././.*X%X%X$Xx.g.j.y o o                                                         ",
"                                                o o 5 ` ` ` v c c ^.-X-X-X-X-X-X-X-X-X.X.X|.{ ` ` 5 o O o                                                       ",
"                                                      o o - +.k.j.OX%X%X%X%X%X%X%X%XOXg.j.f.> + o o o o o o o O o O o                                           ",
"                                                      O o - #.j.j.OX%X%X%X%X%X%X%X%X@Xj.j.f.< + . + o + o O o O o o ;                                           ",
"                                                      o o - ] o.o.f.g.g.}.+XOX Xj.j.h.o.o.} p w w w w w $ + . o o o o                                           ",
"                                                            * * * * * O ) g.j.{ = = = * * 1 6.e.r.r.r.e.:.+ o o                                                 ",
"                                                            ; o O o o o ( j.j.] . O . O ; % 0.e.e.e.e.e.:.+ o O                                                 ",
"                                                            o o O 1 $ $ [ c.c.} # # # # # 2 7.w.w.t.e.e.,.$ 1 q                                                 ",
"                                                            O O + <.w.w.t.r.r.u.F.F.F.F.F.D.r q q 3.9.9.q.w.w.<.O O ;                                           ",
"                                                            o o O 7.e.e.e.e.e.b.K.K.K.K.P.G.a o ; 3.8.4.t.e.e.1.; o o                                           ",
"                                                            @ + O 1.r.r.r.r.r.u.J.J.J.K.I.G.a O @ >.8.4.q.e.e.1.. O O                                           ",
"                                                      ; . @ B.A.A.Y.U.U.U.U.U.C.s d g J.K.J.D.A.A.k e e >.q.q.>.O O o                                           ",
"                                                      O o @ S.H.H.H.H.H.H.H.H.m.o . a G.P.P.P.I.K.f X X L 4.4.>.o ; o                                           ",
"                                                      o ; @ S.H.H.H.H.H.H.H.H.m.O o a J.P.J.J.H.H.f . o L 8.8.>.o o O                                           ",
"                                                      o o - y.p.p.p.p.p.p.p.p.u.<.<.2.g g N.2X1X1X_.o.O.P K K e o o o                                           ",
"                                                      o o , w.e.e.e.e.e.e.e.e.e.e.e.0.% + h 5X0X0X<X+X%X] + + o o O o                                           ",
"                                                      O O % 0.e.e.e.e.e.e.e.e.e.e.e.6.% o 2 4X0X0X<X%X%X' o ; o ; o o                                           ",
"                                                      o O - y.p.p.p.p.p.a.p.p.a.p.a.s.- o 2 <X7X7X,X%X%X' o o O o o                                             ",
"                                                      o O @ S.H.H.H.H.H.H.H.H.H.H.H.D.@ o > v.%X@X%X%X%X' X o o                                                 ",
"                                                      O O @ S.K.P.H.P.I.I.K.K.K.K.K.A.@ . , }.%X&X%X%X%X' o O o                                                 ",
"                                                      o O @ S.K.K.K.K.K.K.K.K.K.K.K.S.f s j #.j.j.j.j.j.) o o                                                   ",
"                                                      o o @ S.K.K.K.K.I.K.K.K.K.K.I.K.J.P.F.h ; = = * ;                                                         ",
"                                                      O o @ S.P.K.K.K.H.H.H.H.H.H.P.I.I.P.G.a . O o O O                                                         ",
"                                                      o o @ A.F.F.W.!.!.W.E.E.E.E.E.Q.F.F.D.a . o O ; .                                                         ",
"                                                            # # a 2XqX9X3X#X#X#X#X#X{.3 # # O ; o                                                               ",
"                                                            o o + >X0X0X7X@X%X@X@X&Xx.- o o o o o                                                               ",
"                                                            O o ; >X0X0X6X@X+X+X$X%Xl.- o O o o o                                                               ",
"                                                            o o o ;.%.&.&.W W W W W ^ & o O                                                                     ",
"                                                            ; o ; J U U U U U U U U G & + O                                                                     ",
"                                                            o o . Z U U U U U T U U G & O O                                                                     ",
"                                                      O o 2 _.].].:X;X;X^.^.*. .| | _ = O O                                                                     ",
"                                                      O o 2 4X0X0X0X0X0X5X'.[.).m m n + o o                                                                     ",
"                                                      O o 2 4X0X0X0X0X0X5X(.`.).m m n = o o                                                                     ",
"                                                      o o 2 _.].].].].].).M M n l l l = ; O                                                                     ",
"                                                            O o o o o o o o . o + O o                                                                           ",
"                                                            O O o o o o ; o o o O O o                                                                           ",
"                                                            o o o o ; o O o o O O o o                                                                           ",
"                                                                                                                                                                ",
"                                                                                                                                                                ",
"                                                                                                                                                                "
};
