/* XPM */
static char *f10d06a437d74a82afc21f7fc240a986iQ9gyyqJtmdU61Sa[] = {
/* columns rows colors chars-per-pixel */
"80 80 205 2 ",
"   c None",
".  c #3D261F",
"X  c #37221F",
"o  c #3D2623",
"O  c #3D2925",
"+  c #3A2B2A",
"@  c #3D2A34",
"#  c #3B2B3B",
"$  c #2C3A34",
"%  c #373832",
"&  c #432623",
"*  c #4C2625",
"=  c #432A26",
"-  c #452D2A",
";  c #492F29",
":  c #522426",
">  c #4D322B",
",  c #51342E",
"<  c #4A3635",
"1  c #543630",
"2  c #5B3836",
"3  c #492937",
"4  c #6D232B",
"5  c #68262C",
"6  c #623B39",
"7  c #7D2531",
"8  c #2B433C",
"9  c #1F483F",
"0  c #6C5A1A",
"q  c #7A6A17",
"w  c #5C4D30",
"e  c #624038",
"r  c #6E483F",
"t  c #68443B",
"y  c #79733C",
"u  c #57421F",
"i  c #3B2E4C",
"p  c #3B2C46",
"a  c #3B3158",
"s  c #372D5A",
"d  c #3A3366",
"f  c #39356E",
"g  c #38377C",
"h  c #38377B",
"j  c #6D3D44",
"k  c #622B53",
"l  c #403D6F",
"z  c #1B4C43",
"x  c #095F52",
"c  c #00695C",
"v  c #026558",
"b  c #0A6E61",
"n  c #126F64",
"m  c #1C7267",
"M  c #357A72",
"N  c #224C43",
"B  c #594746",
"V  c #584D56",
"C  c #754D43",
"Z  c #7B5146",
"A  c #7F5448",
"S  c #7F4551",
"D  c #6F5B55",
"F  c #74615A",
"G  c #417F77",
"H  c #786A68",
"J  c #625175",
"K  c #9B1F33",
"L  c #A71F35",
"P  c #BD1C39",
"I  c #B01E36",
"U  c #8C2030",
"Y  c #B2273C",
"T  c #D21A3C",
"R  c #DC1A3E",
"E  c #E3193E",
"W  c #8D7F14",
"Q  c #BF287D",
"!  c #9F2B78",
"~  c #E81A41",
"^  c #FF1744",
"/  c #F91843",
"(  c #F21B44",
")  c #F8294C",
"_  c #F23752",
"`  c #D72265",
"'  c #C1287E",
"]  c #DB2244",
"[  c #8A5B4E",
"{  c #83564A",
"}  c #8B4C59",
"|  c #895B52",
" . c #8F4F53",
".. c #996557",
"X. c #A36C5C",
"o. c #877C7A",
"O. c #86627A",
"+. c #AC7262",
"@. c #B17664",
"#. c #B57967",
"$. c #BD7E6C",
"%. c #B67A69",
"&. c #B17A77",
"*. c #FF495F",
"=. c #F65864",
"-. c #CE7F70",
";. c #FF656D",
":. c #D0555A",
">. c #978A12",
",. c #A29817",
"<. c #928030",
"1. c #FFFF00",
"2. c #F3F40F",
"3. c #E8EB1D",
"4. c #EFF114",
"5. c #F0F312",
"6. c #CDD53D",
"7. c #DDE22A",
"8. c #B5BE55",
"9. c #B78677",
"0. c #9BAA7A",
"q. c #98A77B",
"w. c #9CA86E",
"e. c #80827E",
"r. c #C3826E",
"t. c #CE8A75",
"y. c #C78571",
"u. c #D08C77",
"i. c #D38E79",
"p. c #D58273",
"a. c #DD947E",
"s. c #E0967F",
"d. c #B8C357",
"f. c #373A8D",
"g. c #363E9E",
"h. c #363EA4",
"j. c #463C89",
"k. c #79359B",
"l. c #185A95",
"z. c #3543B8",
"x. c #3A43AA",
"c. c #135FA0",
"v. c #625B8C",
"b. c #747AA7",
"n. c #4C5E99",
"m. c #3249DB",
"M. c #3749D9",
"N. c #2E4BCF",
"B. c #2F49E8",
"V. c #314BE8",
"C. c #3D59EC",
"Z. c #2E4DFF",
"A. c #2F4CF2",
"S. c #314DF3",
"D. c #304FFE",
"F. c #3C4CF4",
"G. c #2E50FF",
"H. c #3150FE",
"J. c #2754E1",
"K. c #1F56CE",
"L. c #5770CE",
"P. c #526CD5",
"I. c #536ADC",
"U. c #6974C4",
"Y. c #405DEA",
"T. c #4958E7",
"R. c #4762E2",
"E. c #973299",
"W. c #8638B2",
"Q. c #A17589",
"!. c #D57D84",
"~. c #F77CA6",
"^. c #8675D2",
"/. c #7085AE",
"(. c #7E8B89",
"). c #889795",
"_. c #9D9D9D",
"`. c #959292",
"'. c #8A8988",
"]. c #A19E9E",
"[. c #A19594",
"{. c #A18980",
"}. c #A1A19F",
"|. c #B088B8",
" X c #A1A1A1",
".X c #BAB2B0",
"XX c #CE9789",
"oX c #E4878C",
"OX c #EA9D85",
"+X c #E09780",
"@X c #F8988C",
"#X c #FF9E99",
"$X c #EFA088",
"%X c #F3A38A",
"&X c #FDA98F",
"*X c #F8A68C",
"=X c #FFA694",
"-X c #FFAC92",
";X c #FFB095",
":X c #FF81AA",
">X c #F6B9A6",
",X c #FEC9B9",
"<X c #BFDAD6",
"1X c #D2CDCD",
"2X c #FEFEFE",
/* pixels */
"                                                                                                                                                                ",
"                                                                                                                                                                ",
"                                                          o o o o o o O o o = o o = o o o o o o o o o                                                           ",
"                                                          o o o o o o o o o o o o o o o o o = o o o o                                                           ",
"                                                          * * * ; - > o o o - > > - o o & o o o ; ; >                                                           ",
"                                                    O o 4 T E ] p.+Xi.2 o o ..+X+X..o o o o o , y.+Xi.t o o o o o                                               ",
"                                                    = O 4 / ^ ) @X;X*XC o o @.-X;X@.o o o o o 1 OX-X=Xr o o o o = o                                             ",
"                                                    o O 4 / ^ ) @X-X%XC o o @.-X-X+.o o & o o 2 OX-X*Xr o o o o o o                                             ",
"                                o o o o o o o o o o o o 4 / ^ ^  .{ { +.$.$.=.*.*._ I P P P P Y { A A Y P P P P T U o O                                         ",
"                                o o = o o o o O o o o o 4 ^ ^ E : . . u.;X;X=.^ ^ ^ ^ / ^ ^ ^ ~ : o & T ^ ^ ^ ^ / I o o o                                       ",
"                                o o & . o O o O o o & o 4 E E E : o = u.-X-X*.^ ^ ^ ^ ^ ^ ^ ^ ~ : X = T ^ ^ ^ ^ ^ I o o o                                       ",
"                                & . = V F F l f.f.f.j.j.j.E.E.E.; . = :.;.;._ ^ ^ ^ ^ ^ ^ ^ ^ ( L K K K L K R ^ ^ T K K U                                       ",
"                                o o - e. X XI.G.D.D.D.H.G.G.G.V.p . & T E ^ ^ ^ ^ ^ ^ ^ ^ ^ ^ ^ ^ ^ ^ 4 o o L ^ ^ ^ ^ ^ T = o o                                 ",
"                                o o = '. X XL.G.D.D.H.Z.D.D.D.V.3 . & T ^ E ^ E ^ ^ ^ ^ ^ ^ ^ ^ ^ ^ / 4 O o L ^ ^ ^ ^ ^ T & o o                                 ",
"                                o o = H e.o.n.K.K.J.D.D.D.D.D.V.h d d ! ' ' ' ' Q ` ^ ^ ^ ^ ^ ^ ^ ^ / 4 o o Y ^ ^ ^ ^ ^ T & o o                                 ",
"                                      & = = z c c c.D.D.D.Z.D.D.D.D.H.S.F.D.D.D.Z.W.^ ^ ^ ^ ^ ^ ^ ^ / 4 o + I ^ ^ ^ ^ ^ T & = o                                 ",
"                                      o o o z c v c.H.H.D.Z.Z.Z.D.D.H.Z.H.H.H.H.Z.W.^ ^ ^ ^ ^ / ^ ^ / 4 o O I / ^ ^ ^ ^ T & o o                                 ",
"                                      o = o 9 v x l.m.m.M.T.T.T.m.m.m.m.m.m.m.m.m.k.E R ~ ) ) ) ) ) ) 5 o o K ~ ~ R R ~ P & o o                                 ",
"                                      o o o o + O + @ @ B y.XX&.< @ @ @ @ @ @ @ @ @ * * 6 p.p.p.p.p.-.2 o o & * * * * * *                                       ",
"                                      o o = o o o o o o 6 t.y.$.> o = o o o o o o o o o e y.u.u.t.t.t.6 o o o o o o + o o                                       ",
"                                      o o o o = o = ; = t y.u.9.2 = ; = o o o o o = = = t y.u.u.t.t.y.e O O O o o o o o o                                       ",
"                                o o = o o o o o o r #.@.$.t.t.t.%.@.+.2 o o o o o r #.#.$.t.t.t.t.t.t.e o o o o = O o o o O o &                                 ",
"                                o o o o o = o o X Z i.i.i.t.t.t.i.t.t.e o o o o X Z i.i.u.u.t.u.u.u.t.e o o o o o o o o o = o o                                 ",
"                                o o o o o o o o X Z t.u.t.t.t.t.t.t.t.e o o & o o Z u.t.t.t.u.t.t.t.t.2 o o o o o o & o o o O o                                 ",
"                                = o = { ..X.t O X [ $X$X$X$X$X+XA r r +.9.9.-.#.$.u.OX%Xt.C r Z a.%X$Xy.-.9.r o o C $.9.X.= o &                                 ",
"                                o o - +.i.i.Z O . [ ;X-X-X-X-XOX, X = i.&X&X-X&X-X-X-X-Xt.= o , OX-X-X-X*X-X[ o o | ;X-Xu.& o o                                 ",
"                                o o = +.u.u.C X X [ -X&X-X-X=XOX1 o = t.;X-X&X&X-X-X-X-Xt.= o 1 OX-X-X-X&X-X| o o [ -X-Xi.= o o                                 ",
"                                o o = +.i.t.@.....r.-X-X-X-X=XOX1 o = i.-X&X-X-X-X-X-X-Xu.- o , OX-X-X&X-X-Xr.....r.-X-Xi.= o o                                 ",
"                                o o = +.i.t.$X-X;X-X-X-X-X-X;XOX, o = i.;X;X&X-X&X-X-X-Xt.= o 1 OX-X-X-X-X-X-X-X-X-X-X-Xt.= o o                                 ",
"                                o = = @.i.i.$X-X&X-X-X-X-X-X;XOX, X = t.&X&X-X&X-X-X-X-Xt.= X < OX&X&X-X-X-X-X-X-X-X-X-Xi.= o o                                 ",
"                                o o = | X.X.i.%X%X%X=X#X#X#X#X@X[ Z A a.-X-X-X-X&X-X-X-Xa.A C | @X#X=X#X#X#X%X$X%X+Xr.y.+.= = o                                 ",
"                                      = o o ..t.t.oX~.:X~.~.:X:X=X*X&X-X-X-X&X-X-X-X-X-X-X&X=X=X:X:X:X~.:X:XoXt.u...o o =                                       ",
"                                      o o o ..i.i.oX:X:X:X:X:X:X=X-X&X-X-X&X&X-X-X-X&X-X-X&X&X=X:X:X:X:X~.:XoXi.i...o o o                                       ",
"                                      o o o { $.%.!.:X:X:X:X:X:X=X-X-X-X-X=X-X-X-X&X-X-X-X-X-X=X:X:X:X:X:X:X!.&.$.[ o o o                                       ",
"                                            ; ; - } :X:X:X:X:X:X=X-X-X-X-X&X-X&X-X-X-X-X-X-X-X=X:X:X:X:X:X:X} = ; ;                                             ",
"                                            o o O } :X:X:X:X:X:X=X-X-X&X-X-X-X-X&X;X&X&X-X&X-X=X:X:X~.:X:X:X} X o o                                             ",
"                                            o o o } ~.~.~.~.:X:X-X-X&X*X%X%X%X%X%X%X%X%X*X-X-X=X:X:X:X~.~.~.} o o o                                             ",
"                                                  2 j 2 } ~.~.:X=X-X*X[ 6 e e e e 2 e e [ *X-X=X:X:X~.} 2 2 2                                                   ",
"                                                    o X 6 ~.:X:X=X-X*Xr X o X o o o o X r *X&X=X:X:X:Xj o o                                                     ",
"                                                    o o B :X:X:X=X-X*Xr o . = o & o o o r *X-X=X:X:X:Xt o o                                                     ",
"                                                        2 } S  .i.+X+Xy.$.$.$.9.$.$.$.$.y.a.s.u.} S } 2                                                         ",
"                                                          X X > $.u.u.%X;X-X-X-X-X-X-X-X*Xu.u.$.> X X                                                           ",
"                                                          . . > r.i.i.*X;X-X;X*X-X-X-X;X*Xu.u.9.> . .                                                           ",
"                                                        i f.f.j.A [ [ ..+...9.XXXX9.X.X...[ [ | j.f.f.a                                                         ",
"                                                    o o a Z.G.B.p o . . . o F 9.{.F . . o o . # B.D.S.a o o                                                     ",
"                                                    o o s Z.Z.B.# . . . . X F `.9.F . . . . . @ B.Z.Z.s X X                                                     ",
"                                                  0 q q y /./.b.f d d d d d v.Q.b.v.d d d d d l b././.y q q 0                                                   ",
"                                            o o o W 1.1.1.1.1.3.R.H.H.H.D.D.D.H.H.H.H.H.D.D.Z.R.7.1.1.1.1.1.W o o =                                             ",
"                                            o o o >.1.1.1.1.1.3.R.Z.Z.Z.Z.Z.Z.Z.Z.Z.Z.Z.Z.Z.Z.R.3.1.1.1.1.1.>.o o X                                             ",
"                                            2 2 2 <.7.7.7.7.7.6.U.P.P.P.P.P.P.P.P.P.P.P.P.P.P.U.6.7.7.7.7.7.y p p p                                             ",
"                                      o o o +.%X$X|.C.C.Y.Y.C.L.7.4.4.4.4.4.4.4.4.4.4.4.4.4.5.7.P.C.C.Y.Y.Y.C.V.S.g.. o o                                       ",
"                                      o o o +.-X*X|.Z.Z.Z.H.Z.R.3.1.1.1.1.1.1.1.1.1.1.1.1.1.1.3.R.Z.G.G.Z.Z.Z.Z.D.h.o o o                                       ",
"                                      < < < %.-X&X|.A.A.A.G.H.R.7.5.2.2.2.2.2.2.2.5.2.2.2.2.2.7.R.D.H.S.S.S.S.H.D.h.; > ;                                       ",
"                                o o - .X1X1X>X-X&X&.i p h S.H.S.P.L.L.L.L.L.L.L.L.L.L.L.L.L.L.P.S.G.S.h i i z.H.D.U.a.a.$.= o o                                 ",
"                                o o o 1X2X2X,X-X;X@.O . a D.G.H.Z.Z.Z.Z.Z.Z.Z.Z.Z.Z.Z.Z.Z.Z.Z.Z.H.H.S.a . . x.H.D.^.-X-Xi.= o o                                 ",
"                                o o O 1X2X2X,X-X&X+.O . a S.H.H.D.D.D.D.D.D.D.D.D.H.H.Z.H.D.D.D.H.H.S.a . . g.H.D.^.-X-Xt.= o =                                 ",
"                                o o - XX,X,X;X-X-X+.o o w 8.d.d.d.d.d.d.d.d.d.d.d.d.d.d.d.d.d.d.d.d.d.w . = O.|.|.Q.Z Z Z                                       ",
"                                = o = u.-X&X-X-X-X+.o o 0 1.1.1.1.1.1.1.1.1.1.1.1.1.1.1.1.1.1.1.1.1.1.0 o . #.;X-X@.o o o                                       ",
"                                o o = t.;X-X-X-X-X+.X X 0 1.1.1.1.1.1.1.1.1.1.1.1.1.1.1.1.1.1.1.1.1.1.0 o o @.-X-X@.o o o                                       ",
"                                  o = ..X.X.X.X.X.H f.f.v.q.0.0.0.0.0.0.0.0.0.0.0.0.0.0.0.0.0.w.,.,.>.u o o Z X.X.[ o o                                         ",
"                                      o X o o o X h Z.D.Z.Z.Z.Z.Z.Z.Z.Z.Z.Z.Z.Z.Z.Z.Z.Z.Z.Z.Z.B.# X o o = o o o o o                                             ",
"                                      o o o o o & f.D.D.D.D.D.D.D.D.Z.D.D.D.D.Z.D.Z.Z.D.D.G.Z.B.# o X o & & . o o o                                             ",
"                                      o o o o o o g D.D.D.D.D.D.D.D.H.H.D.D.m.z.h.m.D.D.V.N.z.x.V B B B B B 8 $ $ $                                             ",
"                                            & o . g Z.D.H.D.D.Z.D.D.Z.D.D.D.g o & g D.D.N.& o < `.].]. X].].G c c z & o o                                       ",
"                                            o o o g H.H.D.H.D.D.D.D.D.D.D.D.g . . g H.H.N.& o - `. X_._.]._.M c c z O O o                                       ",
"                                              = . h m.m.m.m.M.B.D.D.Z.D.D.D.g . o f m.m.z.< < B (.).).).).).M c b z o o o                                       ",
"                                                    @ @ @ @ @ p V.D.D.Z.D.D.g o o O @ @ B `.`.).m b b b b b b c b z o o o                                       ",
"                                                    o o o o . # V.D.Z.Z.D.D.g o & o o o B _. X).n c c c c c c c b z o o o                                       ",
"                                                    o o = * * 3 M.T.F.S.V.S.h . o o o o B `. X).n c c c c c c c c z O o o                                       ",
"                                                    o o 5 T R ] ` ` ` k i i @ o o o o o B _. X).n c c c c c v c b z o o o                                       ",
"                                                    o o 4 / / ^ ^ ^ / 4 o o o o o = o o e _._.).n c c c c c c c c z & o =                                       ",
"                                                    o o 4 / ^ ^ ^ ^ / 4 o o o o o O o o B `._.).n c c c c c c c c z o o o                                       ",
"                                              o o H .X.X].V V V 7 7 7 * o o =     o o o % M M M c c c c c c z $ $ $                                             ",
"                                            = o o o.2X2X1Xb c c + o X O o o         o & $ v c c c c c c c c 8 o O o                                             ",
"                                            o o o o.2X2X<Xb c v % o o = o o         o . % c c c c b c c c c 9 & o o                                             ",
"                                              o o F [.[.e.N 9 9 O o o o o o         o X % 9 z z z 9 9 9 z 9 $ o o                                               ",
"                                                    X o . o & o o o o                     & o & o & & o o &                                                     ",
"                                                    = o o o o o o o o                     o o o o o o o o o                                                     ",
"                                                    o o = o o o & o o                     o o o o o o o o o                                                     ",
"                                                                                                                                                                "
};
