/* XPM */
static char *_28b13b876d14396e791316cbe5f68e1SplqBfm7xuDNVGKk[] = {
/* columns rows colors chars-per-pixel */
"80 80 201 2 ",
"   c None",
".  c #3C251F",
"X  c #371F24",
"o  c #3D2723",
"O  c #3D2824",
"+  c #3D292A",
"@  c #362726",
"#  c #3C2C3C",
"$  c #3C2934",
"%  c #293E37",
"&  c #553A1E",
"*  c #442624",
"=  c #4C2626",
"-  c #422A24",
";  c #442D29",
":  c #4A2E2B",
">  c #532526",
",  c #5D2428",
"<  c #483124",
"1  c #533724",
"2  c #4C3A37",
"3  c #4A3735",
"4  c #5D3639",
"5  c #593734",
"6  c #552730",
"7  c #622429",
"8  c #6D232B",
"9  c #72232C",
"0  c #61393B",
"q  c #1F463F",
"w  c #24463C",
"e  c #54401F",
"r  c #5D411E",
"t  c #5E4A1D",
"y  c #6C5A1B",
"u  c #7B6B17",
"i  c #7F7016",
"p  c #52423F",
"a  c #584A33",
"s  c #52412E",
"d  c #6E483E",
"f  c #68443B",
"g  c #7E783A",
"h  c #3C2D46",
"j  c #3B2F4C",
"k  c #3B3158",
"l  c #382E59",
"z  c #6B3B44",
"x  c #13554A",
"c  c #184F46",
"v  c #006A5D",
"b  c #066256",
"n  c #554644",
"m  c #5B4F4D",
"M  c #594845",
"N  c #5D504E",
"B  c #784748",
"V  c #7B5246",
"C  c #665955",
"Z  c #7F4551",
"A  c #676351",
"S  c #757575",
"D  c #7D7B7B",
"F  c #6E6867",
"G  c #44417F",
"H  c #9B1F33",
"J  c #A31F34",
"K  c #AD1E36",
"L  c #B01E37",
"P  c #BD1C39",
"I  c #8C2031",
"U  c #962033",
"Y  c #86212F",
"T  c #B2273C",
"R  c #C81C3B",
"E  c #D11B3C",
"W  c #DA1A3D",
"Q  c #E11A3F",
"!  c #F5173F",
"~  c #8A6418",
"^  c #976F16",
"/  c #8C7E15",
"(  c #837417",
")  c #937119",
"_  c #A47814",
"`  c #967022",
"'  c #AC2975",
"]  c #EA1940",
"[  c #FF1744",
"{  c #F31842",
"}  c #F91843",
"|  c #F82F4F",
" . c #C6256F",
".. c #DB2845",
"X. c #83554A",
"o. c #864856",
"O. c #8D5A51",
"+. c #8D4D52",
"@. c #976456",
"#. c #A36C5C",
"$. c #A7586D",
"%. c #AF5B73",
"&. c #B15C74",
"*. c #AD7362",
"=. c #B17664",
"-. c #BE7F6C",
";. c #B67869",
":. c #874472",
">. c #F74C5E",
",. c #F65864",
"<. c #FF656D",
"1. c #9B8F12",
"2. c #978B12",
"3. c #A39811",
"4. c #B4AB0E",
"5. c #A7A12E",
"6. c #C8990E",
"7. c #C49210",
"8. c #D29D0D",
"9. c #C5BD0B",
"0. c #F1B509",
"q. c #EBB00A",
"w. c #D2CC07",
"e. c #DBD708",
"r. c #CFCA09",
"t. c #E9C508",
"y. c #FFC307",
"u. c #F0C308",
"i. c #FFD505",
"p. c #E9E604",
"a. c #FAE603",
"s. c #FFF301",
"d. c #FFFF00",
"f. c #F2F002",
"g. c #CDD43E",
"h. c #D9DF2F",
"j. c #DDE32D",
"k. c #E0E526",
"l. c #B3BD55",
"z. c #A39674",
"x. c #CD8A75",
"c. c #C98672",
"v. c #D18B77",
"b. c #D48D7A",
"n. c #DB8475",
"m. c #DD937D",
"M. c #CB935F",
"N. c #C7C75C",
"B. c #FFCE55",
"V. c #EFC069",
"C. c #373A89",
"Z. c #363E9F",
"A. c #353FA7",
"S. c #3746BB",
"D. c #3F4CB5",
"F. c #686D8E",
"G. c #5E64A3",
"H. c #3446C8",
"J. c #354BD9",
"K. c #324AE6",
"L. c #324BEB",
"P. c #3956ED",
"I. c #2E4EFF",
"U. c #304FFD",
"Y. c #334EF4",
"T. c #3452F6",
"R. c #3352FC",
"E. c #3B59F2",
"W. c #2F50FF",
"Q. c #6A79CF",
"!. c #405DEC",
"~. c #AB2E92",
"^. c #C76684",
"/. c #D46C8D",
"(. c #D9708F",
"). c #E27397",
"_. c #F47BA3",
"`. c #FA7EA7",
"'. c #8A8685",
"]. c #969494",
"[. c #9D9D9D",
"{. c #A1A19E",
"}. c #9396A9",
"|. c #AB87B8",
" X c #A1A1A1",
".X c #BAB2B0",
"XX c #AB909B",
"oX c #EA9D85",
"OX c #FF9B89",
"+X c #CFA497",
"@X c #FEA98F",
"#X c #F6A48B",
"$X c #FFAD93",
"%X c #FFB095",
"&X c #E6A896",
"*X c #FF82AD",
"=X c #FB82A6",
"-X c #F8BAA7",
";X c #FFCCBB",
":X c #D6D2D1",
">X c white",
/* pixels */
"                                                                                                                                                                ",
"                                                                                                                                                                ",
"                                                          o o o o o - o - o o o o o o o o O - o O o o                                                           ",
"                                                          o o o o o o o o o o o o o o o o o o o o o o                                                           ",
"                                                          ; : ; - o o o o o ; ; ; ; o o * < ; < = = =                                                           ",
"                                              o o o o . d m.m.c.: o o o o o @.m.oX@.o o f m.m.n...W E 8 o o o o o o o o o                                       ",
"                                            o o o o o @ d @X$XoX5 o o o o o ;.$X$X*.o o f @X%XOX| [ [ 9 o o o o o O - o o                                       ",
"                                            o o - o - o d #X$XoX5 o o - o o =.$X$X*.o o d #X@XOX| [ ! 9 o o o o o - o o O                                       ",
"                                        o o H P P P P P T X.V X.L P P P P P | >.>.,.c.c.*.X.V +.{ [ } E P P 8 o o n D S F * + o                                 ",
"                                      o o O L [ [ [ [ [ E * . > ! } [ [ [ [ { } [ >.%X&Xv.O O > ] [ [ [ [ [ I o o C {. Xz.X o o                                 ",
"                                      o o @ L [ [ [ [ [ E o o > ] [ [ [ [ [ [ [ ! ,.%X%Xx.O o > ] [ [ [ [ [ Y @ . C [.{.'.- o o                                 ",
"                                      I H H E [ [ W J J H H H J { [ [ [ [ [ [ [ [ | <.<.,.U H H U J J ] [ [ R H H :.Q.Q.G.+ o o                                 ",
"                                o o * E [ [ [ [ [ L @ @ 8 [ [ [ [ [ [ [ [ [ [ [ [ [ [ [ ! [ [ ] > O * E [ [ [ [ [ ~.I.I.H.+ o o                                 ",
"                                o o * E [ [ [ [ [ L o . 8 } [ [ [ [ [ [ [ [ [ [ [ [ [ [ [ [ [ Q > - o E [ [ [ [ ! ~.I.I.H.+ o o                                 ",
"                                o o * E [ [ [ [ [ L o o 8 } [ [ [ [ [ [ [ [ [ [ [ [ [ [ [ [ [ ! > O * E [ [ [ [ [ ' S.S.Z.+ o o                                 ",
"                                O O * E [ [ [ [ [ K o o 8 } [ [ [ [ [ [ [ [ [ [ [ [ [ [ [ [ [ Q > O * E [ [ [ [ [ L o o +                                       ",
"                                o o * E [ [ [ [ [ L o @ 8 { [ [ [ [ [ [ [ [ [ [ [ [ [ [ [ [ [ ] > O * E } [ [ [ [ K O o o                                       ",
"                                o o * P Q Q Q Q Q K , , Y } [ [ [ [ [ [ [ [ [ [ [ [ [ [ [ [ [ ] 8 , , P ] Q Q Q ] H o o o                                       ",
"                                      = = = = = = I { ] { [ [ [ [ [ [ [ [ [ [ [ [ [ [ [ [ [ [ } { { ] 9 = = = = = * o o o                                       ",
"                                      O o o O o o I [ [ [ [ [ [ [ [ [ [ [ [ [ [ [ [ [ [ [ [ [ [ [ [ } 9 O O o o O O o o o                                       ",
"                                      o O - o o O Y { { { { { { { { { { { { { { { { { { { { { { { { ] 8 o o O o o o o o o                                       ",
"                                o o o o o o o o o = 7 7 7 7 7 7 7 7 7 7 7 , 7 7 7 7 7 7 7 7 7 7 7 7 7 * o o o o o o - o O o O *                                 ",
"                                o - - o o o o o o o o O o o O o O o o o O O o O o o o o O o o o O O O o o o o o o o o O O o o o                                 ",
"                                o o o o O o * o O o o o o O o * o o o o o o o o o O o o o o o o o o o o o o * o - o o * o o o O                                 ",
"                                o o - @.c.-.B . @ o o o o o o o o o o o o o o o o o * O o o o - o o o o o o o o o B c.-.@.- o o                                 ",
"                                o o ; b.$X%XO.. . o o o o o o o o o o o o - o o o o o o o o o o o o o - o * o o . O.%X%Xb.- o o                                 ",
"                                o o ; v.$X$XX.. O o o o o - o o o o O o o o o O o o o o O o o o - o o o o o o o . O.%X%Xv.; o o                                 ",
"                                o - ; -.oXoXX.@ - o o o o O o o o o - o o o o - o - o o o - o o o o o o o o o - . V oXoXc.; o o                                 ",
"                                o o - *.v.x.V . o o o o o o * O O o o o o o o o o o - o o o o o o o - o o o o o . V x.b.#.- o o                                 ",
"                                o - ; *.b.b.V . o o o o * o O o o o o - o - o o O o o o o * o o o o o o o o O @ . V v.b.*.- o o                                 ",
"                                o o ; O.#.#.O.Z B 0 o o o o o o - o o o o o o o o o * O o O o o o o o o o O 4 B B +.#.#.O.; o o                                 ",
"                                      - - o %.`.*X%.o o o o O o o o o o O o o * o O o o o o o o o * o o O O &.*X*X%.o - -                                       ",
"                                      o o o &.*X`.%.@ @ o o o o o o o o o o o o O - o o o o o o o o o o @ @ &.*X*X&.o o o                                       ",
"                                      o o o $.).).$.4 5 5 o - o o o o o o - o o o o o o o * o o O - o 5 4 4 $.).).$.o o o                                       ",
"                                            : : : +._._.^.* o o - o o o o o o o O o o o o O o O o o * ^.`._.+.; : :                                             ",
"                                            o o * o.*X*X/.* o o o o o o O o O * o o o o o o o o o o o /.*X*Xo.. o o                                             ",
"                                            o o + o.`.`.^.: : : ; < ; o o o o o o o o o * < ; ; : : : ^.`.`.o.o o o                                             ",
"                                                  4 z 4 o.(.)./.;.=.=.5 o o - O o o o o 5 =.;.;./.(./.o.0 0 4                                                   ",
"                                                    @ . z `.*X=Xb.b.x.f o o o o o o o . f c.b.b.=X*X`.z @ .                                                     ",
"                                                    @ . z `.`.`.b.v.c.0 o o o o o o o o f c.x.v.=X*X`.z o o                                                     ",
"                                                        4 Z o.B B d f : o o o o o - o o ; d d B B Z Z 4                                                         ",
"                                                          o o . . . o O * - o o o o o o o o o . o o o                                                           ",
"                                                          o . . o o o o @ X o @ o X X o . o o o o o o                                                           ",
"                                                        j C.C.C.+ o - ( 1.1.1.1.1.1.1.1.( - o + C.C.C.j                                                         ",
"                                                    o * k Y.W.K.# o < w.d.d.d.d.d.d.d.d.w.- - # K.U.U.k * o                                                     ",
"                                                    @ . l I.R.K.# o - w.d.d.d.d.d.d.d.d.w.- . # K.U.Y.l @ X                                                     ",
"                                                  y u u A T.R.K.# . - 3.9.9.9.9.9.9.9.9.3.- . # K.W.Y.A u u y                                                   ",
"                                            O o X 2.d.d.N.T.W.K.# o - - o - o - - o - o - o - # K.T.P.N.d.d./ O O o                                             ",
"                                            . o . / d.d.g.R.R.L.# o o O . * o o o o o - @ o o # K.W.T.g.d.d./ X + +                                             ",
"                                            h h h g k.k.l.J.J.H.a t t r & & < o o 1 & r & t t a H.J.J.l.k.k.2.4 5 5                                             ",
"                                      o - o Z.Y.L.P.P.!.D.# $ s e.f.f.0.0.0.~ . o ~ 0.0.u.f.f.e.s $ $ D.P.P.|.#X#X*.@ o -                                       ",
"                                      o o o Z.I.I.I.I.R.H.O . e p.d.d.i.y.y.~ @ @ ~ y.0.i.d.d.p.e o + H.I.I.|.$X$X=.@ o o                                       ",
"                                      : : = D.I.T.E.E.E.H.; O e p.d.d.i.y.y.) < < ^ 0.y.i.d.d.p.e O O D.E.E.|.$X$X*.3 : :                                       ",
"                                o o ; ;.m.b.].}.}.z.h.h.5.; O e p.d.d.s.s.s.p.e.e.p.s.s.s.d.d.p.e o < 5.h.j.V.$X@X;X:X:X.X; O O                                 ",
"                                - o ; x.%X$X+X[. XN.d.d.e.O O e p.d.d.d.d.d.d.d.d.d.d.d.d.d.d.p.e o - w.d.d.B.$X@X;X>X>X:X; O o                                 ",
"                                o o - b.$X@X+X[. XN.d.d.w.< O e p.d.d.d.d.d.d.d.d.d.d.d.d.d.d.p.e O < r.d.d.B.$X$X;X>X>X:X; * o                                 ",
"                                o o - v.$X$X&X&X+XM.i ( y - o & t.i.i.s.d.d.4.u u 4.d.d.s.i.i.t.& . * y ( ( M.$X$X%X;X;X+X= o o                                 ",
"                                * o ; v.$X$X@X$X$X*.@ o o o o & q.y.y.s.d.d./ @ X / d.d.s.y.y.q.& . * @ X @ *.$X$X$X$X$Xc.* o o                                 ",
"                                o o - v.$X$X$X$X$X=.. o . * - & q.y.y.s.d.d./ X @ / d.d.s.y.y.q.& o . - * . =.$X$X%X$X%Xv.; o -                                 ",
"                                  o - @.#.#.#.#.#.V o . # C.C.C.` _ _ t.a.a.6.^ ^ 6.a.a.t._ _ ) w q q q w q C #.@.#.#.#.@.; o                                   ",
"                                      o . o o o O O o o k Y.I.K.# . - 6.0.y.y.y.y.y.0.y.8.- @ @ b v v v v v w @ . o o o .                                       ",
"                                      o o o o o o o o . k I.I.K.# * * 8.y.y.y.y.y.y.y.y.8.< O @ b v v v v v % o o o o o o                                       ",
"                                      o o o o o o - o o j S.S.A.$ o - _ 6.7.6.7.6.7.7.6._ O o + c x x x x x % o o o o o o                                       ",
"                                                    o o o o O o o o o - o - o o o - o - o o o o o o - - O O                                                     ",
"                                                    o o o o o o o o o O o o o o - o o o - * . - . - o o o -                                                     ",
"                                                    o o - 2 2 2 2 2 2 - o - o o o = , , 6 h h h h h h + o o                                                     ",
"                                                    o o 2 ].].].].].].p o o o o o Y { !  .K.L.L.L.L.K.k o o                                                     ",
"                                                    o o M [.{. X{.[.[.n o o o o o I [ [  .U.I.I.I.U.U.l . o                                                     ",
"                                                    ; + M [.[.[.].}.].M ; ; * - . Y { !  .P.Y.Y.Y.T.T.k * o                                                     ",
"                                              o o n F F F D D D z.F.D '.'.'.m . o = 7 , z F.F.F.F.F.F.3 . o o o O                                               ",
"                                            o o o n S S S S S S S S S ]. X{.C @ o o o o 3 S S S S S S 3 o o o o o o                                             ",
"                                            * O o n S S S S S S S S S ]. X{.C o o o o o 3 S S S S S S 2 o o o - o o                                             ",
"                                            o o o n S S S S S S S S S C m m p           3 2 p p p p p - o o -                                                   ",
"                                            o o o n S S S S S S S S S 3 . o               o o o . o o o o o                                                     ",
"                                            - o o n S S S S D S S S S 2 o o               o - o O o o o o o                                                     ",
"                                              o . 2 N m m m m m m m m 3 o o               o o o o o o o o -                                                     ",
"                                                    o o @ O o o o o o                                                                                           ",
"                                                    o o O O o O - o o                                                                                           ",
"                                                    o o O o o o o o O                                                                                           ",
"                                                                                                                                                                "
};
