/* XPM */
static char *_c9059560a8f41749c653b204d0d2badIQQOouwyVzm19vsE[] = {
/* columns rows colors chars-per-pixel */
"80 80 204 2 ",
"   c None",
".  c #3C251F",
"X  c #371F24",
"o  c #3D2723",
"O  c #3D2824",
"+  c #3D292A",
"@  c #362726",
"#  c #3C2C3C",
"$  c #3C2934",
"%  c #293E37",
"&  c #553A1E",
"*  c #442624",
"=  c #4C2626",
"-  c #422A24",
";  c #442D29",
":  c #4A2E2B",
">  c #532526",
",  c #5D2428",
"<  c #493225",
"1  c #533724",
"2  c #4D3A37",
"3  c #4A3633",
"4  c #5B3736",
"5  c #552730",
"6  c #622429",
"7  c #6D232B",
"8  c #72232C",
"9  c #61393B",
"0  c #1F463F",
"q  c #24463C",
"w  c #54401F",
"e  c #5D441D",
"r  c #6C5A1B",
"t  c #7B6B17",
"y  c #7F7016",
"u  c #52423F",
"i  c #584A33",
"p  c #52412E",
"a  c #6E483E",
"s  c #68443B",
"d  c #7E783A",
"f  c #3C2D46",
"g  c #3B2F4C",
"h  c #3B3159",
"j  c #382E59",
"k  c #6B3B44",
"l  c #443B60",
"z  c #13554A",
"x  c #184F46",
"c  c #006A5D",
"v  c #066256",
"b  c #554643",
"n  c #5B4F4D",
"m  c #594845",
"M  c #5D504E",
"N  c #784748",
"B  c #7B5246",
"V  c #675955",
"C  c #7F4551",
"Z  c #676351",
"A  c #766966",
"S  c #757575",
"D  c #7C7C7C",
"F  c #7E7675",
"G  c #716A69",
"H  c #44417F",
"J  c #9B1F33",
"K  c #A31F34",
"L  c #AD1E36",
"P  c #B01E37",
"I  c #BD1C39",
"U  c #8C2031",
"Y  c #962033",
"T  c #86212F",
"R  c #B2273C",
"E  c #C81C3B",
"W  c #D11B3C",
"Q  c #DA1A3D",
"!  c #E11A3F",
"~  c #F5173F",
"^  c #8A6418",
"/  c #976F16",
"(  c #8C7E15",
")  c #837417",
"_  c #937119",
"`  c #A47814",
"'  c #967022",
"]  c #AC2975",
"[  c #EA1940",
"{  c #FF1744",
"}  c #F31842",
"|  c #F91843",
" . c #F82F4F",
".. c #C6256F",
"X. c #DB2845",
"o. c #83554A",
"O. c #864856",
"+. c #8D5A51",
"@. c #8D4D52",
"#. c #976456",
"$. c #A36C5C",
"%. c #A7586D",
"&. c #AF5B73",
"*. c #B15C74",
"=. c #897B79",
"-. c #AD7362",
";. c #B17664",
":. c #BE7F6C",
">. c #B67869",
",. c #874472",
"<. c #F74C5E",
"1. c #F65864",
"2. c #FF656D",
"3. c #9B8F12",
"4. c #978B12",
"5. c #A39811",
"6. c #ACA521",
"7. c #C8990E",
"8. c #C49210",
"9. c #D29D0D",
"0. c #C5BD0B",
"q. c #F1B509",
"w. c #EBB00A",
"e. c #D2CC07",
"r. c #DBD708",
"t. c #CFCA09",
"y. c #E9C508",
"u. c #FFC307",
"i. c #F0C308",
"p. c #FFD505",
"a. c #E9E604",
"s. c #FAE603",
"d. c #FFF301",
"f. c #FFFF00",
"g. c #F2F002",
"h. c #CDD43E",
"j. c #D9DF2F",
"k. c #DDE32D",
"l. c #E0E526",
"z. c #B3BD55",
"x. c #A39674",
"c. c #CD8A75",
"v. c #C98672",
"b. c #D18B77",
"n. c #D48D7A",
"m. c #DB8475",
"M. c #DD937D",
"N. c #CB935F",
"B. c #C7C75C",
"V. c #FFCE55",
"C. c #EFC069",
"Z. c #373A89",
"A. c #363E9F",
"S. c #353FA7",
"D. c #3746BB",
"F. c #3F4CB5",
"G. c #686E8E",
"H. c #6C7191",
"J. c #5E64A3",
"K. c #3446C8",
"L. c #354BD9",
"P. c #324AE6",
"I. c #324BEB",
"U. c #2E4EFF",
"Y. c #304FFD",
"T. c #334EF4",
"R. c #3451F6",
"E. c #3352FC",
"W. c #3B59F2",
"Q. c #3655F4",
"!. c #6A79CF",
"~. c #405DEC",
"^. c #AB2E92",
"/. c #C76684",
"(. c #D46C8D",
"). c #D9708F",
"_. c #E27397",
"`. c #F47BA3",
"'. c #FA7EA7",
"]. c #8A8685",
"[. c #969494",
"{. c #9D9D9D",
"}. c #A1A19E",
"|. c #9396A9",
" X c #AB87B8",
".X c #A1A1A1",
"XX c #BAB2B0",
"oX c #AB909B",
"OX c #EA9D85",
"+X c #FF9B89",
"@X c #CFA497",
"#X c #FEA98F",
"$X c #F6A48B",
"%X c #FFAD93",
"&X c #FFB095",
"*X c #E6A896",
"=X c #FF82AD",
"-X c #FB82A6",
";X c #F8BAA7",
":X c #FFCCBB",
">X c #BBBAC1",
",X c #DAD7D7",
"<X c #D1CBCA",
"1X c #FEFEFE",
/* pixels */
"                                                                                                                                                                ",
"                                                                                                                                                                ",
"                                                          o o o o o o o o o - o o o o o - o o o o o -                                                           ",
"                                                          o o o O o o O o o o o o o o o o o o o o o o                                                           ",
"                                                          = = : ; : : o o o ; : ; - o o o o - - : : :                                                           ",
"                                      o o o o o o o o o 7 Q Q X.m.M.n.s o o #.M.OX#.o o o o o 3 v.M.n.a o o o o -                                               ",
"                                      o o o o o O o o o 7 | { { +X%X#Xa o o ;.%X%X;.o o o o o 1 OX%X#Xa o o o o o o                                             ",
"                                      o - o o o o - o o 7 | {  .+X#X$Xa o o ;.%X%X-.o * o - o 4 OX%X$Xa . o o o - o                                             ",
"                                o o - G F F b o + 8 I I W { { [ @.B o.-.v.:.1.<.<.X.E I I I I R o.B o.R I I I I I J o o                                         ",
"                                o o - ]..X.XV o @ U { { { { { [ > . - b.&X%X1.~ { { { { { { { [ > o o W { { { { { L O o o                                       ",
"                                o o + ].}.}.V . @ U { { { { { [ = . - b.%X%X1.{ { { { { { { { [ > X - W { { { { { P o o o                                       ",
"                                o o + J.!.!.,.J Y E { { [ K K K Y Y Y 1.2.2. .{ { { { { { { { } K J J J K K Q { { W J J U                                       ",
"                                o o + K.U.U.^.{ { { { { W o o = ~ { { { { { { { { { { { { { { { { { { 7 @ . L { { { { { W * o o                                 ",
"                                o o ; K.Y.E.^.~ { { { { W * o > ! { { { { { { { { { { { { { { { { { | 7 @ o L { { { { { W - o o                                 ",
"                                o o + A.D.D.] { { { { { W * O > [ { { { { { { { { { { { { { { { { { | 7 o O P { { { { { W * o -                                 ",
"                                      O O O P { { { { { W - O > [ { { { { { { { { { { { { { { { { { | 7 O O P { { { { { W * o o                                 ",
"                                      o O o P { { { { { W o O > [ { { { { { { { { { { { { { { { { { | 7 @ . L { { { { { W * O o                                 ",
"                                      o - o J ! ! ! ! ! I 6 , 7 [ { { { { { { { { { { { { { { { { { | T , , L Q ! ! ! ! I * o o                                 ",
"                                      o o o = = = = = = 8 [ } } { { { { { { { { { { { { { { { { { { { } } } U = = = = = =                                       ",
"                                      o o o o o o o o o 7 { { { { { { { { { { { { { { { { { { { { { { { { { U @ o o o O o                                       ",
"                                      o o o o o o o o o 7 [ } } } } } } } } } } } } } } } } } } } } } } } } U o o o o o o                                       ",
"                                o o o o o o o - o - o o * 6 6 6 6 6 6 6 6 , 6 6 6 6 6 6 6 6 6 6 6 6 6 6 6 6 = o o - o o - o o o                                 ",
"                                o o o - o o o o o o o - O o o o o o o o O o o O o o o o o O o o o o o o o o o o o o o o o o o o                                 ",
"                                o - o o o - o o o o o O o o o - o o O o o o o o o o o o o + o o o o o o o o o o o o o - o o - O                                 ",
"                                o o - #.:.:.N o o o O o o o o o O o o o o - o o o o o o o o o o o o o - o o o o o N v.v.#.O o o                                 ",
"                                o o : n.&X&X+.. o o o o o - o o o o o o o o o o * o o o o o o - o o o o o o o o . +.&X&Xc.O o o                                 ",
"                                o o ; b.%X%X+.. . - O o o o o o o o o - o o o o o o o - - o o o o - o o o - o o . +.%X%Xb.; o o                                 ",
"                                o o - :.OXOXB . o O o o o o o - O o o O o o - o o o o o o o o o o o o o o o o o . o.OXOXv.; o o                                 ",
"                                o - - -.b.c.B @ o o o o o o o o o o o o o - o o o o o o o o o o o o o * o o o o o B c.b.$.- o o                                 ",
"                                o o ; -.n.n.B . . o o o o o o o - o o o o o o o - o o o o - o o o o o o o o o o . B n.n.-.- o o                                 ",
"                                o o ; +.$.$.+.C C 9 o o o o - o o o o - o o o o o o o o o o o o o o o + o O 4 N N @.$.$.#.- o -                                 ",
"                                      - - o &.'.=X&.o o o o o o o o o o o o - o o o o - o o o - o o o o O O *.=X=X&.o o o                                       ",
"                                      o o O *.=X=X*.o O o o o o o o o o o o o o o o o o - o o o o o o o @ o *.'.=X*.o o o                                       ",
"                                      o o o %._._.%.4 4 5 - o o - o o o - o o o o - o o o o - o o o o 4 9 4 %._._.%.o o o                                       ",
"                                            : : : O.`.`./.- o o o o o o o o o - o o o o o o o o o o * /.`.`.@.: 5 :                                             ",
"                                            o o + @.=X=X(.- o o o o o o o o o o o o o o o o o o o o + (.=X=XO.o + @                                             ",
"                                            o o o O.`.'./.: : : : < < - o o o - o o - o o : : : : : : /.'.`.O.o o o                                             ",
"                                                  4 4 k O.).).).>.;.-.4 o o o o o o o o 4 ;.;.>.(.).).O.9 9 4                                                   ",
"                                                    o o k =X=X-Xn.n.c.9 o - o o o o o o s v.b.n.'.=X'.k o o                                                     ",
"                                                    o @ k '.'.'.n.c.c.9 X o o o o - o o i v.c.c.-X'.'.k o o                                                     ",
"                                                        4 O.O.N N a a ; o o o o o o o o : a a N C C O.4                                                         ",
"                                                          o o . . @ . o o o o o o o + o o . o . . @ o                                                           ",
"                                                          o . . o o o o o o o o X o X o o o o o . . o                                                           ",
"                                                        g Z.Z.Z.+ o - ) 3.3.4.3.3.3.3.3.) - o + Z.Z.Z.g                                                         ",
"                                                    o o h Y.E.P.# o - e.f.f.f.f.f.f.f.f.e.- - # P.Y.Y.h o o                                                     ",
"                                                    o o j Y.U.P.# o - e.f.f.f.f.f.f.f.f.e.- . # P.Y.T.j o X                                                     ",
"                                                  r t t Z R.U.P.# . - 5.0.0.0.0.0.0.0.0.5.- . # P.Y.T.Z t t r                                                   ",
"                                            O o o ( f.f.h.R.E.P.# * o - - - o - - o - o - o - # P.Y.R.h.f.f.( o O o                                             ",
"                                            . o @ ( f.f.h.E.E.P.# o o o o o o o o o o o o o o # P.Y.E.h.f.f.4.X . o                                             ",
"                                            4 4 4 4.k.k.z.L.L.K.i e e e & e - o o < e e e e e i K.L.L.z.l.l.d f f f                                             ",
"                                      o o o -.$X$X XW.~.F.# $ p r.g.g.q.q.q.^ o o ^ q.q.i.g.g.r.p $ # F.W.W.Q.I.I.A.. o o                                       ",
"                                      o o o -.%X%X XU.Y.K.+ o w a.f.f.p.u.u.^ o X ^ u.q.p.f.f.a.w @ ; K.U.U.R.R.U.S.o o o                                       ",
"                                      3 3 3 >.%X#X XW.W.F.+ o w a.f.f.p.u.u./ - < / u.u.p.f.f.a.w o + F.W.W.W.Q.T.F.< : :                                       ",
"                                O o : XX,X,X;X#X%XC.j.j.6.; o w a.f.f.d.d.d.a.r.r.a.d.d.d.f.f.a.w o < 6.k.k.}.|.|.oXM.M.:.- o o                                 ",
"                                O o ; <X1X1X:X%X%XV.f.f.e.< @ w a.f.f.f.f.f.f.f.f.f.f.f.f.f.f.a.w o - e.f.f.B..X{.@X%X%Xb.; o o                                 ",
"                                O O ; <X1X1X:X%X#XV.f.f.e.; o w a.f.f.f.f.f.f.f.f.f.f.f.f.f.f.a.w o - e.f.f.B.|.}.oX#X%Xb.; O o                                 ",
"                                o o ; @X:X:X&X%X%XN.y y r - O & y.p.p.d.f.f.6.y t 6.f.f.d.p.p.y.& o - r y t N.*X*X*X#X%Xb.- o o                                 ",
"                                - o ; c.#X$X#X#X%X-.@ o o - o & w.u.u.d.f.f.( . X ( f.f.d.u.u.w.& o o o @ @ -.%X%X#X%X%Xb.; o o                                 ",
"                                o o - b.%X%X%X%X%X;.o o o o - & w.u.u.d.f.f.( X o ( f.f.d.u.u.w.& . . o O @ ;.%X%X%X%X%Xb.; o -                                 ",
"                                  o - #.$.$.$.$.$.V 0 q 0 q q q _ ` ` y.s.s.7./ / 7.s.s.y.` ` ' Z.Z.Z.# o o B $.$.$.$.$.#.; o                                   ",
"                                      o . o o o * % c c c c c v @ o - 9.u.u.u.u.u.u.u.u.7.- o # P.E.E.h o o o . . o o o .                                       ",
"                                      o o o o o * q c c c c c v @ . - 9.u.u.u.u.u.u.u.u.9.- o f P.E.Y.h . - o o o o o o o                                       ",
"                                      o o o o o o % z z z z z x @ O - ` 8.8.8.8.8.8.8.8.` * o $ S.D.D.f o o o o o o o o o                                       ",
"                                                    o o O O O O O O o o - - o - - . * - - . o o o o o o o o                                                     ",
"                                                    o o o . - . o o o o o o o o o o o o - . o o o o - o o -                                                     ",
"                                                    o - + f f f f g f 5 , , = o o o o o - 3 2 2 2 2 2 ; o o                                                     ",
"                                                    o o h P.I.I.I.I.P...~ } T o o o o o u [.[.[.[.[.[.u o o                                                     ",
"                                                    o . h Y.U.E.Y.Y.T...{ { U o - o o . u {.}.}.}.}.{.u o o                                                     ",
"                                                    3 ; l R.E.R.R.R.I...~ | T o o - : ; n [.}.{.{.{.{.m - O                                                     ",
"                                              o . =.,X,XXXH.G.G.G.G.G.k 6 6 = O o n ].].x.H.D H.D D D G G G b o O                                               ",
"                                            o o . =.1X1X,XF S S S S S 3 o o o o . V {..X[.S S S S S S S S S b o o o                                             ",
"                                            - o o =.1X1X,XD S S S S S 2 o o o o o V {.{.[.S S S S S S S S S b . o o                                             ",
"                                                  V A =.A 2 u u u u u 3           u n n V S S S S S S S S S m o O O                                             ",
"                                                    . . X . . o o o o               o . 3 S S S S S S S S S m @ o o                                             ",
"                                                    o - o o o - o o o               O o 2 S S S S S S S S S b o o o                                             ",
"                                                    o o o o o o - o o               O O 3 n n n n n n n M M 2 o -                                               ",
"                                                                                          o o o @ O o o o o                                                     ",
"                                                                                          o o o o O o o o o                                                     ",
"                                                                                          o - o o o o o o o                                                     ",
"                                                                                                                                                                "
};
